solid vcg
  facet normal -9.238796e-01 -3.826834e-01  0.000000e+00
    outer loop
      vertex  -5.326266e-03 -1.547204e-03  3.980000e-02
      vertex  -4.726863e-03 -2.994290e-03  8.800000e-03
      vertex  -4.726863e-03 -2.994290e-03  3.980000e-02
    endloop
  endfacet
  facet normal -9.238796e-01 -3.826834e-01  0.000000e+00
    outer loop
      vertex  -4.726863e-03 -2.994290e-03  8.800000e-03
      vertex  -5.326266e-03 -1.547204e-03  3.980000e-02
      vertex  -5.326266e-03 -1.547204e-03  8.800000e-03
    endloop
  endfacet
  facet normal -3.826834e-01  9.238796e-01  0.000000e+00
    outer loop
      vertex  -2.530711e-03  5.201863e-03  3.980000e-02
      vertex  -1.083625e-03  5.801265e-03  8.800000e-03
      vertex  -2.530711e-03  5.201863e-03  8.800000e-03
    endloop
  endfacet
  facet normal -3.826834e-01  9.238796e-01  0.000000e+00
    outer loop
      vertex  -1.083625e-03  5.801265e-03  8.800000e-03
      vertex  -2.530711e-03  5.201863e-03  3.980000e-02
      vertex  -1.083625e-03  5.801265e-03  3.980000e-02
    endloop
  endfacet
  facet normal  0.000000e+00 -0.000000e+00 -1.000000e+00
    outer loop
      vertex  -1.226726e-02  3.287002e-03  0.000000e+00
      vertex  -1.226726e-02 -3.287002e-03  0.000000e+00
      vertex  -1.270000e-02  1.555301e-18  0.000000e+00
    endloop
  endfacet
  facet normal  0.000000e+00  0.000000e+00 -1.000000e+00
    outer loop
      vertex  -1.226726e-02 -3.287002e-03  0.000000e+00
      vertex  -1.226726e-02  3.287002e-03  0.000000e+00
      vertex  -1.099852e-02 -6.350000e-03  0.000000e+00
    endloop
  endfacet
  facet normal  0.000000e+00  0.000000e+00 -1.000000e+00
    outer loop
      vertex  -1.099852e-02 -6.350000e-03  0.000000e+00
      vertex  -1.226726e-02  3.287002e-03  0.000000e+00
      vertex  -1.099852e-02  6.350000e-03  0.000000e+00
    endloop
  endfacet
  facet normal  0.000000e+00  0.000000e+00 -1.000000e+00
    outer loop
      vertex  -1.099852e-02 -6.350000e-03  0.000000e+00
      vertex  -1.099852e-02  6.350000e-03  0.000000e+00
      vertex  -8.980257e-03 -8.980257e-03  0.000000e+00
    endloop
  endfacet
  facet normal  0.000000e+00  0.000000e+00 -1.000000e+00
    outer loop
      vertex  -8.980257e-03 -8.980257e-03  0.000000e+00
      vertex  -1.099852e-02  6.350000e-03  0.000000e+00
      vertex  -8.980257e-03  8.980257e-03  0.000000e+00
    endloop
  endfacet
  facet normal  0.000000e+00  0.000000e+00 -1.000000e+00
    outer loop
      vertex  -8.980257e-03 -8.980257e-03  0.000000e+00
      vertex  -8.980257e-03  8.980257e-03  0.000000e+00
      vertex  -6.350000e-03 -1.099852e-02  0.000000e+00
    endloop
  endfacet
  facet normal  0.000000e+00  0.000000e+00 -1.000000e+00
    outer loop
      vertex  -6.350000e-03 -1.099852e-02  0.000000e+00
      vertex  -8.980257e-03  8.980257e-03  0.000000e+00
      vertex  -6.350000e-03  1.099852e-02  0.000000e+00
    endloop
  endfacet
  facet normal  0.000000e+00  0.000000e+00 -1.000000e+00
    outer loop
      vertex  -6.350000e-03 -1.099852e-02  0.000000e+00
      vertex  -6.350000e-03  1.099852e-02  0.000000e+00
      vertex  -3.287002e-03 -1.226726e-02  0.000000e+00
    endloop
  endfacet
  facet normal  0.000000e+00  0.000000e+00 -1.000000e+00
    outer loop
      vertex  -3.287002e-03 -1.226726e-02  0.000000e+00
      vertex  -6.350000e-03  1.099852e-02  0.000000e+00
      vertex  -3.287002e-03  1.226726e-02  0.000000e+00
    endloop
  endfacet
  facet normal  0.000000e+00  0.000000e+00 -1.000000e+00
    outer loop
      vertex  -3.287002e-03 -1.226726e-02  0.000000e+00
      vertex  -3.287002e-03  1.226726e-02  0.000000e+00
      vertex  -2.332952e-18 -1.270000e-02  0.000000e+00
    endloop
  endfacet
  facet normal  0.000000e+00  0.000000e+00 -1.000000e+00
    outer loop
      vertex  -2.332952e-18 -1.270000e-02  0.000000e+00
      vertex  -3.287002e-03  1.226726e-02  0.000000e+00
      vertex   7.776507e-19  1.270000e-02  0.000000e+00
    endloop
  endfacet
  facet normal  0.000000e+00  0.000000e+00 -1.000000e+00
    outer loop
      vertex  -2.332952e-18 -1.270000e-02  0.000000e+00
      vertex   7.776507e-19  1.270000e-02  0.000000e+00
      vertex   3.287002e-03 -1.226726e-02  0.000000e+00
    endloop
  endfacet
  facet normal  0.000000e+00  0.000000e+00 -1.000000e+00
    outer loop
      vertex   3.287002e-03 -1.226726e-02  0.000000e+00
      vertex   7.776507e-19  1.270000e-02  0.000000e+00
      vertex   3.287002e-03  1.226726e-02  0.000000e+00
    endloop
  endfacet
  facet normal  0.000000e+00  0.000000e+00 -1.000000e+00
    outer loop
      vertex   3.287002e-03 -1.226726e-02  0.000000e+00
      vertex   3.287002e-03  1.226726e-02  0.000000e+00
      vertex   6.350000e-03 -1.099852e-02  0.000000e+00
    endloop
  endfacet
  facet normal  0.000000e+00  0.000000e+00 -1.000000e+00
    outer loop
      vertex   6.350000e-03 -1.099852e-02  0.000000e+00
      vertex   3.287002e-03  1.226726e-02  0.000000e+00
      vertex   6.350000e-03  1.099852e-02  0.000000e+00
    endloop
  endfacet
  facet normal  0.000000e+00  0.000000e+00 -1.000000e+00
    outer loop
      vertex   6.350000e-03 -1.099852e-02  0.000000e+00
      vertex   6.350000e-03  1.099852e-02  0.000000e+00
      vertex   8.980257e-03 -8.980257e-03  0.000000e+00
    endloop
  endfacet
  facet normal  0.000000e+00  0.000000e+00 -1.000000e+00
    outer loop
      vertex   8.980257e-03 -8.980257e-03  0.000000e+00
      vertex   6.350000e-03  1.099852e-02  0.000000e+00
      vertex   8.980257e-03  8.980257e-03  0.000000e+00
    endloop
  endfacet
  facet normal  0.000000e+00  0.000000e+00 -1.000000e+00
    outer loop
      vertex   8.980257e-03 -8.980257e-03  0.000000e+00
      vertex   8.980257e-03  8.980257e-03  0.000000e+00
      vertex   1.099852e-02 -6.350000e-03  0.000000e+00
    endloop
  endfacet
  facet normal  0.000000e+00  0.000000e+00 -1.000000e+00
    outer loop
      vertex   1.099852e-02 -6.350000e-03  0.000000e+00
      vertex   8.980257e-03  8.980257e-03  0.000000e+00
      vertex   1.099852e-02  6.350000e-03  0.000000e+00
    endloop
  endfacet
  facet normal  0.000000e+00  0.000000e+00 -1.000000e+00
    outer loop
      vertex   1.099852e-02 -6.350000e-03  0.000000e+00
      vertex   1.099852e-02  6.350000e-03  0.000000e+00
      vertex   1.226726e-02 -3.287002e-03  0.000000e+00
    endloop
  endfacet
  facet normal  0.000000e+00  0.000000e+00 -1.000000e+00
    outer loop
      vertex   1.226726e-02 -3.287002e-03  0.000000e+00
      vertex   1.099852e-02  6.350000e-03  0.000000e+00
      vertex   1.226726e-02  3.287002e-03  0.000000e+00
    endloop
  endfacet
  facet normal  0.000000e+00  0.000000e+00 -1.000000e+00
    outer loop
      vertex   1.226726e-02 -3.287002e-03  0.000000e+00
      vertex   1.226726e-02  3.287002e-03  0.000000e+00
      vertex   1.270000e-02  0.000000e+00  0.000000e+00
    endloop
  endfacet
  facet normal  6.087615e-01  7.933533e-01  0.000000e+00
    outer loop
      vertex   3.469289e-03  5.201863e-03  3.980000e-02
      vertex   4.711930e-03  4.248351e-03  8.800000e-03
      vertex   3.469289e-03  5.201863e-03  8.800000e-03
    endloop
  endfacet
  facet normal  6.087615e-01  7.933533e-01 -0.000000e+00
    outer loop
      vertex   4.711930e-03  4.248351e-03  8.800000e-03
      vertex   3.469289e-03  5.201863e-03  3.980000e-02
      vertex   4.711930e-03  4.248351e-03  3.980000e-02
    endloop
  endfacet
  facet normal  3.826836e-01 -9.238794e-01  0.000000e+00
    outer loop
      vertex   3.469289e-03 -5.190442e-03  3.980000e-02
      vertex   2.022203e-03 -5.789845e-03  8.800000e-03
      vertex   3.469289e-03 -5.190442e-03  8.800000e-03
    endloop
  endfacet
  facet normal  3.826836e-01 -9.238794e-01  0.000000e+00
    outer loop
      vertex   2.022203e-03 -5.789845e-03  8.800000e-03
      vertex   3.469289e-03 -5.190442e-03  3.980000e-02
      vertex   2.022203e-03 -5.789845e-03  3.980000e-02
    endloop
  endfacet
  facet normal  6.087613e-01 -7.933534e-01  0.000000e+00
    outer loop
      vertex   8.980257e-03 -8.980257e-03  8.800000e-03
      vertex   6.350000e-03 -1.099852e-02  0.000000e+00
      vertex   8.980257e-03 -8.980257e-03  0.000000e+00
    endloop
  endfacet
  facet normal  6.087613e-01 -7.933534e-01  0.000000e+00
    outer loop
      vertex   6.350000e-03 -1.099852e-02  0.000000e+00
      vertex   8.980257e-03 -8.980257e-03  8.800000e-03
      vertex   6.350000e-03 -1.099852e-02  8.800000e-03
    endloop
  endfacet
  facet normal  7.933534e-01 -6.087613e-01  0.000000e+00
    outer loop
      vertex   1.099852e-02 -6.350000e-03  0.000000e+00
      vertex   8.980257e-03 -8.980257e-03  8.800000e-03
      vertex   8.980257e-03 -8.980257e-03  0.000000e+00
    endloop
  endfacet
  facet normal  7.933534e-01 -6.087613e-01  0.000000e+00
    outer loop
      vertex   8.980257e-03 -8.980257e-03  8.800000e-03
      vertex   1.099852e-02 -6.350000e-03  0.000000e+00
      vertex   1.099852e-02 -6.350000e-03  8.800000e-03
    endloop
  endfacet
  facet normal  9.238795e-01 -3.826834e-01  0.000000e+00
    outer loop
      vertex   1.226726e-02 -3.287002e-03  0.000000e+00
      vertex   1.099852e-02 -6.350000e-03  8.800000e-03
      vertex   1.099852e-02 -6.350000e-03  0.000000e+00
    endloop
  endfacet
  facet normal  9.238795e-01 -3.826834e-01  0.000000e+00
    outer loop
      vertex   1.099852e-02 -6.350000e-03  8.800000e-03
      vertex   1.226726e-02 -3.287002e-03  0.000000e+00
      vertex   1.226726e-02 -3.287002e-03  8.800000e-03
    endloop
  endfacet
  facet normal  7.933533e-01  6.087615e-01  0.000000e+00
    outer loop
      vertex   4.711930e-03  4.248351e-03  8.800000e-03
      vertex   5.665442e-03  3.005710e-03  3.980000e-02
      vertex   5.665442e-03  3.005710e-03  8.800000e-03
    endloop
  endfacet
  facet normal  7.933533e-01  6.087615e-01  0.000000e+00
    outer loop
      vertex   5.665442e-03  3.005710e-03  3.980000e-02
      vertex   4.711930e-03  4.248351e-03  8.800000e-03
      vertex   4.711930e-03  4.248351e-03  3.980000e-02
    endloop
  endfacet
  facet normal  0.000000e+00 -0.000000e+00  1.000000e+00
    outer loop
      vertex  -5.326266e-03 -1.547204e-03  3.980000e-02
      vertex  -5.326266e-03  1.558625e-03  3.980000e-02
      vertex  -5.530711e-03  5.710378e-06  3.980000e-02
    endloop
  endfacet
  facet normal -0.000000e+00  0.000000e+00  1.000000e+00
    outer loop
      vertex  -5.326266e-03  1.558625e-03  3.980000e-02
      vertex  -5.326266e-03 -1.547204e-03  3.980000e-02
      vertex  -4.726863e-03  3.005710e-03  3.980000e-02
    endloop
  endfacet
  facet normal  0.000000e+00  0.000000e+00  1.000000e+00
    outer loop
      vertex  -4.726863e-03  3.005710e-03  3.980000e-02
      vertex  -5.326266e-03 -1.547204e-03  3.980000e-02
      vertex  -4.726863e-03 -2.994290e-03  3.980000e-02
    endloop
  endfacet
  facet normal -0.000000e+00  0.000000e+00  1.000000e+00
    outer loop
      vertex  -4.726863e-03  3.005710e-03  3.980000e-02
      vertex  -4.726863e-03 -2.994290e-03  3.980000e-02
      vertex  -3.773352e-03  4.248351e-03  3.980000e-02
    endloop
  endfacet
  facet normal  0.000000e+00  0.000000e+00  1.000000e+00
    outer loop
      vertex  -3.773352e-03  4.248351e-03  3.980000e-02
      vertex  -4.726863e-03 -2.994290e-03  3.980000e-02
      vertex  -3.773352e-03 -4.236931e-03  3.980000e-02
    endloop
  endfacet
  facet normal -0.000000e+00  0.000000e+00  1.000000e+00
    outer loop
      vertex  -3.773352e-03  4.248351e-03  3.980000e-02
      vertex  -3.773352e-03 -4.236931e-03  3.980000e-02
      vertex  -2.530711e-03  5.201863e-03  3.980000e-02
    endloop
  endfacet
  facet normal  0.000000e+00  0.000000e+00  1.000000e+00
    outer loop
      vertex  -2.530711e-03  5.201863e-03  3.980000e-02
      vertex  -3.773352e-03 -4.236931e-03  3.980000e-02
      vertex  -2.530711e-03 -5.190442e-03  3.980000e-02
    endloop
  endfacet
  facet normal -0.000000e+00  0.000000e+00  1.000000e+00
    outer loop
      vertex  -2.530711e-03  5.201863e-03  3.980000e-02
      vertex  -2.530711e-03 -5.190442e-03  3.980000e-02
      vertex  -1.083625e-03  5.801265e-03  3.980000e-02
    endloop
  endfacet
  facet normal  0.000000e+00  0.000000e+00  1.000000e+00
    outer loop
      vertex  -1.083625e-03  5.801265e-03  3.980000e-02
      vertex  -2.530711e-03 -5.190442e-03  3.980000e-02
      vertex  -1.083625e-03 -5.789845e-03  3.980000e-02
    endloop
  endfacet
  facet normal -0.000000e+00  0.000000e+00  1.000000e+00
    outer loop
      vertex  -1.083625e-03  5.801265e-03  3.980000e-02
      vertex  -1.083625e-03 -5.789845e-03  3.980000e-02
      vertex   4.692890e-04  6.005710e-03  3.980000e-02
    endloop
  endfacet
  facet normal  0.000000e+00  0.000000e+00  1.000000e+00
    outer loop
      vertex   4.692890e-04  6.005710e-03  3.980000e-02
      vertex  -1.083625e-03 -5.789845e-03  3.980000e-02
      vertex   4.692890e-04 -5.994290e-03  3.980000e-02
    endloop
  endfacet
  facet normal  0.000000e+00  0.000000e+00  1.000000e+00
    outer loop
      vertex   4.692890e-04  6.005710e-03  3.980000e-02
      vertex   4.692890e-04 -5.994290e-03  3.980000e-02
      vertex   2.022203e-03  5.801265e-03  3.980000e-02
    endloop
  endfacet
  facet normal  0.000000e+00  0.000000e+00  1.000000e+00
    outer loop
      vertex   2.022203e-03  5.801265e-03  3.980000e-02
      vertex   4.692890e-04 -5.994290e-03  3.980000e-02
      vertex   2.022203e-03 -5.789845e-03  3.980000e-02
    endloop
  endfacet
  facet normal  0.000000e+00  0.000000e+00  1.000000e+00
    outer loop
      vertex   2.022203e-03  5.801265e-03  3.980000e-02
      vertex   2.022203e-03 -5.789845e-03  3.980000e-02
      vertex   3.469289e-03  5.201863e-03  3.980000e-02
    endloop
  endfacet
  facet normal  0.000000e+00  0.000000e+00  1.000000e+00
    outer loop
      vertex   3.469289e-03  5.201863e-03  3.980000e-02
      vertex   2.022203e-03 -5.789845e-03  3.980000e-02
      vertex   3.469289e-03 -5.190442e-03  3.980000e-02
    endloop
  endfacet
  facet normal  0.000000e+00  0.000000e+00  1.000000e+00
    outer loop
      vertex   3.469289e-03  5.201863e-03  3.980000e-02
      vertex   3.469289e-03 -5.190442e-03  3.980000e-02
      vertex   4.711930e-03  4.248351e-03  3.980000e-02
    endloop
  endfacet
  facet normal  0.000000e+00  0.000000e+00  1.000000e+00
    outer loop
      vertex   4.711930e-03  4.248351e-03  3.980000e-02
      vertex   3.469289e-03 -5.190442e-03  3.980000e-02
      vertex   4.711930e-03 -4.236931e-03  3.980000e-02
    endloop
  endfacet
  facet normal  0.000000e+00  0.000000e+00  1.000000e+00
    outer loop
      vertex   4.711930e-03  4.248351e-03  3.980000e-02
      vertex   4.711930e-03 -4.236931e-03  3.980000e-02
      vertex   5.665442e-03  3.005710e-03  3.980000e-02
    endloop
  endfacet
  facet normal  0.000000e+00  0.000000e+00  1.000000e+00
    outer loop
      vertex   5.665442e-03  3.005710e-03  3.980000e-02
      vertex   4.711930e-03 -4.236931e-03  3.980000e-02
      vertex   5.665442e-03 -2.994290e-03  3.980000e-02
    endloop
  endfacet
  facet normal  0.000000e+00  0.000000e+00  1.000000e+00
    outer loop
      vertex   5.665442e-03  3.005710e-03  3.980000e-02
      vertex   5.665442e-03 -2.994290e-03  3.980000e-02
      vertex   6.264844e-03  1.558625e-03  3.980000e-02
    endloop
  endfacet
  facet normal  0.000000e+00  0.000000e+00  1.000000e+00
    outer loop
      vertex   6.264844e-03  1.558625e-03  3.980000e-02
      vertex   5.665442e-03 -2.994290e-03  3.980000e-02
      vertex   6.264844e-03 -1.547204e-03  3.980000e-02
    endloop
  endfacet
  facet normal  0.000000e+00  0.000000e+00  1.000000e+00
    outer loop
      vertex   6.264844e-03  1.558625e-03  3.980000e-02
      vertex   6.264844e-03 -1.547204e-03  3.980000e-02
      vertex   6.469289e-03  5.710378e-06  3.980000e-02
    endloop
  endfacet
  facet normal  9.914449e-01 -1.305261e-01  0.000000e+00
    outer loop
      vertex   1.270000e-02  0.000000e+00  0.000000e+00
      vertex   1.226726e-02 -3.287002e-03  8.800000e-03
      vertex   1.226726e-02 -3.287002e-03  0.000000e+00
    endloop
  endfacet
  facet normal  9.914449e-01 -1.305261e-01  0.000000e+00
    outer loop
      vertex   1.226726e-02 -3.287002e-03  8.800000e-03
      vertex   1.270000e-02  0.000000e+00  0.000000e+00
      vertex   1.270000e-02  0.000000e+00  8.800000e-03
    endloop
  endfacet
  facet normal -7.933534e-01  6.087613e-01  0.000000e+00
    outer loop
      vertex  -8.980257e-03  8.980257e-03  8.800000e-03
      vertex  -1.099852e-02  6.350000e-03  0.000000e+00
      vertex  -1.099852e-02  6.350000e-03  8.800000e-03
    endloop
  endfacet
  facet normal -7.933534e-01  6.087613e-01  0.000000e+00
    outer loop
      vertex  -1.099852e-02  6.350000e-03  0.000000e+00
      vertex  -8.980257e-03  8.980257e-03  8.800000e-03
      vertex  -8.980257e-03  8.980257e-03  0.000000e+00
    endloop
  endfacet
  facet normal -9.238795e-01  3.826834e-01  0.000000e+00
    outer loop
      vertex  -1.099852e-02  6.350000e-03  8.800000e-03
      vertex  -1.226726e-02  3.287002e-03  0.000000e+00
      vertex  -1.226726e-02  3.287002e-03  8.800000e-03
    endloop
  endfacet
  facet normal -9.238795e-01  3.826834e-01  0.000000e+00
    outer loop
      vertex  -1.226726e-02  3.287002e-03  0.000000e+00
      vertex  -1.099852e-02  6.350000e-03  8.800000e-03
      vertex  -1.099852e-02  6.350000e-03  0.000000e+00
    endloop
  endfacet
  facet normal  9.914449e-01  1.305261e-01  0.000000e+00
    outer loop
      vertex   1.226726e-02  3.287002e-03  0.000000e+00
      vertex   1.270000e-02  0.000000e+00  8.800000e-03
      vertex   1.270000e-02  0.000000e+00  0.000000e+00
    endloop
  endfacet
  facet normal  9.914449e-01  1.305261e-01  0.000000e+00
    outer loop
      vertex   1.270000e-02  0.000000e+00  8.800000e-03
      vertex   1.226726e-02  3.287002e-03  0.000000e+00
      vertex   1.226726e-02  3.287002e-03  8.800000e-03
    endloop
  endfacet
  facet normal  9.238795e-01  3.826834e-01  0.000000e+00
    outer loop
      vertex   1.099852e-02  6.350000e-03  0.000000e+00
      vertex   1.226726e-02  3.287002e-03  8.800000e-03
      vertex   1.226726e-02  3.287002e-03  0.000000e+00
    endloop
  endfacet
  facet normal  9.238795e-01  3.826834e-01  0.000000e+00
    outer loop
      vertex   1.226726e-02  3.287002e-03  8.800000e-03
      vertex   1.099852e-02  6.350000e-03  0.000000e+00
      vertex   1.099852e-02  6.350000e-03  8.800000e-03
    endloop
  endfacet
  facet normal  7.933534e-01  6.087613e-01  0.000000e+00
    outer loop
      vertex   8.980257e-03  8.980257e-03  0.000000e+00
      vertex   1.099852e-02  6.350000e-03  8.800000e-03
      vertex   1.099852e-02  6.350000e-03  0.000000e+00
    endloop
  endfacet
  facet normal  7.933534e-01  6.087613e-01  0.000000e+00
    outer loop
      vertex   1.099852e-02  6.350000e-03  8.800000e-03
      vertex   8.980257e-03  8.980257e-03  0.000000e+00
      vertex   8.980257e-03  8.980257e-03  8.800000e-03
    endloop
  endfacet
  facet normal -9.914449e-01  1.305261e-01  0.000000e+00
    outer loop
      vertex  -1.226726e-02  3.287002e-03  8.800000e-03
      vertex  -1.270000e-02  1.555301e-18  0.000000e+00
      vertex  -1.270000e-02  1.555301e-18  8.800000e-03
    endloop
  endfacet
  facet normal -9.914449e-01  1.305261e-01  0.000000e+00
    outer loop
      vertex  -1.270000e-02  1.555301e-18  0.000000e+00
      vertex  -1.226726e-02  3.287002e-03  8.800000e-03
      vertex  -1.226726e-02  3.287002e-03  0.000000e+00
    endloop
  endfacet
  facet normal -9.914449e-01 -1.305261e-01  0.000000e+00
    outer loop
      vertex  -1.270000e-02  1.555301e-18  8.800000e-03
      vertex  -1.226726e-02 -3.287002e-03  0.000000e+00
      vertex  -1.226726e-02 -3.287002e-03  8.800000e-03
    endloop
  endfacet
  facet normal -9.914449e-01 -1.305261e-01  0.000000e+00
    outer loop
      vertex  -1.226726e-02 -3.287002e-03  0.000000e+00
      vertex  -1.270000e-02  1.555301e-18  8.800000e-03
      vertex  -1.270000e-02  1.555301e-18  0.000000e+00
    endloop
  endfacet
  facet normal  1.305261e-01 -9.914448e-01  0.000000e+00
    outer loop
      vertex   2.022203e-03 -5.789845e-03  3.980000e-02
      vertex   4.692890e-04 -5.994290e-03  8.800000e-03
      vertex   2.022203e-03 -5.789845e-03  8.800000e-03
    endloop
  endfacet
  facet normal  1.305261e-01 -9.914448e-01  0.000000e+00
    outer loop
      vertex   4.692890e-04 -5.994290e-03  8.800000e-03
      vertex   2.022203e-03 -5.789845e-03  3.980000e-02
      vertex   4.692890e-04 -5.994290e-03  3.980000e-02
    endloop
  endfacet
  facet normal -9.238795e-01 -3.826834e-01  0.000000e+00
    outer loop
      vertex  -1.226726e-02 -3.287002e-03  8.800000e-03
      vertex  -1.099852e-02 -6.350000e-03  0.000000e+00
      vertex  -1.099852e-02 -6.350000e-03  8.800000e-03
    endloop
  endfacet
  facet normal -9.238795e-01 -3.826834e-01  0.000000e+00
    outer loop
      vertex  -1.099852e-02 -6.350000e-03  0.000000e+00
      vertex  -1.226726e-02 -3.287002e-03  8.800000e-03
      vertex  -1.226726e-02 -3.287002e-03  0.000000e+00
    endloop
  endfacet
  facet normal -7.933534e-01 -6.087613e-01  0.000000e+00
    outer loop
      vertex  -1.099852e-02 -6.350000e-03  8.800000e-03
      vertex  -8.980257e-03 -8.980257e-03  0.000000e+00
      vertex  -8.980257e-03 -8.980257e-03  8.800000e-03
    endloop
  endfacet
  facet normal -7.933534e-01 -6.087613e-01  0.000000e+00
    outer loop
      vertex  -8.980257e-03 -8.980257e-03  0.000000e+00
      vertex  -1.099852e-02 -6.350000e-03  8.800000e-03
      vertex  -1.099852e-02 -6.350000e-03  0.000000e+00
    endloop
  endfacet
  facet normal  6.087613e-01  7.933534e-01  0.000000e+00
    outer loop
      vertex   6.350000e-03  1.099852e-02  8.800000e-03
      vertex   8.980257e-03  8.980257e-03  0.000000e+00
      vertex   6.350000e-03  1.099852e-02  0.000000e+00
    endloop
  endfacet
  facet normal  6.087613e-01  7.933534e-01 -0.000000e+00
    outer loop
      vertex   8.980257e-03  8.980257e-03  0.000000e+00
      vertex   6.350000e-03  1.099852e-02  8.800000e-03
      vertex   8.980257e-03  8.980257e-03  8.800000e-03
    endloop
  endfacet
  facet normal -1.305261e-01 -9.914448e-01 -0.000000e+00
    outer loop
      vertex   4.692890e-04 -5.994290e-03  3.980000e-02
      vertex  -1.083625e-03 -5.789845e-03  8.800000e-03
      vertex   4.692890e-04 -5.994290e-03  8.800000e-03
    endloop
  endfacet
  facet normal -1.305261e-01 -9.914448e-01  0.000000e+00
    outer loop
      vertex  -1.083625e-03 -5.789845e-03  8.800000e-03
      vertex   4.692890e-04 -5.994290e-03  3.980000e-02
      vertex  -1.083625e-03 -5.789845e-03  3.980000e-02
    endloop
  endfacet
  facet normal -6.087613e-01 -7.933534e-01 -0.000000e+00
    outer loop
      vertex  -6.350000e-03 -1.099852e-02  8.800000e-03
      vertex  -8.980257e-03 -8.980257e-03  0.000000e+00
      vertex  -6.350000e-03 -1.099852e-02  0.000000e+00
    endloop
  endfacet
  facet normal -6.087613e-01 -7.933534e-01  0.000000e+00
    outer loop
      vertex  -8.980257e-03 -8.980257e-03  0.000000e+00
      vertex  -6.350000e-03 -1.099852e-02  8.800000e-03
      vertex  -8.980257e-03 -8.980257e-03  8.800000e-03
    endloop
  endfacet
  facet normal  9.238796e-01  3.826834e-01  0.000000e+00
    outer loop
      vertex   5.665442e-03  3.005710e-03  8.800000e-03
      vertex   6.264844e-03  1.558625e-03  3.980000e-02
      vertex   6.264844e-03  1.558625e-03  8.800000e-03
    endloop
  endfacet
  facet normal  9.238796e-01  3.826834e-01  0.000000e+00
    outer loop
      vertex   6.264844e-03  1.558625e-03  3.980000e-02
      vertex   5.665442e-03  3.005710e-03  8.800000e-03
      vertex   5.665442e-03  3.005710e-03  3.980000e-02
    endloop
  endfacet
  facet normal -3.826836e-01 -9.238794e-01 -0.000000e+00
    outer loop
      vertex  -1.083625e-03 -5.789845e-03  3.980000e-02
      vertex  -2.530711e-03 -5.190442e-03  8.800000e-03
      vertex  -1.083625e-03 -5.789845e-03  8.800000e-03
    endloop
  endfacet
  facet normal -3.826836e-01 -9.238794e-01  0.000000e+00
    outer loop
      vertex  -2.530711e-03 -5.190442e-03  8.800000e-03
      vertex  -1.083625e-03 -5.789845e-03  3.980000e-02
      vertex  -2.530711e-03 -5.190442e-03  3.980000e-02
    endloop
  endfacet
  facet normal -6.087613e-01 -7.933534e-01 -0.000000e+00
    outer loop
      vertex  -2.530711e-03 -5.190442e-03  3.980000e-02
      vertex  -3.773352e-03 -4.236931e-03  8.800000e-03
      vertex  -2.530711e-03 -5.190442e-03  8.800000e-03
    endloop
  endfacet
  facet normal -6.087613e-01 -7.933534e-01  0.000000e+00
    outer loop
      vertex  -3.773352e-03 -4.236931e-03  8.800000e-03
      vertex  -2.530711e-03 -5.190442e-03  3.980000e-02
      vertex  -3.773352e-03 -4.236931e-03  3.980000e-02
    endloop
  endfacet
  facet normal -7.933533e-01 -6.087614e-01  0.000000e+00
    outer loop
      vertex  -4.726863e-03 -2.994290e-03  3.980000e-02
      vertex  -3.773352e-03 -4.236931e-03  8.800000e-03
      vertex  -3.773352e-03 -4.236931e-03  3.980000e-02
    endloop
  endfacet
  facet normal -7.933533e-01 -6.087614e-01  0.000000e+00
    outer loop
      vertex  -3.773352e-03 -4.236931e-03  8.800000e-03
      vertex  -4.726863e-03 -2.994290e-03  3.980000e-02
      vertex  -4.726863e-03 -2.994290e-03  8.800000e-03
    endloop
  endfacet
  facet normal  3.826834e-01  9.238795e-01  0.000000e+00
    outer loop
      vertex   3.287002e-03  1.226726e-02  8.800000e-03
      vertex   6.350000e-03  1.099852e-02  0.000000e+00
      vertex   3.287002e-03  1.226726e-02  0.000000e+00
    endloop
  endfacet
  facet normal  3.826834e-01  9.238795e-01 -0.000000e+00
    outer loop
      vertex   6.350000e-03  1.099852e-02  0.000000e+00
      vertex   3.287002e-03  1.226726e-02  8.800000e-03
      vertex   6.350000e-03  1.099852e-02  8.800000e-03
    endloop
  endfacet
  facet normal  1.305261e-01  9.914449e-01  0.000000e+00
    outer loop
      vertex   7.776507e-19  1.270000e-02  8.800000e-03
      vertex   3.287002e-03  1.226726e-02  0.000000e+00
      vertex   7.776507e-19  1.270000e-02  0.000000e+00
    endloop
  endfacet
  facet normal  1.305261e-01  9.914449e-01 -0.000000e+00
    outer loop
      vertex   3.287002e-03  1.226726e-02  0.000000e+00
      vertex   7.776507e-19  1.270000e-02  8.800000e-03
      vertex   3.287002e-03  1.226726e-02  8.800000e-03
    endloop
  endfacet
  facet normal -1.305261e-01  9.914449e-01  0.000000e+00
    outer loop
      vertex  -3.287002e-03  1.226726e-02  8.800000e-03
      vertex   7.776507e-19  1.270000e-02  0.000000e+00
      vertex  -3.287002e-03  1.226726e-02  0.000000e+00
    endloop
  endfacet
  facet normal -1.305261e-01  9.914449e-01  0.000000e+00
    outer loop
      vertex   7.776507e-19  1.270000e-02  0.000000e+00
      vertex  -3.287002e-03  1.226726e-02  8.800000e-03
      vertex   7.776507e-19  1.270000e-02  8.800000e-03
    endloop
  endfacet
  facet normal -3.826834e-01 -9.238795e-01 -0.000000e+00
    outer loop
      vertex  -3.287002e-03 -1.226726e-02  8.800000e-03
      vertex  -6.350000e-03 -1.099852e-02  0.000000e+00
      vertex  -3.287002e-03 -1.226726e-02  0.000000e+00
    endloop
  endfacet
  facet normal -3.826834e-01 -9.238795e-01  0.000000e+00
    outer loop
      vertex  -6.350000e-03 -1.099852e-02  0.000000e+00
      vertex  -3.287002e-03 -1.226726e-02  8.800000e-03
      vertex  -6.350000e-03 -1.099852e-02  8.800000e-03
    endloop
  endfacet
  facet normal -3.826834e-01  9.238795e-01  0.000000e+00
    outer loop
      vertex  -6.350000e-03  1.099852e-02  8.800000e-03
      vertex  -3.287002e-03  1.226726e-02  0.000000e+00
      vertex  -6.350000e-03  1.099852e-02  0.000000e+00
    endloop
  endfacet
  facet normal -3.826834e-01  9.238795e-01  0.000000e+00
    outer loop
      vertex  -3.287002e-03  1.226726e-02  0.000000e+00
      vertex  -6.350000e-03  1.099852e-02  8.800000e-03
      vertex  -3.287002e-03  1.226726e-02  8.800000e-03
    endloop
  endfacet
  facet normal  9.914448e-01  1.305261e-01  0.000000e+00
    outer loop
      vertex   6.264844e-03  1.558625e-03  8.800000e-03
      vertex   6.469289e-03  5.710378e-06  3.980000e-02
      vertex   6.469289e-03  5.710378e-06  8.800000e-03
    endloop
  endfacet
  facet normal  9.914448e-01  1.305261e-01  0.000000e+00
    outer loop
      vertex   6.469289e-03  5.710378e-06  3.980000e-02
      vertex   6.264844e-03  1.558625e-03  8.800000e-03
      vertex   6.264844e-03  1.558625e-03  3.980000e-02
    endloop
  endfacet
  facet normal -1.305261e-01 -9.914449e-01 -0.000000e+00
    outer loop
      vertex  -2.332952e-18 -1.270000e-02  8.800000e-03
      vertex  -3.287002e-03 -1.226726e-02  0.000000e+00
      vertex  -2.332952e-18 -1.270000e-02  0.000000e+00
    endloop
  endfacet
  facet normal -1.305261e-01 -9.914449e-01  0.000000e+00
    outer loop
      vertex  -3.287002e-03 -1.226726e-02  0.000000e+00
      vertex  -2.332952e-18 -1.270000e-02  8.800000e-03
      vertex  -3.287002e-03 -1.226726e-02  8.800000e-03
    endloop
  endfacet
  facet normal -1.305264e-01  9.914448e-01  0.000000e+00
    outer loop
      vertex  -1.083625e-03  5.801265e-03  3.980000e-02
      vertex   4.692890e-04  6.005710e-03  8.800000e-03
      vertex  -1.083625e-03  5.801265e-03  8.800000e-03
    endloop
  endfacet
  facet normal -1.305264e-01  9.914448e-01  0.000000e+00
    outer loop
      vertex   4.692890e-04  6.005710e-03  8.800000e-03
      vertex  -1.083625e-03  5.801265e-03  3.980000e-02
      vertex   4.692890e-04  6.005710e-03  3.980000e-02
    endloop
  endfacet
  facet normal  1.305264e-01  9.914448e-01  0.000000e+00
    outer loop
      vertex   4.692890e-04  6.005710e-03  3.980000e-02
      vertex   2.022203e-03  5.801265e-03  8.800000e-03
      vertex   4.692890e-04  6.005710e-03  8.800000e-03
    endloop
  endfacet
  facet normal  1.305264e-01  9.914448e-01 -0.000000e+00
    outer loop
      vertex   2.022203e-03  5.801265e-03  8.800000e-03
      vertex   4.692890e-04  6.005710e-03  3.980000e-02
      vertex   2.022203e-03  5.801265e-03  3.980000e-02
    endloop
  endfacet
  facet normal  3.826834e-01  9.238796e-01  0.000000e+00
    outer loop
      vertex   2.022203e-03  5.801265e-03  3.980000e-02
      vertex   3.469289e-03  5.201863e-03  8.800000e-03
      vertex   2.022203e-03  5.801265e-03  8.800000e-03
    endloop
  endfacet
  facet normal  3.826834e-01  9.238796e-01 -0.000000e+00
    outer loop
      vertex   3.469289e-03  5.201863e-03  8.800000e-03
      vertex   2.022203e-03  5.801265e-03  3.980000e-02
      vertex   3.469289e-03  5.201863e-03  3.980000e-02
    endloop
  endfacet
  facet normal -9.914448e-01 -1.305261e-01  0.000000e+00
    outer loop
      vertex  -5.530711e-03  5.710378e-06  3.980000e-02
      vertex  -5.326266e-03 -1.547204e-03  8.800000e-03
      vertex  -5.326266e-03 -1.547204e-03  3.980000e-02
    endloop
  endfacet
  facet normal -9.914448e-01 -1.305261e-01  0.000000e+00
    outer loop
      vertex  -5.326266e-03 -1.547204e-03  8.800000e-03
      vertex  -5.530711e-03  5.710378e-06  3.980000e-02
      vertex  -5.530711e-03  5.710378e-06  8.800000e-03
    endloop
  endfacet
  facet normal -9.914448e-01  1.305261e-01  0.000000e+00
    outer loop
      vertex  -5.326266e-03  1.558625e-03  3.980000e-02
      vertex  -5.530711e-03  5.710378e-06  8.800000e-03
      vertex  -5.530711e-03  5.710378e-06  3.980000e-02
    endloop
  endfacet
  facet normal -9.914448e-01  1.305261e-01  0.000000e+00
    outer loop
      vertex  -5.530711e-03  5.710378e-06  8.800000e-03
      vertex  -5.326266e-03  1.558625e-03  3.980000e-02
      vertex  -5.326266e-03  1.558625e-03  8.800000e-03
    endloop
  endfacet
  facet normal -9.238796e-01  3.826834e-01  0.000000e+00
    outer loop
      vertex  -4.726863e-03  3.005710e-03  3.980000e-02
      vertex  -5.326266e-03  1.558625e-03  8.800000e-03
      vertex  -5.326266e-03  1.558625e-03  3.980000e-02
    endloop
  endfacet
  facet normal -9.238796e-01  3.826834e-01  0.000000e+00
    outer loop
      vertex  -5.326266e-03  1.558625e-03  8.800000e-03
      vertex  -4.726863e-03  3.005710e-03  3.980000e-02
      vertex  -4.726863e-03  3.005710e-03  8.800000e-03
    endloop
  endfacet
  facet normal -6.087613e-01  7.933534e-01  0.000000e+00
    outer loop
      vertex  -8.980257e-03  8.980257e-03  8.800000e-03
      vertex  -6.350000e-03  1.099852e-02  0.000000e+00
      vertex  -8.980257e-03  8.980257e-03  0.000000e+00
    endloop
  endfacet
  facet normal -6.087613e-01  7.933534e-01  0.000000e+00
    outer loop
      vertex  -6.350000e-03  1.099852e-02  0.000000e+00
      vertex  -8.980257e-03  8.980257e-03  8.800000e-03
      vertex  -6.350000e-03  1.099852e-02  8.800000e-03
    endloop
  endfacet
  facet normal  9.914448e-01 -1.305261e-01  0.000000e+00
    outer loop
      vertex   6.469289e-03  5.710378e-06  8.800000e-03
      vertex   6.264844e-03 -1.547204e-03  3.980000e-02
      vertex   6.264844e-03 -1.547204e-03  8.800000e-03
    endloop
  endfacet
  facet normal  9.914448e-01 -1.305261e-01  0.000000e+00
    outer loop
      vertex   6.264844e-03 -1.547204e-03  3.980000e-02
      vertex   6.469289e-03  5.710378e-06  8.800000e-03
      vertex   6.469289e-03  5.710378e-06  3.980000e-02
    endloop
  endfacet
  facet normal  1.305261e-01 -9.914449e-01  0.000000e+00
    outer loop
      vertex   3.287002e-03 -1.226726e-02  8.800000e-03
      vertex  -2.332952e-18 -1.270000e-02  0.000000e+00
      vertex   3.287002e-03 -1.226726e-02  0.000000e+00
    endloop
  endfacet
  facet normal  1.305261e-01 -9.914449e-01  0.000000e+00
    outer loop
      vertex  -2.332952e-18 -1.270000e-02  0.000000e+00
      vertex   3.287002e-03 -1.226726e-02  8.800000e-03
      vertex  -2.332952e-18 -1.270000e-02  8.800000e-03
    endloop
  endfacet
  facet normal -7.933533e-01  6.087615e-01  0.000000e+00
    outer loop
      vertex  -3.773352e-03  4.248351e-03  3.980000e-02
      vertex  -4.726863e-03  3.005710e-03  8.800000e-03
      vertex  -4.726863e-03  3.005710e-03  3.980000e-02
    endloop
  endfacet
  facet normal -7.933533e-01  6.087615e-01  0.000000e+00
    outer loop
      vertex  -4.726863e-03  3.005710e-03  8.800000e-03
      vertex  -3.773352e-03  4.248351e-03  3.980000e-02
      vertex  -3.773352e-03  4.248351e-03  8.800000e-03
    endloop
  endfacet
  facet normal -6.087615e-01  7.933533e-01  0.000000e+00
    outer loop
      vertex  -3.773352e-03  4.248351e-03  3.980000e-02
      vertex  -2.530711e-03  5.201863e-03  8.800000e-03
      vertex  -3.773352e-03  4.248351e-03  8.800000e-03
    endloop
  endfacet
  facet normal -6.087615e-01  7.933533e-01  0.000000e+00
    outer loop
      vertex  -2.530711e-03  5.201863e-03  8.800000e-03
      vertex  -3.773352e-03  4.248351e-03  3.980000e-02
      vertex  -2.530711e-03  5.201863e-03  3.980000e-02
    endloop
  endfacet
  facet normal  0.000000e+00 -0.000000e+00  1.000000e+00
    outer loop
      vertex  -1.226726e-02 -3.287002e-03  8.800000e-03
      vertex  -1.226726e-02  3.287002e-03  8.800000e-03
      vertex  -1.270000e-02  1.555301e-18  8.800000e-03
    endloop
  endfacet
  facet normal  0.000000e+00  0.000000e+00  1.000000e+00
    outer loop
      vertex  -1.226726e-02  3.287002e-03  8.800000e-03
      vertex  -1.226726e-02 -3.287002e-03  8.800000e-03
      vertex  -1.099852e-02 -6.350000e-03  8.800000e-03
    endloop
  endfacet
  facet normal -0.000000e+00  0.000000e+00  1.000000e+00
    outer loop
      vertex  -1.226726e-02  3.287002e-03  8.800000e-03
      vertex  -1.099852e-02 -6.350000e-03  8.800000e-03
      vertex  -1.099852e-02  6.350000e-03  8.800000e-03
    endloop
  endfacet
  facet normal  0.000000e+00  0.000000e+00  1.000000e+00
    outer loop
      vertex  -1.099852e-02  6.350000e-03  8.800000e-03
      vertex  -1.099852e-02 -6.350000e-03  8.800000e-03
      vertex  -8.980257e-03 -8.980257e-03  8.800000e-03
    endloop
  endfacet
  facet normal -0.000000e+00  0.000000e+00  1.000000e+00
    outer loop
      vertex  -1.099852e-02  6.350000e-03  8.800000e-03
      vertex  -8.980257e-03 -8.980257e-03  8.800000e-03
      vertex  -8.980257e-03  8.980257e-03  8.800000e-03
    endloop
  endfacet
  facet normal  0.000000e+00  0.000000e+00  1.000000e+00
    outer loop
      vertex  -8.980257e-03  8.980257e-03  8.800000e-03
      vertex  -8.980257e-03 -8.980257e-03  8.800000e-03
      vertex  -6.350000e-03 -1.099852e-02  8.800000e-03
    endloop
  endfacet
  facet normal -0.000000e+00  0.000000e+00  1.000000e+00
    outer loop
      vertex  -8.980257e-03  8.980257e-03  8.800000e-03
      vertex  -6.350000e-03 -1.099852e-02  8.800000e-03
      vertex  -6.350000e-03  1.099852e-02  8.800000e-03
    endloop
  endfacet
  facet normal  0.000000e+00  0.000000e+00  1.000000e+00
    outer loop
      vertex  -6.350000e-03  1.099852e-02  8.800000e-03
      vertex  -6.350000e-03 -1.099852e-02  8.800000e-03
      vertex  -5.530711e-03  5.710378e-06  8.800000e-03
    endloop
  endfacet
  facet normal  0.000000e+00  0.000000e+00  1.000000e+00
    outer loop
      vertex  -5.530711e-03  5.710378e-06  8.800000e-03
      vertex  -6.350000e-03 -1.099852e-02  8.800000e-03
      vertex  -5.326266e-03 -1.547204e-03  8.800000e-03
    endloop
  endfacet
  facet normal  0.000000e+00  0.000000e+00  1.000000e+00
    outer loop
      vertex  -5.326266e-03 -1.547204e-03  8.800000e-03
      vertex  -6.350000e-03 -1.099852e-02  8.800000e-03
      vertex  -3.287002e-03 -1.226726e-02  8.800000e-03
    endloop
  endfacet
  facet normal  0.000000e+00  0.000000e+00  1.000000e+00
    outer loop
      vertex  -5.326266e-03 -1.547204e-03  8.800000e-03
      vertex  -3.287002e-03 -1.226726e-02  8.800000e-03
      vertex  -4.726863e-03 -2.994290e-03  8.800000e-03
    endloop
  endfacet
  facet normal  0.000000e+00  0.000000e+00  1.000000e+00
    outer loop
      vertex  -4.726863e-03 -2.994290e-03  8.800000e-03
      vertex  -3.287002e-03 -1.226726e-02  8.800000e-03
      vertex  -3.773352e-03 -4.236931e-03  8.800000e-03
    endloop
  endfacet
  facet normal  0.000000e+00  0.000000e+00  1.000000e+00
    outer loop
      vertex  -3.773352e-03 -4.236931e-03  8.800000e-03
      vertex  -3.287002e-03 -1.226726e-02  8.800000e-03
      vertex  -2.530711e-03 -5.190442e-03  8.800000e-03
    endloop
  endfacet
  facet normal  0.000000e+00  0.000000e+00  1.000000e+00
    outer loop
      vertex  -2.530711e-03 -5.190442e-03  8.800000e-03
      vertex  -3.287002e-03 -1.226726e-02  8.800000e-03
      vertex  -2.332952e-18 -1.270000e-02  8.800000e-03
    endloop
  endfacet
  facet normal  0.000000e+00  0.000000e+00  1.000000e+00
    outer loop
      vertex  -2.530711e-03 -5.190442e-03  8.800000e-03
      vertex  -2.332952e-18 -1.270000e-02  8.800000e-03
      vertex  -1.083625e-03 -5.789845e-03  8.800000e-03
    endloop
  endfacet
  facet normal  0.000000e+00  0.000000e+00  1.000000e+00
    outer loop
      vertex  -1.083625e-03 -5.789845e-03  8.800000e-03
      vertex  -2.332952e-18 -1.270000e-02  8.800000e-03
      vertex   4.692890e-04 -5.994290e-03  8.800000e-03
    endloop
  endfacet
  facet normal  0.000000e+00  0.000000e+00  1.000000e+00
    outer loop
      vertex   4.692890e-04 -5.994290e-03  8.800000e-03
      vertex  -2.332952e-18 -1.270000e-02  8.800000e-03
      vertex   3.287002e-03 -1.226726e-02  8.800000e-03
    endloop
  endfacet
  facet normal -0.000000e+00  0.000000e+00  1.000000e+00
    outer loop
      vertex   4.692890e-04 -5.994290e-03  8.800000e-03
      vertex   3.287002e-03 -1.226726e-02  8.800000e-03
      vertex   2.022203e-03 -5.789845e-03  8.800000e-03
    endloop
  endfacet
  facet normal -0.000000e+00  0.000000e+00  1.000000e+00
    outer loop
      vertex   2.022203e-03 -5.789845e-03  8.800000e-03
      vertex   3.287002e-03 -1.226726e-02  8.800000e-03
      vertex   3.469289e-03 -5.190442e-03  8.800000e-03
    endloop
  endfacet
  facet normal  0.000000e+00  0.000000e+00  1.000000e+00
    outer loop
      vertex   3.469289e-03 -5.190442e-03  8.800000e-03
      vertex   3.287002e-03 -1.226726e-02  8.800000e-03
      vertex   6.350000e-03 -1.099852e-02  8.800000e-03
    endloop
  endfacet
  facet normal -0.000000e+00  0.000000e+00  1.000000e+00
    outer loop
      vertex   3.469289e-03 -5.190442e-03  8.800000e-03
      vertex   6.350000e-03 -1.099852e-02  8.800000e-03
      vertex   4.711930e-03 -4.236931e-03  8.800000e-03
    endloop
  endfacet
  facet normal -0.000000e+00  0.000000e+00  1.000000e+00
    outer loop
      vertex   4.711930e-03 -4.236931e-03  8.800000e-03
      vertex   6.350000e-03 -1.099852e-02  8.800000e-03
      vertex   5.665442e-03 -2.994290e-03  8.800000e-03
    endloop
  endfacet
  facet normal -0.000000e+00  0.000000e+00  1.000000e+00
    outer loop
      vertex   5.665442e-03 -2.994290e-03  8.800000e-03
      vertex   6.350000e-03 -1.099852e-02  8.800000e-03
      vertex   6.264844e-03 -1.547204e-03  8.800000e-03
    endloop
  endfacet
  facet normal -0.000000e+00  0.000000e+00  1.000000e+00
    outer loop
      vertex   6.264844e-03 -1.547204e-03  8.800000e-03
      vertex   6.350000e-03 -1.099852e-02  8.800000e-03
      vertex   6.469289e-03  5.710378e-06  8.800000e-03
    endloop
  endfacet
  facet normal  0.000000e+00  0.000000e+00  1.000000e+00
    outer loop
      vertex   6.469289e-03  5.710378e-06  8.800000e-03
      vertex   6.350000e-03 -1.099852e-02  8.800000e-03
      vertex   8.980257e-03 -8.980257e-03  8.800000e-03
    endloop
  endfacet
  facet normal -0.000000e+00  0.000000e+00  1.000000e+00
    outer loop
      vertex  -6.350000e-03  1.099852e-02  8.800000e-03
      vertex  -5.326266e-03  1.558625e-03  8.800000e-03
      vertex  -3.287002e-03  1.226726e-02  8.800000e-03
    endloop
  endfacet
  facet normal  0.000000e+00  0.000000e+00  1.000000e+00
    outer loop
      vertex  -5.326266e-03  1.558625e-03  8.800000e-03
      vertex  -6.350000e-03  1.099852e-02  8.800000e-03
      vertex  -5.530711e-03  5.710378e-06  8.800000e-03
    endloop
  endfacet
  facet normal  0.000000e+00  0.000000e+00  1.000000e+00
    outer loop
      vertex  -3.287002e-03  1.226726e-02  8.800000e-03
      vertex  -5.326266e-03  1.558625e-03  8.800000e-03
      vertex  -4.726863e-03  3.005710e-03  8.800000e-03
    endloop
  endfacet
  facet normal  0.000000e+00  0.000000e+00  1.000000e+00
    outer loop
      vertex  -3.287002e-03  1.226726e-02  8.800000e-03
      vertex  -4.726863e-03  3.005710e-03  8.800000e-03
      vertex  -3.773352e-03  4.248351e-03  8.800000e-03
    endloop
  endfacet
  facet normal  0.000000e+00  0.000000e+00  1.000000e+00
    outer loop
      vertex  -3.287002e-03  1.226726e-02  8.800000e-03
      vertex  -3.773352e-03  4.248351e-03  8.800000e-03
      vertex  -2.530711e-03  5.201863e-03  8.800000e-03
    endloop
  endfacet
  facet normal -0.000000e+00  0.000000e+00  1.000000e+00
    outer loop
      vertex  -3.287002e-03  1.226726e-02  8.800000e-03
      vertex  -2.530711e-03  5.201863e-03  8.800000e-03
      vertex   7.776507e-19  1.270000e-02  8.800000e-03
    endloop
  endfacet
  facet normal  0.000000e+00  0.000000e+00  1.000000e+00
    outer loop
      vertex   7.776507e-19  1.270000e-02  8.800000e-03
      vertex  -2.530711e-03  5.201863e-03  8.800000e-03
      vertex  -1.083625e-03  5.801265e-03  8.800000e-03
    endloop
  endfacet
  facet normal  0.000000e+00  0.000000e+00  1.000000e+00
    outer loop
      vertex   7.776507e-19  1.270000e-02  8.800000e-03
      vertex  -1.083625e-03  5.801265e-03  8.800000e-03
      vertex   4.692890e-04  6.005710e-03  8.800000e-03
    endloop
  endfacet
  facet normal  0.000000e+00  0.000000e+00  1.000000e+00
    outer loop
      vertex   7.776507e-19  1.270000e-02  8.800000e-03
      vertex   4.692890e-04  6.005710e-03  8.800000e-03
      vertex   3.287002e-03  1.226726e-02  8.800000e-03
    endloop
  endfacet
  facet normal  0.000000e+00  0.000000e+00  1.000000e+00
    outer loop
      vertex   3.287002e-03  1.226726e-02  8.800000e-03
      vertex   4.692890e-04  6.005710e-03  8.800000e-03
      vertex   2.022203e-03  5.801265e-03  8.800000e-03
    endloop
  endfacet
  facet normal  0.000000e+00  0.000000e+00  1.000000e+00
    outer loop
      vertex   3.287002e-03  1.226726e-02  8.800000e-03
      vertex   2.022203e-03  5.801265e-03  8.800000e-03
      vertex   3.469289e-03  5.201863e-03  8.800000e-03
    endloop
  endfacet
  facet normal  0.000000e+00  0.000000e+00  1.000000e+00
    outer loop
      vertex   3.287002e-03  1.226726e-02  8.800000e-03
      vertex   3.469289e-03  5.201863e-03  8.800000e-03
      vertex   6.350000e-03  1.099852e-02  8.800000e-03
    endloop
  endfacet
  facet normal  0.000000e+00  0.000000e+00  1.000000e+00
    outer loop
      vertex   6.350000e-03  1.099852e-02  8.800000e-03
      vertex   3.469289e-03  5.201863e-03  8.800000e-03
      vertex   4.711930e-03  4.248351e-03  8.800000e-03
    endloop
  endfacet
  facet normal  0.000000e+00  0.000000e+00  1.000000e+00
    outer loop
      vertex   6.350000e-03  1.099852e-02  8.800000e-03
      vertex   4.711930e-03  4.248351e-03  8.800000e-03
      vertex   5.665442e-03  3.005710e-03  8.800000e-03
    endloop
  endfacet
  facet normal  0.000000e+00  0.000000e+00  1.000000e+00
    outer loop
      vertex   6.350000e-03  1.099852e-02  8.800000e-03
      vertex   5.665442e-03  3.005710e-03  8.800000e-03
      vertex   6.264844e-03  1.558625e-03  8.800000e-03
    endloop
  endfacet
  facet normal  0.000000e+00  0.000000e+00  1.000000e+00
    outer loop
      vertex   6.350000e-03  1.099852e-02  8.800000e-03
      vertex   6.264844e-03  1.558625e-03  8.800000e-03
      vertex   6.469289e-03  5.710378e-06  8.800000e-03
    endloop
  endfacet
  facet normal  0.000000e+00  0.000000e+00  1.000000e+00
    outer loop
      vertex   6.350000e-03  1.099852e-02  8.800000e-03
      vertex   6.469289e-03  5.710378e-06  8.800000e-03
      vertex   8.980257e-03  8.980257e-03  8.800000e-03
    endloop
  endfacet
  facet normal  0.000000e+00  0.000000e+00  1.000000e+00
    outer loop
      vertex   8.980257e-03  8.980257e-03  8.800000e-03
      vertex   6.469289e-03  5.710378e-06  8.800000e-03
      vertex   8.980257e-03 -8.980257e-03  8.800000e-03
    endloop
  endfacet
  facet normal  0.000000e+00  0.000000e+00  1.000000e+00
    outer loop
      vertex   8.980257e-03  8.980257e-03  8.800000e-03
      vertex   8.980257e-03 -8.980257e-03  8.800000e-03
      vertex   1.099852e-02 -6.350000e-03  8.800000e-03
    endloop
  endfacet
  facet normal  0.000000e+00  0.000000e+00  1.000000e+00
    outer loop
      vertex   8.980257e-03  8.980257e-03  8.800000e-03
      vertex   1.099852e-02 -6.350000e-03  8.800000e-03
      vertex   1.099852e-02  6.350000e-03  8.800000e-03
    endloop
  endfacet
  facet normal  0.000000e+00  0.000000e+00  1.000000e+00
    outer loop
      vertex   1.099852e-02  6.350000e-03  8.800000e-03
      vertex   1.099852e-02 -6.350000e-03  8.800000e-03
      vertex   1.226726e-02 -3.287002e-03  8.800000e-03
    endloop
  endfacet
  facet normal  0.000000e+00  0.000000e+00  1.000000e+00
    outer loop
      vertex   1.099852e-02  6.350000e-03  8.800000e-03
      vertex   1.226726e-02 -3.287002e-03  8.800000e-03
      vertex   1.226726e-02  3.287002e-03  8.800000e-03
    endloop
  endfacet
  facet normal  0.000000e+00  0.000000e+00  1.000000e+00
    outer loop
      vertex   1.226726e-02  3.287002e-03  8.800000e-03
      vertex   1.226726e-02 -3.287002e-03  8.800000e-03
      vertex   1.270000e-02  0.000000e+00  8.800000e-03
    endloop
  endfacet
  facet normal  3.826834e-01 -9.238795e-01  0.000000e+00
    outer loop
      vertex   6.350000e-03 -1.099852e-02  8.800000e-03
      vertex   3.287002e-03 -1.226726e-02  0.000000e+00
      vertex   6.350000e-03 -1.099852e-02  0.000000e+00
    endloop
  endfacet
  facet normal  3.826834e-01 -9.238795e-01  0.000000e+00
    outer loop
      vertex   3.287002e-03 -1.226726e-02  0.000000e+00
      vertex   6.350000e-03 -1.099852e-02  8.800000e-03
      vertex   3.287002e-03 -1.226726e-02  8.800000e-03
    endloop
  endfacet
  facet normal  9.238796e-01 -3.826834e-01  0.000000e+00
    outer loop
      vertex   6.264844e-03 -1.547204e-03  8.800000e-03
      vertex   5.665442e-03 -2.994290e-03  3.980000e-02
      vertex   5.665442e-03 -2.994290e-03  8.800000e-03
    endloop
  endfacet
  facet normal  9.238796e-01 -3.826834e-01  0.000000e+00
    outer loop
      vertex   5.665442e-03 -2.994290e-03  3.980000e-02
      vertex   6.264844e-03 -1.547204e-03  8.800000e-03
      vertex   6.264844e-03 -1.547204e-03  3.980000e-02
    endloop
  endfacet
  facet normal  7.933533e-01 -6.087614e-01  0.000000e+00
    outer loop
      vertex   5.665442e-03 -2.994290e-03  8.800000e-03
      vertex   4.711930e-03 -4.236931e-03  3.980000e-02
      vertex   4.711930e-03 -4.236931e-03  8.800000e-03
    endloop
  endfacet
  facet normal  7.933533e-01 -6.087614e-01  0.000000e+00
    outer loop
      vertex   4.711930e-03 -4.236931e-03  3.980000e-02
      vertex   5.665442e-03 -2.994290e-03  8.800000e-03
      vertex   5.665442e-03 -2.994290e-03  3.980000e-02
    endloop
  endfacet
  facet normal  6.087613e-01 -7.933534e-01  0.000000e+00
    outer loop
      vertex   4.711930e-03 -4.236931e-03  3.980000e-02
      vertex   3.469289e-03 -5.190442e-03  8.800000e-03
      vertex   4.711930e-03 -4.236931e-03  8.800000e-03
    endloop
  endfacet
  facet normal  6.087613e-01 -7.933534e-01  0.000000e+00
    outer loop
      vertex   3.469289e-03 -5.190442e-03  8.800000e-03
      vertex   4.711930e-03 -4.236931e-03  3.980000e-02
      vertex   3.469289e-03 -5.190442e-03  3.980000e-02
    endloop
  endfacet
endsolid vcg
