solid Hello World 1
facet normal -0.923879532511287 -0.38268343236509 -0.0
   outer loop
      vertex -0.00532626598107679 -0.00154720389229117 0.0398
      vertex -0.00472686344604901 -0.00299428962167605 0.00879999999999998
      vertex -0.00472686344604901 -0.00299428962167605 0.0398
   endloop
endfacet
facet normal -0.923879532511287 -0.38268343236509 -0.0
   outer loop
      vertex -0.00472686344604901 -0.00299428962167605 0.00879999999999998
      vertex -0.00532626598107679 -0.00154720389229117 0.0398
      vertex -0.00532626598107679 -0.00154720389229117 0.00879999999999998
   endloop
endfacet
facet normal -0.38268343236509 0.923879532511287 0.0
   outer loop
      vertex -0.00253071102334238 0.00520186280103059 0.0398
      vertex -0.00108362529395751 0.00580126533605837 0.00879999999999998
      vertex -0.00253071102334238 0.00520186280103059 0.00879999999999998
   endloop
endfacet
facet normal -0.38268343236509 0.923879532511287 0.0
   outer loop
      vertex -0.00108362529395751 0.00580126533605837 0.00879999999999998
      vertex -0.00253071102334238 0.00520186280103059 0.0398
      vertex -0.00108362529395751 0.00580126533605837 0.0398
   endloop
endfacet
facet normal 0.0 0.0 -1.0
   outer loop
      vertex -0.0122672579938712 0.00328700187280202 0.0
      vertex -0.0122672579938712 -0.00328700187280201 0.0
      vertex -0.0127 1.55530143491714e-18 0.0
   endloop
endfacet
facet normal 0.0 0.0 -1.0
   outer loop
      vertex -0.0122672579938712 -0.00328700187280201 0.0
      vertex -0.0122672579938712 0.00328700187280202 0.0
      vertex -0.0109985226280624 -0.00635 0.0
   endloop
endfacet
facet normal 0.0 0.0 -1.0
   outer loop
      vertex -0.0109985226280624 -0.00635 0.0
      vertex -0.0122672579938712 0.00328700187280202 0.0
      vertex -0.0109985226280624 0.00635 0.0
   endloop
endfacet
facet normal 0.0 0.0 -1.0
   outer loop
      vertex -0.0109985226280624 -0.00635 0.0
      vertex -0.0109985226280624 0.00635 0.0
      vertex -0.00898025612106916 -0.00898025612106915 0.0
   endloop
endfacet
facet normal 0.0 0.0 -1.0
   outer loop
      vertex -0.00898025612106916 -0.00898025612106915 0.0
      vertex -0.0109985226280624 0.00635 0.0
      vertex -0.00898025612106915 0.00898025612106915 0.0
   endloop
endfacet
facet normal 0.0 0.0 -1.0
   outer loop
      vertex -0.00898025612106916 -0.00898025612106915 0.0
      vertex -0.00898025612106915 0.00898025612106915 0.0
      vertex -0.00635000000000001 -0.0109985226280624 0.0
   endloop
endfacet
facet normal 0.0 0.0 -1.0
   outer loop
      vertex -0.00635000000000001 -0.0109985226280624 0.0
      vertex -0.00898025612106915 0.00898025612106915 0.0
      vertex -0.00635 0.0109985226280624 0.0
   endloop
endfacet
facet normal 0.0 0.0 -1.0
   outer loop
      vertex -0.00635000000000001 -0.0109985226280624 0.0
      vertex -0.00635 0.0109985226280624 0.0
      vertex -0.00328700187280202 -0.0122672579938712 0.0
   endloop
endfacet
facet normal 0.0 0.0 -1.0
   outer loop
      vertex -0.00328700187280202 -0.0122672579938712 0.0
      vertex -0.00635 0.0109985226280624 0.0
      vertex -0.00328700187280201 0.0122672579938712 0.0
   endloop
endfacet
facet normal 0.0 0.0 -1.0
   outer loop
      vertex -0.00328700187280202 -0.0122672579938712 0.0
      vertex -0.00328700187280201 0.0122672579938712 0.0
      vertex -2.33295215237571e-18 -0.0127 0.0
   endloop
endfacet
facet normal 0.0 0.0 -1.0
   outer loop
      vertex -2.33295215237571e-18 -0.0127 0.0
      vertex -0.00328700187280201 0.0122672579938712 0.0
      vertex 7.77650717458569e-19 0.0127 0.0
   endloop
endfacet
facet normal 0.0 0.0 -1.0
   outer loop
      vertex -2.33295215237571e-18 -0.0127 0.0
      vertex 7.77650717458569e-19 0.0127 0.0
      vertex 0.00328700187280201 -0.0122672579938712 0.0
   endloop
endfacet
facet normal 0.0 0.0 -1.0
   outer loop
      vertex 0.00328700187280201 -0.0122672579938712 0.0
      vertex 7.77650717458569e-19 0.0127 0.0
      vertex 0.00328700187280202 0.0122672579938712 0.0
   endloop
endfacet
facet normal 0.0 0.0 -1.0
   outer loop
      vertex 0.00328700187280201 -0.0122672579938712 0.0
      vertex 0.00328700187280202 0.0122672579938712 0.0
      vertex 0.00634999999999999 -0.0109985226280624 0.0
   endloop
endfacet
facet normal 0.0 0.0 -1.0
   outer loop
      vertex 0.00634999999999999 -0.0109985226280624 0.0
      vertex 0.00328700187280202 0.0122672579938712 0.0
      vertex 0.00635 0.0109985226280624 0.0
   endloop
endfacet
facet normal 0.0 0.0 -1.0
   outer loop
      vertex 0.00634999999999999 -0.0109985226280624 0.0
      vertex 0.00635 0.0109985226280624 0.0
      vertex 0.00898025612106915 -0.00898025612106916 0.0
   endloop
endfacet
facet normal 0.0 0.0 -1.0
   outer loop
      vertex 0.00898025612106915 -0.00898025612106916 0.0
      vertex 0.00635 0.0109985226280624 0.0
      vertex 0.00898025612106915 0.00898025612106915 0.0
   endloop
endfacet
facet normal 0.0 0.0 -1.0
   outer loop
      vertex 0.00898025612106915 -0.00898025612106916 0.0
      vertex 0.00898025612106915 0.00898025612106915 0.0
      vertex 0.0109985226280624 -0.00635000000000001 0.0
   endloop
endfacet
facet normal 0.0 0.0 -1.0
   outer loop
      vertex 0.0109985226280624 -0.00635000000000001 0.0
      vertex 0.00898025612106915 0.00898025612106915 0.0
      vertex 0.0109985226280624 0.00635 0.0
   endloop
endfacet
facet normal 0.0 0.0 -1.0
   outer loop
      vertex 0.0109985226280624 -0.00635000000000001 0.0
      vertex 0.0109985226280624 0.00635 0.0
      vertex 0.0122672579938712 -0.00328700187280202 0.0
   endloop
endfacet
facet normal 0.0 0.0 -1.0
   outer loop
      vertex 0.0122672579938712 -0.00328700187280202 0.0
      vertex 0.0109985226280624 0.00635 0.0
      vertex 0.0122672579938712 0.00328700187280201 0.0
   endloop
endfacet
facet normal 0.0 0.0 -1.0
   outer loop
      vertex 0.0122672579938712 -0.00328700187280202 0.0
      vertex 0.0122672579938712 0.00328700187280201 0.0
      vertex 0.0127 0.0 0.0
   endloop
endfacet
facet normal 0.608761429008721 0.793353340291235 0.0
   outer loop
      vertex 0.00346928897665762 0.00520186280103059 0.0398
      vertex 0.00471192966377691 0.00424835106544324 0.00879999999999998
      vertex 0.00346928897665762 0.00520186280103059 0.00879999999999998
   endloop
endfacet
facet normal 0.608761429008721 0.793353340291235 0.0
   outer loop
      vertex 0.00471192966377691 0.00424835106544324 0.00879999999999998
      vertex 0.00346928897665762 0.00520186280103059 0.0398
      vertex 0.00471192966377691 0.00424835106544324 0.0398
   endloop
endfacet
facet normal 0.38268343236509 -0.923879532511287 0.0
   outer loop
      vertex 0.00346928897665763 -0.00519044204438267 0.0398
      vertex 0.00202220324727275 -0.00578984457941045 0.00879999999999998
      vertex 0.00346928897665763 -0.00519044204438267 0.00879999999999998
   endloop
endfacet
facet normal 0.38268343236509 -0.923879532511287 0.0
   outer loop
      vertex 0.00202220324727275 -0.00578984457941045 0.00879999999999998
      vertex 0.00346928897665763 -0.00519044204438267 0.0398
      vertex 0.00202220324727275 -0.00578984457941045 0.0398
   endloop
endfacet
facet normal 0.60876142900872 -0.793353340291236 0.0
   outer loop
      vertex 0.00898025612106915 -0.00898025612106916 0.0088
      vertex 0.00634999999999999 -0.0109985226280624 0.0
      vertex 0.00898025612106915 -0.00898025612106916 0.0
   endloop
endfacet
facet normal 0.60876142900872 -0.793353340291236 0.0
   outer loop
      vertex 0.00634999999999999 -0.0109985226280624 0.0
      vertex 0.00898025612106915 -0.00898025612106916 0.0088
      vertex 0.00634999999999999 -0.0109985226280624 0.0088
   endloop
endfacet
facet normal 0.793353340291235 -0.608761429008721 0.0
   outer loop
      vertex 0.0109985226280624 -0.00635000000000001 0.0
      vertex 0.00898025612106915 -0.00898025612106916 0.0088
      vertex 0.00898025612106915 -0.00898025612106916 0.0
   endloop
endfacet
facet normal 0.793353340291235 -0.608761429008721 0.0
   outer loop
      vertex 0.00898025612106915 -0.00898025612106916 0.0088
      vertex 0.0109985226280624 -0.00635000000000001 0.0
      vertex 0.0109985226280624 -0.00635000000000001 0.0088
   endloop
endfacet
facet normal 0.923879532511287 -0.382683432365091 0.0
   outer loop
      vertex 0.0122672579938712 -0.00328700187280202 0.0
      vertex 0.0109985226280624 -0.00635000000000001 0.0088
      vertex 0.0109985226280624 -0.00635000000000001 0.0
   endloop
endfacet
facet normal 0.923879532511287 -0.382683432365091 0.0
   outer loop
      vertex 0.0109985226280624 -0.00635000000000001 0.0088
      vertex 0.0122672579938712 -0.00328700187280202 0.0
      vertex 0.0122672579938712 -0.00328700187280202 0.0088
   endloop
endfacet
facet normal 0.793353340291235 0.608761429008721 0.0
   outer loop
      vertex 0.00471192966377691 0.00424835106544324 0.00879999999999998
      vertex 0.00566544139936425 0.00300571037832396 0.0398
      vertex 0.00566544139936425 0.00300571037832396 0.00879999999999998
   endloop
endfacet
facet normal 0.793353340291235 0.608761429008721 0.0
   outer loop
      vertex 0.00566544139936425 0.00300571037832396 0.0398
      vertex 0.00471192966377691 0.00424835106544324 0.00879999999999998
      vertex 0.00471192966377691 0.00424835106544324 0.0398
   endloop
endfacet
facet normal 0.0 0.0 1.0
   outer loop
      vertex -0.00532626598107679 -0.00154720389229117 0.0398
      vertex -0.00532626598107679 0.00155862464893908 0.0398
      vertex -0.00553071102334238 5.71037832395545e-06 0.0398
   endloop
endfacet
facet normal 0.0 0.0 1.0
   outer loop
      vertex -0.00532626598107679 0.00155862464893908 0.0398
      vertex -0.00532626598107679 -0.00154720389229117 0.0398
      vertex -0.00472686344604901 0.00300571037832395 0.0398
   endloop
endfacet
facet normal 0.0 0.0 1.0
   outer loop
      vertex -0.00472686344604901 0.00300571037832395 0.0398
      vertex -0.00532626598107679 -0.00154720389229117 0.0398
      vertex -0.00472686344604901 -0.00299428962167605 0.0398
   endloop
endfacet
facet normal 0.0 0.0 1.0
   outer loop
      vertex -0.00472686344604901 0.00300571037832395 0.0398
      vertex -0.00472686344604901 -0.00299428962167605 0.0398
      vertex -0.00377335171046166 0.00424835106544324 0.0398
   endloop
endfacet
facet normal 0.0 0.0 1.0
   outer loop
      vertex -0.00377335171046166 0.00424835106544324 0.0398
      vertex -0.00472686344604901 -0.00299428962167605 0.0398
      vertex -0.00377335171046166 -0.00423693030879533 0.0398
   endloop
endfacet
facet normal 0.0 0.0 1.0
   outer loop
      vertex -0.00377335171046166 0.00424835106544324 0.0398
      vertex -0.00377335171046166 -0.00423693030879533 0.0398
      vertex -0.00253071102334238 0.00520186280103059 0.0398
   endloop
endfacet
facet normal 0.0 0.0 1.0
   outer loop
      vertex -0.00253071102334238 0.00520186280103059 0.0398
      vertex -0.00377335171046166 -0.00423693030879533 0.0398
      vertex -0.00253071102334238 -0.00519044204438268 0.0398
   endloop
endfacet
facet normal 0.0 0.0 1.0
   outer loop
      vertex -0.00253071102334238 0.00520186280103059 0.0398
      vertex -0.00253071102334238 -0.00519044204438268 0.0398
      vertex -0.00108362529395751 0.00580126533605837 0.0398
   endloop
endfacet
facet normal 0.0 0.0 1.0
   outer loop
      vertex -0.00108362529395751 0.00580126533605837 0.0398
      vertex -0.00253071102334238 -0.00519044204438268 0.0398
      vertex -0.0010836252939575 -0.00578984457941045 0.0398
   endloop
endfacet
facet normal 0.0 0.0 1.0
   outer loop
      vertex -0.00108362529395751 0.00580126533605837 0.0398
      vertex -0.0010836252939575 -0.00578984457941045 0.0398
      vertex 0.000469288976657623 0.00600571037832396 0.0398
   endloop
endfacet
facet normal 0.0 0.0 1.0
   outer loop
      vertex 0.000469288976657623 0.00600571037832396 0.0398
      vertex -0.0010836252939575 -0.00578984457941045 0.0398
      vertex 0.000469288976657623 -0.00599428962167604 0.0398
   endloop
endfacet
facet normal 0.0 0.0 1.0
   outer loop
      vertex 0.000469288976657623 0.00600571037832396 0.0398
      vertex 0.000469288976657623 -0.00599428962167604 0.0398
      vertex 0.00202220324727275 0.00580126533605837 0.0398
   endloop
endfacet
facet normal 0.0 0.0 1.0
   outer loop
      vertex 0.00202220324727275 0.00580126533605837 0.0398
      vertex 0.000469288976657623 -0.00599428962167604 0.0398
      vertex 0.00202220324727275 -0.00578984457941045 0.0398
   endloop
endfacet
facet normal 0.0 0.0 1.0
   outer loop
      vertex 0.00202220324727275 0.00580126533605837 0.0398
      vertex 0.00202220324727275 -0.00578984457941045 0.0398
      vertex 0.00346928897665762 0.00520186280103059 0.0398
   endloop
endfacet
facet normal 0.0 0.0 1.0
   outer loop
      vertex 0.00346928897665762 0.00520186280103059 0.0398
      vertex 0.00202220324727275 -0.00578984457941045 0.0398
      vertex 0.00346928897665763 -0.00519044204438267 0.0398
   endloop
endfacet
facet normal 0.0 0.0 1.0
   outer loop
      vertex 0.00346928897665762 0.00520186280103059 0.0398
      vertex 0.00346928897665763 -0.00519044204438267 0.0398
      vertex 0.00471192966377691 0.00424835106544324 0.0398
   endloop
endfacet
facet normal 0.0 0.0 1.0
   outer loop
      vertex 0.00471192966377691 0.00424835106544324 0.0398
      vertex 0.00346928897665763 -0.00519044204438267 0.0398
      vertex 0.00471192966377691 -0.00423693030879533 0.0398
   endloop
endfacet
facet normal 0.0 0.0 1.0
   outer loop
      vertex 0.00471192966377691 0.00424835106544324 0.0398
      vertex 0.00471192966377691 -0.00423693030879533 0.0398
      vertex 0.00566544139936425 0.00300571037832396 0.0398
   endloop
endfacet
facet normal 0.0 0.0 1.0
   outer loop
      vertex 0.00566544139936425 0.00300571037832396 0.0398
      vertex 0.00471192966377691 -0.00423693030879533 0.0398
      vertex 0.00566544139936426 -0.00299428962167604 0.0398
   endloop
endfacet
facet normal 0.0 0.0 1.0
   outer loop
      vertex 0.00566544139936425 0.00300571037832396 0.0398
      vertex 0.00566544139936426 -0.00299428962167604 0.0398
      vertex 0.00626484393439203 0.00155862464893908 0.0398
   endloop
endfacet
facet normal 0.0 0.0 1.0
   outer loop
      vertex 0.00626484393439203 0.00155862464893908 0.0398
      vertex 0.00566544139936426 -0.00299428962167604 0.0398
      vertex 0.00626484393439203 -0.00154720389229117 0.0398
   endloop
endfacet
facet normal 0.0 0.0 1.0
   outer loop
      vertex 0.00626484393439203 0.00155862464893908 0.0398
      vertex 0.00626484393439203 -0.00154720389229117 0.0398
      vertex 0.00646928897665762 5.71037832395692e-06 0.0398
   endloop
endfacet
facet normal 0.99144486137381 -0.130526192220052 0.0
   outer loop
      vertex 0.0127 0.0 0.0
      vertex 0.0122672579938712 -0.00328700187280202 0.0088
      vertex 0.0122672579938712 -0.00328700187280202 0.0
   endloop
endfacet
facet normal 0.99144486137381 -0.130526192220052 0.0
   outer loop
      vertex 0.0122672579938712 -0.00328700187280202 0.0088
      vertex 0.0127 0.0 0.0
      vertex 0.0127 0.0 0.0088
   endloop
endfacet
facet normal -0.793353340291235 0.608761429008721 0.0
   outer loop
      vertex -0.00898025612106915 0.00898025612106915 0.0088
      vertex -0.0109985226280624 0.00635 0.0
      vertex -0.0109985226280624 0.00635 0.0088
   endloop
endfacet
facet normal -0.793353340291235 0.608761429008721 0.0
   outer loop
      vertex -0.0109985226280624 0.00635 0.0
      vertex -0.00898025612106915 0.00898025612106915 0.0088
      vertex -0.00898025612106915 0.00898025612106915 0.0
   endloop
endfacet
facet normal -0.923879532511287 0.38268343236509 0.0
   outer loop
      vertex -0.0109985226280624 0.00635 0.0088
      vertex -0.0122672579938712 0.00328700187280202 0.0
      vertex -0.0122672579938712 0.00328700187280202 0.0088
   endloop
endfacet
facet normal -0.923879532511287 0.38268343236509 0.0
   outer loop
      vertex -0.0122672579938712 0.00328700187280202 0.0
      vertex -0.0109985226280624 0.00635 0.0088
      vertex -0.0109985226280624 0.00635 0.0
   endloop
endfacet
facet normal 0.99144486137381 0.130526192220052 0.0
   outer loop
      vertex 0.0122672579938712 0.00328700187280201 0.0
      vertex 0.0127 0.0 0.0088
      vertex 0.0127 0.0 0.0
   endloop
endfacet
facet normal 0.99144486137381 0.130526192220052 0.0
   outer loop
      vertex 0.0127 0.0 0.0088
      vertex 0.0122672579938712 0.00328700187280201 0.0
      vertex 0.0122672579938712 0.00328700187280201 0.0088
   endloop
endfacet
facet normal 0.923879532511287 0.38268343236509 0.0
   outer loop
      vertex 0.0109985226280624 0.00635 0.0
      vertex 0.0122672579938712 0.00328700187280201 0.0088
      vertex 0.0122672579938712 0.00328700187280201 0.0
   endloop
endfacet
facet normal 0.923879532511287 0.38268343236509 0.0
   outer loop
      vertex 0.0122672579938712 0.00328700187280201 0.0088
      vertex 0.0109985226280624 0.00635 0.0
      vertex 0.0109985226280624 0.00635 0.0088
   endloop
endfacet
facet normal 0.793353340291235 0.608761429008721 0.0
   outer loop
      vertex 0.00898025612106915 0.00898025612106915 0.0
      vertex 0.0109985226280624 0.00635 0.0088
      vertex 0.0109985226280624 0.00635 0.0
   endloop
endfacet
facet normal 0.793353340291235 0.608761429008721 0.0
   outer loop
      vertex 0.0109985226280624 0.00635 0.0088
      vertex 0.00898025612106915 0.00898025612106915 0.0
      vertex 0.00898025612106915 0.00898025612106915 0.0088
   endloop
endfacet
facet normal -0.99144486137381 0.130526192220052 0.0
   outer loop
      vertex -0.0122672579938712 0.00328700187280202 0.0088
      vertex -0.0127 1.55530143491714e-18 0.0
      vertex -0.0127 1.55530143491714e-18 0.0088
   endloop
endfacet
facet normal -0.99144486137381 0.130526192220052 0.0
   outer loop
      vertex -0.0127 1.55530143491714e-18 0.0
      vertex -0.0122672579938712 0.00328700187280202 0.0088
      vertex -0.0122672579938712 0.00328700187280202 0.0
   endloop
endfacet
facet normal -0.99144486137381 -0.130526192220051 -0.0
   outer loop
      vertex -0.0127 1.55530143491714e-18 0.0088
      vertex -0.0122672579938712 -0.00328700187280201 0.0
      vertex -0.0122672579938712 -0.00328700187280201 0.0088
   endloop
endfacet
facet normal -0.99144486137381 -0.130526192220051 -0.0
   outer loop
      vertex -0.0122672579938712 -0.00328700187280201 0.0
      vertex -0.0127 1.55530143491714e-18 0.0088
      vertex -0.0127 1.55530143491714e-18 0.0
   endloop
endfacet
facet normal 0.130526192220052 -0.99144486137381 0.0
   outer loop
      vertex 0.00202220324727275 -0.00578984457941045 0.0398
      vertex 0.000469288976657623 -0.00599428962167604 0.00879999999999998
      vertex 0.00202220324727275 -0.00578984457941045 0.00879999999999998
   endloop
endfacet
facet normal 0.130526192220052 -0.99144486137381 0.0
   outer loop
      vertex 0.000469288976657623 -0.00599428962167604 0.00879999999999998
      vertex 0.00202220324727275 -0.00578984457941045 0.0398
      vertex 0.000469288976657623 -0.00599428962167604 0.0398
   endloop
endfacet
facet normal -0.923879532511287 -0.38268343236509 -0.0
   outer loop
      vertex -0.0122672579938712 -0.00328700187280201 0.0088
      vertex -0.0109985226280624 -0.00635 0.0
      vertex -0.0109985226280624 -0.00635 0.0088
   endloop
endfacet
facet normal -0.923879532511287 -0.38268343236509 -0.0
   outer loop
      vertex -0.0109985226280624 -0.00635 0.0
      vertex -0.0122672579938712 -0.00328700187280201 0.0088
      vertex -0.0122672579938712 -0.00328700187280201 0.0
   endloop
endfacet
facet normal -0.793353340291235 -0.60876142900872 -0.0
   outer loop
      vertex -0.0109985226280624 -0.00635 0.0088
      vertex -0.00898025612106916 -0.00898025612106915 0.0
      vertex -0.00898025612106916 -0.00898025612106915 0.0088
   endloop
endfacet
facet normal -0.793353340291235 -0.60876142900872 -0.0
   outer loop
      vertex -0.00898025612106916 -0.00898025612106915 0.0
      vertex -0.0109985226280624 -0.00635 0.0088
      vertex -0.0109985226280624 -0.00635 0.0
   endloop
endfacet
facet normal 0.608761429008721 0.793353340291235 0.0
   outer loop
      vertex 0.00635 0.0109985226280624 0.0088
      vertex 0.00898025612106915 0.00898025612106915 0.0
      vertex 0.00635 0.0109985226280624 0.0
   endloop
endfacet
facet normal 0.608761429008721 0.793353340291235 0.0
   outer loop
      vertex 0.00898025612106915 0.00898025612106915 0.0
      vertex 0.00635 0.0109985226280624 0.0088
      vertex 0.00898025612106915 0.00898025612106915 0.0088
   endloop
endfacet
facet normal -0.130526192220051 -0.991444861373811 -0.0
   outer loop
      vertex 0.000469288976657623 -0.00599428962167604 0.0398
      vertex -0.0010836252939575 -0.00578984457941045 0.00879999999999998
      vertex 0.000469288976657623 -0.00599428962167604 0.00879999999999998
   endloop
endfacet
facet normal -0.130526192220051 -0.991444861373811 -0.0
   outer loop
      vertex -0.0010836252939575 -0.00578984457941045 0.00879999999999998
      vertex 0.000469288976657623 -0.00599428962167604 0.0398
      vertex -0.0010836252939575 -0.00578984457941045 0.0398
   endloop
endfacet
facet normal -0.608761429008721 -0.793353340291235 -0.0
   outer loop
      vertex -0.00635000000000001 -0.0109985226280624 0.0088
      vertex -0.00898025612106916 -0.00898025612106915 0.0
      vertex -0.00635000000000001 -0.0109985226280624 0.0
   endloop
endfacet
facet normal -0.608761429008721 -0.793353340291235 -0.0
   outer loop
      vertex -0.00898025612106916 -0.00898025612106915 0.0
      vertex -0.00635000000000001 -0.0109985226280624 0.0088
      vertex -0.00898025612106916 -0.00898025612106915 0.0088
   endloop
endfacet
facet normal 0.923879532511287 0.38268343236509 0.0
   outer loop
      vertex 0.00566544139936425 0.00300571037832396 0.00879999999999998
      vertex 0.00626484393439203 0.00155862464893908 0.0398
      vertex 0.00626484393439203 0.00155862464893908 0.00879999999999998
   endloop
endfacet
facet normal 0.923879532511287 0.38268343236509 0.0
   outer loop
      vertex 0.00626484393439203 0.00155862464893908 0.0398
      vertex 0.00566544139936425 0.00300571037832396 0.00879999999999998
      vertex 0.00566544139936425 0.00300571037832396 0.0398
   endloop
endfacet
facet normal -0.382683432365089 -0.923879532511287 -0.0
   outer loop
      vertex -0.0010836252939575 -0.00578984457941045 0.0398
      vertex -0.00253071102334238 -0.00519044204438268 0.00879999999999998
      vertex -0.0010836252939575 -0.00578984457941045 0.00879999999999998
   endloop
endfacet
facet normal -0.382683432365089 -0.923879532511287 -0.0
   outer loop
      vertex -0.00253071102334238 -0.00519044204438268 0.00879999999999998
      vertex -0.0010836252939575 -0.00578984457941045 0.0398
      vertex -0.00253071102334238 -0.00519044204438268 0.0398
   endloop
endfacet
facet normal -0.60876142900872 -0.793353340291235 -0.0
   outer loop
      vertex -0.00253071102334238 -0.00519044204438268 0.0398
      vertex -0.00377335171046166 -0.00423693030879533 0.00879999999999998
      vertex -0.00253071102334238 -0.00519044204438268 0.00879999999999998
   endloop
endfacet
facet normal -0.60876142900872 -0.793353340291235 -0.0
   outer loop
      vertex -0.00377335171046166 -0.00423693030879533 0.00879999999999998
      vertex -0.00253071102334238 -0.00519044204438268 0.0398
      vertex -0.00377335171046166 -0.00423693030879533 0.0398
   endloop
endfacet
facet normal -0.793353340291235 -0.608761429008721 -0.0
   outer loop
      vertex -0.00472686344604901 -0.00299428962167605 0.0398
      vertex -0.00377335171046166 -0.00423693030879533 0.00879999999999998
      vertex -0.00377335171046166 -0.00423693030879533 0.0398
   endloop
endfacet
facet normal -0.793353340291235 -0.608761429008721 -0.0
   outer loop
      vertex -0.00377335171046166 -0.00423693030879533 0.00879999999999998
      vertex -0.00472686344604901 -0.00299428962167605 0.0398
      vertex -0.00472686344604901 -0.00299428962167605 0.00879999999999998
   endloop
endfacet
facet normal 0.38268343236509 0.923879532511287 0.0
   outer loop
      vertex 0.00328700187280202 0.0122672579938712 0.0088
      vertex 0.00635 0.0109985226280624 0.0
      vertex 0.00328700187280202 0.0122672579938712 0.0
   endloop
endfacet
facet normal 0.38268343236509 0.923879532511287 0.0
   outer loop
      vertex 0.00635 0.0109985226280624 0.0
      vertex 0.00328700187280202 0.0122672579938712 0.0088
      vertex 0.00635 0.0109985226280624 0.0088
   endloop
endfacet
facet normal 0.130526192220052 0.99144486137381 0.0
   outer loop
      vertex 7.77650717458569e-19 0.0127 0.0088
      vertex 0.00328700187280202 0.0122672579938712 0.0
      vertex 7.77650717458569e-19 0.0127 0.0
   endloop
endfacet
facet normal 0.130526192220052 0.99144486137381 0.0
   outer loop
      vertex 0.00328700187280202 0.0122672579938712 0.0
      vertex 7.77650717458569e-19 0.0127 0.0088
      vertex 0.00328700187280202 0.0122672579938712 0.0088
   endloop
endfacet
facet normal -0.130526192220052 0.99144486137381 0.0
   outer loop
      vertex -0.00328700187280201 0.0122672579938712 0.0088
      vertex 7.77650717458569e-19 0.0127 0.0
      vertex -0.00328700187280201 0.0122672579938712 0.0
   endloop
endfacet
facet normal -0.130526192220052 0.99144486137381 0.0
   outer loop
      vertex 7.77650717458569e-19 0.0127 0.0
      vertex -0.00328700187280201 0.0122672579938712 0.0088
      vertex 7.77650717458569e-19 0.0127 0.0088
   endloop
endfacet
facet normal -0.38268343236509 -0.923879532511287 -0.0
   outer loop
      vertex -0.00328700187280202 -0.0122672579938712 0.0088
      vertex -0.00635000000000001 -0.0109985226280624 0.0
      vertex -0.00328700187280202 -0.0122672579938712 0.0
   endloop
endfacet
facet normal -0.38268343236509 -0.923879532511287 -0.0
   outer loop
      vertex -0.00635000000000001 -0.0109985226280624 0.0
      vertex -0.00328700187280202 -0.0122672579938712 0.0088
      vertex -0.00635000000000001 -0.0109985226280624 0.0088
   endloop
endfacet
facet normal -0.382683432365089 0.923879532511287 0.0
   outer loop
      vertex -0.00635 0.0109985226280624 0.0088
      vertex -0.00328700187280201 0.0122672579938712 0.0
      vertex -0.00635 0.0109985226280624 0.0
   endloop
endfacet
facet normal -0.382683432365089 0.923879532511287 0.0
   outer loop
      vertex -0.00328700187280201 0.0122672579938712 0.0
      vertex -0.00635 0.0109985226280624 0.0088
      vertex -0.00328700187280201 0.0122672579938712 0.0088
   endloop
endfacet
facet normal 0.99144486137381 0.130526192220052 0.0
   outer loop
      vertex 0.00626484393439203 0.00155862464893908 0.00879999999999998
      vertex 0.00646928897665762 5.71037832395692e-06 0.0398
      vertex 0.00646928897665762 5.71037832395692e-06 0.00879999999999998
   endloop
endfacet
facet normal 0.99144486137381 0.130526192220052 0.0
   outer loop
      vertex 0.00646928897665762 5.71037832395692e-06 0.0398
      vertex 0.00626484393439203 0.00155862464893908 0.00879999999999998
      vertex 0.00626484393439203 0.00155862464893908 0.0398
   endloop
endfacet
facet normal -0.130526192220052 -0.99144486137381 -0.0
   outer loop
      vertex -2.33295215237571e-18 -0.0127 0.0088
      vertex -0.00328700187280202 -0.0122672579938712 0.0
      vertex -2.33295215237571e-18 -0.0127 0.0
   endloop
endfacet
facet normal -0.130526192220052 -0.99144486137381 -0.0
   outer loop
      vertex -0.00328700187280202 -0.0122672579938712 0.0
      vertex -2.33295215237571e-18 -0.0127 0.0088
      vertex -0.00328700187280202 -0.0122672579938712 0.0088
   endloop
endfacet
facet normal -0.130526192220052 0.99144486137381 0.0
   outer loop
      vertex -0.00108362529395751 0.00580126533605837 0.0398
      vertex 0.000469288976657623 0.00600571037832396 0.00879999999999998
      vertex -0.00108362529395751 0.00580126533605837 0.00879999999999998
   endloop
endfacet
facet normal -0.130526192220052 0.99144486137381 0.0
   outer loop
      vertex 0.000469288976657623 0.00600571037832396 0.00879999999999998
      vertex -0.00108362529395751 0.00580126533605837 0.0398
      vertex 0.000469288976657623 0.00600571037832396 0.0398
   endloop
endfacet
facet normal 0.130526192220051 0.99144486137381 0.0
   outer loop
      vertex 0.000469288976657623 0.00600571037832396 0.0398
      vertex 0.00202220324727275 0.00580126533605837 0.00879999999999998
      vertex 0.000469288976657623 0.00600571037832396 0.00879999999999998
   endloop
endfacet
facet normal 0.130526192220051 0.99144486137381 0.0
   outer loop
      vertex 0.00202220324727275 0.00580126533605837 0.00879999999999998
      vertex 0.000469288976657623 0.00600571037832396 0.0398
      vertex 0.00202220324727275 0.00580126533605837 0.0398
   endloop
endfacet
facet normal 0.38268343236509 0.923879532511287 0.0
   outer loop
      vertex 0.00202220324727275 0.00580126533605837 0.0398
      vertex 0.00346928897665762 0.00520186280103059 0.00879999999999998
      vertex 0.00202220324727275 0.00580126533605837 0.00879999999999998
   endloop
endfacet
facet normal 0.38268343236509 0.923879532511287 0.0
   outer loop
      vertex 0.00346928897665762 0.00520186280103059 0.00879999999999998
      vertex 0.00202220324727275 0.00580126533605837 0.0398
      vertex 0.00346928897665762 0.00520186280103059 0.0398
   endloop
endfacet
facet normal -0.99144486137381 -0.130526192220052 -0.0
   outer loop
      vertex -0.00553071102334238 5.71037832395545e-06 0.0398
      vertex -0.00532626598107679 -0.00154720389229117 0.00879999999999998
      vertex -0.00532626598107679 -0.00154720389229117 0.0398
   endloop
endfacet
facet normal -0.99144486137381 -0.130526192220052 -0.0
   outer loop
      vertex -0.00532626598107679 -0.00154720389229117 0.00879999999999998
      vertex -0.00553071102334238 5.71037832395545e-06 0.0398
      vertex -0.00553071102334238 5.71037832395545e-06 0.00879999999999998
   endloop
endfacet
facet normal -0.991444861373811 0.130526192220051 0.0
   outer loop
      vertex -0.00532626598107679 0.00155862464893908 0.0398
      vertex -0.00553071102334238 5.71037832395545e-06 0.00879999999999998
      vertex -0.00553071102334238 5.71037832395545e-06 0.0398
   endloop
endfacet
facet normal -0.991444861373811 0.130526192220051 0.0
   outer loop
      vertex -0.00553071102334238 5.71037832395545e-06 0.00879999999999998
      vertex -0.00532626598107679 0.00155862464893908 0.0398
      vertex -0.00532626598107679 0.00155862464893908 0.00879999999999998
   endloop
endfacet
facet normal -0.923879532511287 0.382683432365089 0.0
   outer loop
      vertex -0.00472686344604901 0.00300571037832395 0.0398
      vertex -0.00532626598107679 0.00155862464893908 0.00879999999999998
      vertex -0.00532626598107679 0.00155862464893908 0.0398
   endloop
endfacet
facet normal -0.923879532511287 0.382683432365089 0.0
   outer loop
      vertex -0.00532626598107679 0.00155862464893908 0.00879999999999998
      vertex -0.00472686344604901 0.00300571037832395 0.0398
      vertex -0.00472686344604901 0.00300571037832395 0.00879999999999998
   endloop
endfacet
facet normal -0.608761429008721 0.793353340291235 0.0
   outer loop
      vertex -0.00898025612106915 0.00898025612106915 0.0088
      vertex -0.00635 0.0109985226280624 0.0
      vertex -0.00898025612106915 0.00898025612106915 0.0
   endloop
endfacet
facet normal -0.608761429008721 0.793353340291235 0.0
   outer loop
      vertex -0.00635 0.0109985226280624 0.0
      vertex -0.00898025612106915 0.00898025612106915 0.0088
      vertex -0.00635 0.0109985226280624 0.0088
   endloop
endfacet
facet normal 0.991444861373811 -0.130526192220051 0.0
   outer loop
      vertex 0.00646928897665762 5.71037832395692e-06 0.00879999999999998
      vertex 0.00626484393439203 -0.00154720389229117 0.0398
      vertex 0.00626484393439203 -0.00154720389229117 0.00879999999999998
   endloop
endfacet
facet normal 0.991444861373811 -0.130526192220051 0.0
   outer loop
      vertex 0.00626484393439203 -0.00154720389229117 0.0398
      vertex 0.00646928897665762 5.71037832395692e-06 0.00879999999999998
      vertex 0.00646928897665762 5.71037832395692e-06 0.0398
   endloop
endfacet
facet normal 0.130526192220051 -0.99144486137381 0.0
   outer loop
      vertex 0.00328700187280201 -0.0122672579938712 0.0088
      vertex -2.33295215237571e-18 -0.0127 0.0
      vertex 0.00328700187280201 -0.0122672579938712 0.0
   endloop
endfacet
facet normal 0.130526192220051 -0.99144486137381 0.0
   outer loop
      vertex -2.33295215237571e-18 -0.0127 0.0
      vertex 0.00328700187280201 -0.0122672579938712 0.0088
      vertex -2.33295215237571e-18 -0.0127 0.0088
   endloop
endfacet
facet normal -0.793353340291236 0.60876142900872 0.0
   outer loop
      vertex -0.00377335171046166 0.00424835106544324 0.0398
      vertex -0.00472686344604901 0.00300571037832395 0.00879999999999998
      vertex -0.00472686344604901 0.00300571037832395 0.0398
   endloop
endfacet
facet normal -0.793353340291236 0.60876142900872 0.0
   outer loop
      vertex -0.00472686344604901 0.00300571037832395 0.00879999999999998
      vertex -0.00377335171046166 0.00424835106544324 0.0398
      vertex -0.00377335171046166 0.00424835106544324 0.00879999999999998
   endloop
endfacet
facet normal -0.608761429008721 0.793353340291235 0.0
   outer loop
      vertex -0.00377335171046166 0.00424835106544324 0.0398
      vertex -0.00253071102334238 0.00520186280103059 0.00879999999999998
      vertex -0.00377335171046166 0.00424835106544324 0.00879999999999998
   endloop
endfacet
facet normal -0.608761429008721 0.793353340291235 0.0
   outer loop
      vertex -0.00253071102334238 0.00520186280103059 0.00879999999999998
      vertex -0.00377335171046166 0.00424835106544324 0.0398
      vertex -0.00253071102334238 0.00520186280103059 0.0398
   endloop
endfacet
facet normal 0.0 0.0 1.0
   outer loop
      vertex -0.0122672579938712 -0.00328700187280201 0.0088
      vertex -0.0122672579938712 0.00328700187280202 0.0088
      vertex -0.0127 1.55530143491714e-18 0.0088
   endloop
endfacet
facet normal 0.0 0.0 1.0
   outer loop
      vertex -0.0122672579938712 0.00328700187280202 0.0088
      vertex -0.0122672579938712 -0.00328700187280201 0.0088
      vertex -0.0109985226280624 -0.00635 0.0088
   endloop
endfacet
facet normal 0.0 0.0 1.0
   outer loop
      vertex -0.0122672579938712 0.00328700187280202 0.0088
      vertex -0.0109985226280624 -0.00635 0.0088
      vertex -0.0109985226280624 0.00635 0.0088
   endloop
endfacet
facet normal 0.0 0.0 1.0
   outer loop
      vertex -0.0109985226280624 0.00635 0.0088
      vertex -0.0109985226280624 -0.00635 0.0088
      vertex -0.00898025612106916 -0.00898025612106915 0.0088
   endloop
endfacet
facet normal 0.0 0.0 1.0
   outer loop
      vertex -0.0109985226280624 0.00635 0.0088
      vertex -0.00898025612106916 -0.00898025612106915 0.0088
      vertex -0.00898025612106915 0.00898025612106915 0.0088
   endloop
endfacet
facet normal 0.0 0.0 1.0
   outer loop
      vertex -0.00898025612106915 0.00898025612106915 0.0088
      vertex -0.00898025612106916 -0.00898025612106915 0.0088
      vertex -0.00635000000000001 -0.0109985226280624 0.0088
   endloop
endfacet
facet normal 0.0 0.0 1.0
   outer loop
      vertex -0.00898025612106915 0.00898025612106915 0.0088
      vertex -0.00635000000000001 -0.0109985226280624 0.0088
      vertex -0.00635 0.0109985226280624 0.0088
   endloop
endfacet
facet normal 0.0 0.0 1.0
   outer loop
      vertex -0.00635 0.0109985226280624 0.0088
      vertex -0.00635000000000001 -0.0109985226280624 0.0088
      vertex -0.00553071102334238 5.71037832395545e-06 0.00879999999999998
   endloop
endfacet
facet normal 0.0 0.0 1.0
   outer loop
      vertex -0.00553071102334238 5.71037832395545e-06 0.00879999999999998
      vertex -0.00635000000000001 -0.0109985226280624 0.0088
      vertex -0.00532626598107679 -0.00154720389229117 0.00879999999999998
   endloop
endfacet
facet normal 0.0 0.0 1.0
   outer loop
      vertex -0.00532626598107679 -0.00154720389229117 0.00879999999999998
      vertex -0.00635000000000001 -0.0109985226280624 0.0088
      vertex -0.00328700187280202 -0.0122672579938712 0.0088
   endloop
endfacet
facet normal 0.0 0.0 1.0
   outer loop
      vertex -0.00532626598107679 -0.00154720389229117 0.00879999999999998
      vertex -0.00328700187280202 -0.0122672579938712 0.0088
      vertex -0.00472686344604901 -0.00299428962167605 0.00879999999999998
   endloop
endfacet
facet normal 0.0 0.0 1.0
   outer loop
      vertex -0.00472686344604901 -0.00299428962167605 0.00879999999999998
      vertex -0.00328700187280202 -0.0122672579938712 0.0088
      vertex -0.00377335171046166 -0.00423693030879533 0.00879999999999998
   endloop
endfacet
facet normal 0.0 0.0 1.0
   outer loop
      vertex -0.00377335171046166 -0.00423693030879533 0.00879999999999998
      vertex -0.00328700187280202 -0.0122672579938712 0.0088
      vertex -0.00253071102334238 -0.00519044204438268 0.00879999999999998
   endloop
endfacet
facet normal 0.0 0.0 1.0
   outer loop
      vertex -0.00253071102334238 -0.00519044204438268 0.00879999999999998
      vertex -0.00328700187280202 -0.0122672579938712 0.0088
      vertex -2.33295215237571e-18 -0.0127 0.0088
   endloop
endfacet
facet normal 0.0 0.0 1.0
   outer loop
      vertex -0.00253071102334238 -0.00519044204438268 0.00879999999999998
      vertex -2.33295215237571e-18 -0.0127 0.0088
      vertex -0.0010836252939575 -0.00578984457941045 0.00879999999999998
   endloop
endfacet
facet normal 0.0 0.0 1.0
   outer loop
      vertex -0.0010836252939575 -0.00578984457941045 0.00879999999999998
      vertex -2.33295215237571e-18 -0.0127 0.0088
      vertex 0.000469288976657623 -0.00599428962167604 0.00879999999999998
   endloop
endfacet
facet normal 0.0 0.0 1.0
   outer loop
      vertex 0.000469288976657623 -0.00599428962167604 0.00879999999999998
      vertex -2.33295215237571e-18 -0.0127 0.0088
      vertex 0.00328700187280201 -0.0122672579938712 0.0088
   endloop
endfacet
facet normal 0.0 0.0 1.0
   outer loop
      vertex 0.000469288976657623 -0.00599428962167604 0.00879999999999998
      vertex 0.00328700187280201 -0.0122672579938712 0.0088
      vertex 0.00202220324727275 -0.00578984457941045 0.00879999999999998
   endloop
endfacet
facet normal 0.0 0.0 1.0
   outer loop
      vertex 0.00202220324727275 -0.00578984457941045 0.00879999999999998
      vertex 0.00328700187280201 -0.0122672579938712 0.0088
      vertex 0.00346928897665763 -0.00519044204438267 0.00879999999999998
   endloop
endfacet
facet normal 0.0 0.0 1.0
   outer loop
      vertex 0.00346928897665763 -0.00519044204438267 0.00879999999999998
      vertex 0.00328700187280201 -0.0122672579938712 0.0088
      vertex 0.00634999999999999 -0.0109985226280624 0.0088
   endloop
endfacet
facet normal 0.0 0.0 1.0
   outer loop
      vertex 0.00346928897665763 -0.00519044204438267 0.00879999999999998
      vertex 0.00634999999999999 -0.0109985226280624 0.0088
      vertex 0.00471192966377691 -0.00423693030879533 0.00879999999999998
   endloop
endfacet
facet normal 0.0 0.0 1.0
   outer loop
      vertex 0.00471192966377691 -0.00423693030879533 0.00879999999999998
      vertex 0.00634999999999999 -0.0109985226280624 0.0088
      vertex 0.00566544139936426 -0.00299428962167604 0.00879999999999998
   endloop
endfacet
facet normal 0.0 0.0 1.0
   outer loop
      vertex 0.00566544139936426 -0.00299428962167604 0.00879999999999998
      vertex 0.00634999999999999 -0.0109985226280624 0.0088
      vertex 0.00626484393439203 -0.00154720389229117 0.00879999999999998
   endloop
endfacet
facet normal 0.0 0.0 1.0
   outer loop
      vertex 0.00626484393439203 -0.00154720389229117 0.00879999999999998
      vertex 0.00634999999999999 -0.0109985226280624 0.0088
      vertex 0.00646928897665762 5.71037832395692e-06 0.00879999999999998
   endloop
endfacet
facet normal 0.0 0.0 1.0
   outer loop
      vertex 0.00646928897665762 5.71037832395692e-06 0.00879999999999998
      vertex 0.00634999999999999 -0.0109985226280624 0.0088
      vertex 0.00898025612106915 -0.00898025612106916 0.0088
   endloop
endfacet
facet normal 0.0 0.0 1.0
   outer loop
      vertex -0.00635 0.0109985226280624 0.0088
      vertex -0.00532626598107679 0.00155862464893908 0.00879999999999998
      vertex -0.00328700187280201 0.0122672579938712 0.0088
   endloop
endfacet
facet normal 0.0 0.0 1.0
   outer loop
      vertex -0.00532626598107679 0.00155862464893908 0.00879999999999998
      vertex -0.00635 0.0109985226280624 0.0088
      vertex -0.00553071102334238 5.71037832395545e-06 0.00879999999999998
   endloop
endfacet
facet normal 0.0 0.0 1.0
   outer loop
      vertex -0.00328700187280201 0.0122672579938712 0.0088
      vertex -0.00532626598107679 0.00155862464893908 0.00879999999999998
      vertex -0.00472686344604901 0.00300571037832395 0.00879999999999998
   endloop
endfacet
facet normal 0.0 0.0 1.0
   outer loop
      vertex -0.00328700187280201 0.0122672579938712 0.0088
      vertex -0.00472686344604901 0.00300571037832395 0.00879999999999998
      vertex -0.00377335171046166 0.00424835106544324 0.00879999999999998
   endloop
endfacet
facet normal 0.0 0.0 1.0
   outer loop
      vertex -0.00328700187280201 0.0122672579938712 0.0088
      vertex -0.00377335171046166 0.00424835106544324 0.00879999999999998
      vertex -0.00253071102334238 0.00520186280103059 0.00879999999999998
   endloop
endfacet
facet normal 0.0 0.0 1.0
   outer loop
      vertex -0.00328700187280201 0.0122672579938712 0.0088
      vertex -0.00253071102334238 0.00520186280103059 0.00879999999999998
      vertex 7.77650717458569e-19 0.0127 0.0088
   endloop
endfacet
facet normal 0.0 0.0 1.0
   outer loop
      vertex 7.77650717458569e-19 0.0127 0.0088
      vertex -0.00253071102334238 0.00520186280103059 0.00879999999999998
      vertex -0.00108362529395751 0.00580126533605837 0.00879999999999998
   endloop
endfacet
facet normal 0.0 0.0 1.0
   outer loop
      vertex 7.77650717458569e-19 0.0127 0.0088
      vertex -0.00108362529395751 0.00580126533605837 0.00879999999999998
      vertex 0.000469288976657623 0.00600571037832396 0.00879999999999998
   endloop
endfacet
facet normal 0.0 0.0 1.0
   outer loop
      vertex 7.77650717458569e-19 0.0127 0.0088
      vertex 0.000469288976657623 0.00600571037832396 0.00879999999999998
      vertex 0.00328700187280202 0.0122672579938712 0.0088
   endloop
endfacet
facet normal 0.0 0.0 1.0
   outer loop
      vertex 0.00328700187280202 0.0122672579938712 0.0088
      vertex 0.000469288976657623 0.00600571037832396 0.00879999999999998
      vertex 0.00202220324727275 0.00580126533605837 0.00879999999999998
   endloop
endfacet
facet normal 0.0 0.0 1.0
   outer loop
      vertex 0.00328700187280202 0.0122672579938712 0.0088
      vertex 0.00202220324727275 0.00580126533605837 0.00879999999999998
      vertex 0.00346928897665762 0.00520186280103059 0.00879999999999998
   endloop
endfacet
facet normal 0.0 0.0 1.0
   outer loop
      vertex 0.00328700187280202 0.0122672579938712 0.0088
      vertex 0.00346928897665762 0.00520186280103059 0.00879999999999998
      vertex 0.00635 0.0109985226280624 0.0088
   endloop
endfacet
facet normal 0.0 0.0 1.0
   outer loop
      vertex 0.00635 0.0109985226280624 0.0088
      vertex 0.00346928897665762 0.00520186280103059 0.00879999999999998
      vertex 0.00471192966377691 0.00424835106544324 0.00879999999999998
   endloop
endfacet
facet normal 0.0 0.0 1.0
   outer loop
      vertex 0.00635 0.0109985226280624 0.0088
      vertex 0.00471192966377691 0.00424835106544324 0.00879999999999998
      vertex 0.00566544139936425 0.00300571037832396 0.00879999999999998
   endloop
endfacet
facet normal 0.0 0.0 1.0
   outer loop
      vertex 0.00635 0.0109985226280624 0.0088
      vertex 0.00566544139936425 0.00300571037832396 0.00879999999999998
      vertex 0.00626484393439203 0.00155862464893908 0.00879999999999998
   endloop
endfacet
facet normal 0.0 0.0 1.0
   outer loop
      vertex 0.00635 0.0109985226280624 0.0088
      vertex 0.00626484393439203 0.00155862464893908 0.00879999999999998
      vertex 0.00646928897665762 5.71037832395692e-06 0.00879999999999998
   endloop
endfacet
facet normal 0.0 0.0 1.0
   outer loop
      vertex 0.00635 0.0109985226280624 0.0088
      vertex 0.00646928897665762 5.71037832395692e-06 0.00879999999999998
      vertex 0.00898025612106915 0.00898025612106915 0.0088
   endloop
endfacet
facet normal 0.0 0.0 1.0
   outer loop
      vertex 0.00898025612106915 0.00898025612106915 0.0088
      vertex 0.00646928897665762 5.71037832395692e-06 0.00879999999999998
      vertex 0.00898025612106915 -0.00898025612106916 0.0088
   endloop
endfacet
facet normal 0.0 0.0 1.0
   outer loop
      vertex 0.00898025612106915 0.00898025612106915 0.0088
      vertex 0.00898025612106915 -0.00898025612106916 0.0088
      vertex 0.0109985226280624 -0.00635000000000001 0.0088
   endloop
endfacet
facet normal 0.0 0.0 1.0
   outer loop
      vertex 0.00898025612106915 0.00898025612106915 0.0088
      vertex 0.0109985226280624 -0.00635000000000001 0.0088
      vertex 0.0109985226280624 0.00635 0.0088
   endloop
endfacet
facet normal 0.0 0.0 1.0
   outer loop
      vertex 0.0109985226280624 0.00635 0.0088
      vertex 0.0109985226280624 -0.00635000000000001 0.0088
      vertex 0.0122672579938712 -0.00328700187280202 0.0088
   endloop
endfacet
facet normal 0.0 0.0 1.0
   outer loop
      vertex 0.0109985226280624 0.00635 0.0088
      vertex 0.0122672579938712 -0.00328700187280202 0.0088
      vertex 0.0122672579938712 0.00328700187280201 0.0088
   endloop
endfacet
facet normal 0.0 0.0 1.0
   outer loop
      vertex 0.0122672579938712 0.00328700187280201 0.0088
      vertex 0.0122672579938712 -0.00328700187280202 0.0088
      vertex 0.0127 0.0 0.0088
   endloop
endfacet
facet normal 0.382683432365089 -0.923879532511287 0.0
   outer loop
      vertex 0.00634999999999999 -0.0109985226280624 0.0088
      vertex 0.00328700187280201 -0.0122672579938712 0.0
      vertex 0.00634999999999999 -0.0109985226280624 0.0
   endloop
endfacet
facet normal 0.382683432365089 -0.923879532511287 0.0
   outer loop
      vertex 0.00328700187280201 -0.0122672579938712 0.0
      vertex 0.00634999999999999 -0.0109985226280624 0.0088
      vertex 0.00328700187280201 -0.0122672579938712 0.0088
   endloop
endfacet
facet normal 0.923879532511287 -0.38268343236509 0.0
   outer loop
      vertex 0.00626484393439203 -0.00154720389229117 0.00879999999999998
      vertex 0.00566544139936426 -0.00299428962167604 0.0398
      vertex 0.00566544139936426 -0.00299428962167604 0.00879999999999998
   endloop
endfacet
facet normal 0.923879532511287 -0.38268343236509 0.0
   outer loop
      vertex 0.00566544139936426 -0.00299428962167604 0.0398
      vertex 0.00626484393439203 -0.00154720389229117 0.00879999999999998
      vertex 0.00626484393439203 -0.00154720389229117 0.0398
   endloop
endfacet
facet normal 0.793353340291235 -0.60876142900872 0.0
   outer loop
      vertex 0.00566544139936426 -0.00299428962167604 0.00879999999999998
      vertex 0.00471192966377691 -0.00423693030879533 0.0398
      vertex 0.00471192966377691 -0.00423693030879533 0.00879999999999998
   endloop
endfacet
facet normal 0.793353340291235 -0.60876142900872 0.0
   outer loop
      vertex 0.00471192966377691 -0.00423693030879533 0.0398
      vertex 0.00566544139936426 -0.00299428962167604 0.00879999999999998
      vertex 0.00566544139936426 -0.00299428962167604 0.0398
   endloop
endfacet
facet normal 0.608761429008721 -0.793353340291235 0.0
   outer loop
      vertex 0.00471192966377691 -0.00423693030879533 0.0398
      vertex 0.00346928897665763 -0.00519044204438267 0.00879999999999998
      vertex 0.00471192966377691 -0.00423693030879533 0.00879999999999998
   endloop
endfacet
facet normal 0.608761429008721 -0.793353340291235 0.0
   outer loop
      vertex 0.00346928897665763 -0.00519044204438267 0.00879999999999998
      vertex 0.00471192966377691 -0.00423693030879533 0.0398
      vertex 0.00346928897665763 -0.00519044204438267 0.0398
   endloop
endfacet
endsolid Hello World 1
