solid OpenSCAD_Model
  facet normal -0 0 -1
    outer loop
      vertex -37 0 0
      vertex -36.1915 7.69273 0
      vertex -36.1915 -7.69273 0
    endloop
  endfacet
  facet normal 0 -0 -1
    outer loop
      vertex -36.1915 -7.69273 0
      vertex -36.1915 7.69273 0
      vertex -33.8012 15.0493 0
    endloop
  endfacet
  facet normal 0 0 -1
    outer loop
      vertex -36.1915 -7.69273 0
      vertex -33.8012 15.0493 0
      vertex -29.9336 21.7481 0
    endloop
  endfacet
  facet normal 0 0 -1
    outer loop
      vertex -36.1915 -7.69273 0
      vertex -29.9336 21.7481 0
      vertex -24.7578 27.4964 0
    endloop
  endfacet
  facet normal 0 0 -1
    outer loop
      vertex -25.8885 18.8091 0
      vertex -24.7578 27.4964 0
      vertex -18.5 32.0429 0
    endloop
  endfacet
  facet normal 0 -0 -1
    outer loop
      vertex -16 27.7128 0
      vertex -18.5 32.0429 0
      vertex -11.4336 35.1891 0
    endloop
  endfacet
  facet normal 0 -0 -1
    outer loop
      vertex -9.88854 30.4338 0
      vertex -11.4336 35.1891 0
      vertex -3.86755 36.7973 0
    endloop
  endfacet
  facet normal 0 -0 -1
    outer loop
      vertex -3.34491 31.8247 0
      vertex -3.86755 36.7973 0
      vertex 3.86755 36.7973 0
    endloop
  endfacet
  facet normal 0 0 -1
    outer loop
      vertex 3.34491 31.8247 0
      vertex 3.86755 36.7973 0
      vertex 11.4336 35.1891 0
    endloop
  endfacet
  facet normal 0 0 -1
    outer loop
      vertex 9.88854 30.4338 0
      vertex 11.4336 35.1891 0
      vertex 18.5 32.0429 0
    endloop
  endfacet
  facet normal -0 0 -1
    outer loop
      vertex 16 27.7128 0
      vertex 18.5 32.0429 0
      vertex 24.7578 27.4964 0
    endloop
  endfacet
  facet normal -0 0 -1
    outer loop
      vertex 21.4122 23.7806 0
      vertex 24.7578 27.4964 0
      vertex 29.9336 21.7481 0
    endloop
  endfacet
  facet normal -0 0 -1
    outer loop
      vertex 25.8885 18.8091 0
      vertex 29.9336 21.7481 0
      vertex 33.8012 15.0493 0
    endloop
  endfacet
  facet normal -0 0 -1
    outer loop
      vertex 29.2335 13.0156 0
      vertex 33.8012 15.0493 0
      vertex 36.1915 7.69273 0
    endloop
  endfacet
  facet normal -0 0 -1
    outer loop
      vertex 32 0 0
      vertex 36.1915 7.69273 0
      vertex 37 0 0
    endloop
  endfacet
  facet normal -0 0 -1
    outer loop
      vertex 31.3007 -6.65317 0
      vertex 37 0 0
      vertex 36.1915 -7.69273 0
    endloop
  endfacet
  facet normal -0 0 -1
    outer loop
      vertex 29.2335 -13.0156 0
      vertex 36.1915 -7.69273 0
      vertex 33.8012 -15.0493 0
    endloop
  endfacet
  facet normal -0 0 -1
    outer loop
      vertex 25.8885 -18.8091 0
      vertex 33.8012 -15.0493 0
      vertex 29.9336 -21.7481 0
    endloop
  endfacet
  facet normal -0 0 -1
    outer loop
      vertex 21.4122 -23.7806 0
      vertex 29.9336 -21.7481 0
      vertex 24.7578 -27.4964 0
    endloop
  endfacet
  facet normal -0 0 -1
    outer loop
      vertex 16 -27.7128 0
      vertex 24.7578 -27.4964 0
      vertex 18.5 -32.0429 0
    endloop
  endfacet
  facet normal 0 0 -1
    outer loop
      vertex 9.88854 -30.4338 0
      vertex 18.5 -32.0429 0
      vertex 11.4336 -35.1891 0
    endloop
  endfacet
  facet normal 0 0 -1
    outer loop
      vertex 3.34491 -31.8247 0
      vertex 11.4336 -35.1891 0
      vertex 3.86755 -36.7973 0
    endloop
  endfacet
  facet normal 0 0 -1
    outer loop
      vertex -9.88854 -30.4338 0
      vertex 3.86755 -36.7973 0
      vertex -3.86755 -36.7973 0
    endloop
  endfacet
  facet normal 0 0 -1
    outer loop
      vertex -21.4122 -23.7806 0
      vertex -3.86755 -36.7973 0
      vertex -11.4336 -35.1891 0
    endloop
  endfacet
  facet normal 0 0 -1
    outer loop
      vertex -36.1915 -7.69273 0
      vertex -11.4336 -35.1891 0
      vertex -18.5 -32.0429 0
    endloop
  endfacet
  facet normal 0 0 -1
    outer loop
      vertex -36.1915 -7.69273 0
      vertex -18.5 -32.0429 0
      vertex -24.7578 -27.4964 0
    endloop
  endfacet
  facet normal 0 0 -1
    outer loop
      vertex -36.1915 -7.69273 0
      vertex -24.7578 -27.4964 0
      vertex -29.9336 -21.7481 0
    endloop
  endfacet
  facet normal 0 0 -1
    outer loop
      vertex -36.1915 -7.69273 0
      vertex -29.9336 -21.7481 0
      vertex -33.8012 -15.0493 0
    endloop
  endfacet
  facet normal 0 0 -1
    outer loop
      vertex -31.3007 -6.65317 0
      vertex -36.1915 -7.69273 0
      vertex -32 0 0
    endloop
  endfacet
  facet normal 0 0 -1
    outer loop
      vertex 16 -27.7128 0
      vertex 18.5 -32.0429 0
      vertex 9.88854 -30.4338 0
    endloop
  endfacet
  facet normal 0 0 -1
    outer loop
      vertex -29.2335 -13.0156 0
      vertex -36.1915 -7.69273 0
      vertex -31.3007 -6.65317 0
    endloop
  endfacet
  facet normal 0 0 -1
    outer loop
      vertex -25.8885 -18.8091 0
      vertex -36.1915 -7.69273 0
      vertex -29.2335 -13.0156 0
    endloop
  endfacet
  facet normal 0 0 -1
    outer loop
      vertex -9.88854 -30.4338 0
      vertex -3.86755 -36.7973 0
      vertex -16 -27.7128 0
    endloop
  endfacet
  facet normal 0 0 -1
    outer loop
      vertex -36.1915 -7.69273 0
      vertex -25.8885 -18.8091 0
      vertex -11.4336 -35.1891 0
    endloop
  endfacet
  facet normal 0 0 -1
    outer loop
      vertex -16 -27.7128 0
      vertex -3.86755 -36.7973 0
      vertex -21.4122 -23.7806 0
    endloop
  endfacet
  facet normal 0 0 -1
    outer loop
      vertex -25.8885 -18.8091 0
      vertex -21.4122 -23.7806 0
      vertex -11.4336 -35.1891 0
    endloop
  endfacet
  facet normal 0 0 -1
    outer loop
      vertex -3.34491 -31.8247 0
      vertex 3.86755 -36.7973 0
      vertex -9.88854 -30.4338 0
    endloop
  endfacet
  facet normal 0 0 -1
    outer loop
      vertex 3.34491 -31.8247 0
      vertex 3.86755 -36.7973 0
      vertex -3.34491 -31.8247 0
    endloop
  endfacet
  facet normal -0 0 -1
    outer loop
      vertex 31.3007 6.65317 0
      vertex 36.1915 7.69273 0
      vertex 32 0 0
    endloop
  endfacet
  facet normal 0 0 -1
    outer loop
      vertex 25.8885 18.8091 0
      vertex 33.8012 15.0493 0
      vertex 29.2335 13.0156 0
    endloop
  endfacet
  facet normal 0 0 -1
    outer loop
      vertex 29.2335 13.0156 0
      vertex 36.1915 7.69273 0
      vertex 31.3007 6.65317 0
    endloop
  endfacet
  facet normal 0 0 -1
    outer loop
      vertex 32 0 0
      vertex 37 0 0
      vertex 31.3007 -6.65317 0
    endloop
  endfacet
  facet normal 0 0 -1
    outer loop
      vertex 31.3007 -6.65317 0
      vertex 36.1915 -7.69273 0
      vertex 29.2335 -13.0156 0
    endloop
  endfacet
  facet normal 0 0 -1
    outer loop
      vertex 29.2335 -13.0156 0
      vertex 33.8012 -15.0493 0
      vertex 25.8885 -18.8091 0
    endloop
  endfacet
  facet normal 0 0 -1
    outer loop
      vertex 25.8885 -18.8091 0
      vertex 29.9336 -21.7481 0
      vertex 21.4122 -23.7806 0
    endloop
  endfacet
  facet normal 0 0 -1
    outer loop
      vertex 21.4122 -23.7806 0
      vertex 24.7578 -27.4964 0
      vertex 16 -27.7128 0
    endloop
  endfacet
  facet normal 0 0 -1
    outer loop
      vertex -21.4122 23.7806 0
      vertex -18.5 32.0429 0
      vertex -16 27.7128 0
    endloop
  endfacet
  facet normal 0 0 -1
    outer loop
      vertex -25.8885 18.8091 0
      vertex -18.5 32.0429 0
      vertex -21.4122 23.7806 0
    endloop
  endfacet
  facet normal 0 0 -1
    outer loop
      vertex -29.2335 13.0156 0
      vertex -24.7578 27.4964 0
      vertex -25.8885 18.8091 0
    endloop
  endfacet
  facet normal 0 0 -1
    outer loop
      vertex -36.1915 -7.69273 0
      vertex -24.7578 27.4964 0
      vertex -29.2335 13.0156 0
    endloop
  endfacet
  facet normal 0 0 -1
    outer loop
      vertex -36.1915 -7.69273 0
      vertex -29.2335 13.0156 0
      vertex -31.3007 6.65317 0
    endloop
  endfacet
  facet normal 0 0 -1
    outer loop
      vertex -16 27.7128 0
      vertex -11.4336 35.1891 0
      vertex -9.88854 30.4338 0
    endloop
  endfacet
  facet normal 0 -0 -1
    outer loop
      vertex -32 0 0
      vertex -36.1915 -7.69273 0
      vertex -31.3007 6.65317 0
    endloop
  endfacet
  facet normal 0 0 -1
    outer loop
      vertex -9.88854 30.4338 0
      vertex -3.86755 36.7973 0
      vertex -3.34491 31.8247 0
    endloop
  endfacet
  facet normal -0 0 -1
    outer loop
      vertex -3.34491 31.8247 0
      vertex 3.86755 36.7973 0
      vertex 3.34491 31.8247 0
    endloop
  endfacet
  facet normal -0 0 -1
    outer loop
      vertex 3.34491 31.8247 0
      vertex 11.4336 35.1891 0
      vertex 9.88854 30.4338 0
    endloop
  endfacet
  facet normal -0 0 -1
    outer loop
      vertex 9.88854 30.4338 0
      vertex 18.5 32.0429 0
      vertex 16 27.7128 0
    endloop
  endfacet
  facet normal 0 0 -1
    outer loop
      vertex 16 27.7128 0
      vertex 24.7578 27.4964 0
      vertex 21.4122 23.7806 0
    endloop
  endfacet
  facet normal 0 0 -1
    outer loop
      vertex 21.4122 23.7806 0
      vertex 29.9336 21.7481 0
      vertex 25.8885 18.8091 0
    endloop
  endfacet
  facet normal 0 0 -1
    outer loop
      vertex 9.88854 -30.4338 0
      vertex 11.4336 -35.1891 0
      vertex 3.34491 -31.8247 0
    endloop
  endfacet
  facet normal -0.994522 0.104528 0
    outer loop
      vertex -37 0 0
      vertex -37 0 4
      vertex -36.1915 7.69273 0
    endloop
  endfacet
  facet normal -0.994522 0.104528 5.44508e-15
    outer loop
      vertex -36.1915 7.69273 0
      vertex -37 0 4
      vertex -36.8423 1.5 4
    endloop
  endfacet
  facet normal -0.994522 0.104528 0
    outer loop
      vertex -36.1915 7.69273 0
      vertex -36.8423 1.5 4
      vertex -36.8423 1.5 7.5
    endloop
  endfacet
  facet normal -0.994522 0.104528 0
    outer loop
      vertex -36.1915 7.69273 0
      vertex -36.8423 1.5 7.5
      vertex -36.1915 7.69273 7.5
    endloop
  endfacet
  facet normal -0.994522 -0.104528 -0
    outer loop
      vertex -37 0 0
      vertex -36.1915 -7.69273 0
      vertex -37 0 4
    endloop
  endfacet
  facet normal -0.994522 -0.104528 0
    outer loop
      vertex -36.8423 -1.5 4
      vertex -36.1915 -7.69273 0
      vertex -36.1915 -7.69273 7.5
    endloop
  endfacet
  facet normal -0.994522 -0.104528 6.77232e-15
    outer loop
      vertex -37 0 4
      vertex -36.1915 -7.69273 0
      vertex -36.8423 -1.5 4
    endloop
  endfacet
  facet normal -0.994522 -0.104528 -0
    outer loop
      vertex -36.8423 -1.5 4
      vertex -36.1915 -7.69273 7.5
      vertex -36.8423 -1.5 7.5
    endloop
  endfacet
  facet normal -0.951057 -0.309017 -0
    outer loop
      vertex -36.1915 -7.69273 0
      vertex -33.8012 -15.0493 0
      vertex -36.1915 -7.69273 7.5
    endloop
  endfacet
  facet normal -0.951057 -0.309017 0
    outer loop
      vertex -36.1915 -7.69273 7.5
      vertex -33.8012 -15.0493 0
      vertex -33.8012 -15.0493 7.5
    endloop
  endfacet
  facet normal -0.866025 -0.5 -0
    outer loop
      vertex -33.8012 -15.0493 0
      vertex -29.9336 -21.7481 0
      vertex -33.8012 -15.0493 7.5
    endloop
  endfacet
  facet normal -0.866025 -0.5 0
    outer loop
      vertex -33.8012 -15.0493 7.5
      vertex -29.9336 -21.7481 0
      vertex -29.9336 -21.7481 7.5
    endloop
  endfacet
  facet normal -0.743145 -0.669131 -0
    outer loop
      vertex -29.9336 -21.7481 0
      vertex -24.7578 -27.4964 0
      vertex -29.9336 -21.7481 7.5
    endloop
  endfacet
  facet normal -0.743145 -0.669131 0
    outer loop
      vertex -29.9336 -21.7481 7.5
      vertex -24.7578 -27.4964 0
      vertex -24.7578 -27.4964 7.5
    endloop
  endfacet
  facet normal -0.587785 -0.809017 0
    outer loop
      vertex -24.7578 -27.4964 7.5
      vertex -24.7578 -27.4964 0
      vertex -18.5 -32.0429 0
    endloop
  endfacet
  facet normal -0.587785 -0.809017 0
    outer loop
      vertex -18.5 -32.0429 7.5
      vertex -24.7578 -27.4964 7.5
      vertex -18.5 -32.0429 0
    endloop
  endfacet
  facet normal -0.406737 -0.913545 0
    outer loop
      vertex -18.5 -32.0429 7.5
      vertex -18.5 -32.0429 0
      vertex -11.4336 -35.1891 0
    endloop
  endfacet
  facet normal -0.406737 -0.913545 0
    outer loop
      vertex -11.4336 -35.1891 7.5
      vertex -18.5 -32.0429 7.5
      vertex -11.4336 -35.1891 0
    endloop
  endfacet
  facet normal -0.207912 -0.978148 0
    outer loop
      vertex -11.4336 -35.1891 7.5
      vertex -11.4336 -35.1891 0
      vertex -3.86755 -36.7973 0
    endloop
  endfacet
  facet normal -0.207912 -0.978148 0
    outer loop
      vertex -3.86755 -36.7973 7.5
      vertex -11.4336 -35.1891 7.5
      vertex -3.86755 -36.7973 0
    endloop
  endfacet
  facet normal 0 -1 0
    outer loop
      vertex -1.5 -36.7973 4
      vertex -3.86755 -36.7973 0
      vertex 3.86755 -36.7973 0
    endloop
  endfacet
  facet normal 0 -1 0
    outer loop
      vertex -1.5 -36.7973 4
      vertex -1.5 -36.7973 7.5
      vertex -3.86755 -36.7973 7.5
    endloop
  endfacet
  facet normal 0 -1 0
    outer loop
      vertex 3.86755 -36.7973 7.5
      vertex 1.5 -36.7973 7.5
      vertex 3.86755 -36.7973 0
    endloop
  endfacet
  facet normal 0 -1 0
    outer loop
      vertex 1.5 -36.7973 7.5
      vertex 1.5 -36.7973 4
      vertex 3.86755 -36.7973 0
    endloop
  endfacet
  facet normal 0 -1 0
    outer loop
      vertex -3.86755 -36.7973 7.5
      vertex -3.86755 -36.7973 0
      vertex -1.5 -36.7973 4
    endloop
  endfacet
  facet normal 0 -1 0
    outer loop
      vertex 1.5 -36.7973 4
      vertex -1.5 -36.7973 4
      vertex 3.86755 -36.7973 0
    endloop
  endfacet
  facet normal 0.207912 -0.978148 0
    outer loop
      vertex 3.86755 -36.7973 7.5
      vertex 3.86755 -36.7973 0
      vertex 11.4336 -35.1891 0
    endloop
  endfacet
  facet normal 0.207912 -0.978148 0
    outer loop
      vertex 11.4336 -35.1891 7.5
      vertex 3.86755 -36.7973 7.5
      vertex 11.4336 -35.1891 0
    endloop
  endfacet
  facet normal 0.406737 -0.913545 0
    outer loop
      vertex 11.4336 -35.1891 7.5
      vertex 11.4336 -35.1891 0
      vertex 18.5 -32.0429 0
    endloop
  endfacet
  facet normal 0.406737 -0.913545 0
    outer loop
      vertex 18.5 -32.0429 7.5
      vertex 11.4336 -35.1891 7.5
      vertex 18.5 -32.0429 0
    endloop
  endfacet
  facet normal 0.587785 -0.809017 0
    outer loop
      vertex 18.5 -32.0429 7.5
      vertex 18.5 -32.0429 0
      vertex 24.7578 -27.4964 0
    endloop
  endfacet
  facet normal 0.587785 -0.809017 0
    outer loop
      vertex 24.7578 -27.4964 7.5
      vertex 18.5 -32.0429 7.5
      vertex 24.7578 -27.4964 0
    endloop
  endfacet
  facet normal 0.743145 -0.669131 0
    outer loop
      vertex 24.7578 -27.4964 7.5
      vertex 24.7578 -27.4964 0
      vertex 29.9336 -21.7481 0
    endloop
  endfacet
  facet normal 0.743145 -0.669131 0
    outer loop
      vertex 29.9336 -21.7481 7.5
      vertex 24.7578 -27.4964 7.5
      vertex 29.9336 -21.7481 0
    endloop
  endfacet
  facet normal 0.866025 -0.5 0
    outer loop
      vertex 29.9336 -21.7481 7.5
      vertex 29.9336 -21.7481 0
      vertex 33.8012 -15.0493 0
    endloop
  endfacet
  facet normal 0.866025 -0.5 0
    outer loop
      vertex 33.8012 -15.0493 7.5
      vertex 29.9336 -21.7481 7.5
      vertex 33.8012 -15.0493 0
    endloop
  endfacet
  facet normal 0.951057 -0.309017 0
    outer loop
      vertex 33.8012 -15.0493 7.5
      vertex 33.8012 -15.0493 0
      vertex 36.1915 -7.69273 0
    endloop
  endfacet
  facet normal 0.951057 -0.309017 0
    outer loop
      vertex 36.1915 -7.69273 7.5
      vertex 33.8012 -15.0493 7.5
      vertex 36.1915 -7.69273 0
    endloop
  endfacet
  facet normal 0.994522 -0.104528 0
    outer loop
      vertex 36.1915 -7.69273 7.5
      vertex 36.1915 -7.69273 0
      vertex 37 0 0
    endloop
  endfacet
  facet normal 0.994522 -0.104528 1.88445e-15
    outer loop
      vertex 36.8423 -1.5 4
      vertex 36.1915 -7.69273 7.5
      vertex 37 0 0
    endloop
  endfacet
  facet normal 0.994522 -0.104528 0
    outer loop
      vertex 37 0 4
      vertex 36.8423 -1.5 4
      vertex 37 0 0
    endloop
  endfacet
  facet normal 0.994522 -0.104528 0
    outer loop
      vertex 36.8423 -1.5 4
      vertex 36.8423 -1.5 7.5
      vertex 36.1915 -7.69273 7.5
    endloop
  endfacet
  facet normal 0.994522 0.104528 0
    outer loop
      vertex 37 0 0
      vertex 36.1915 7.69273 0
      vertex 36.1915 7.69273 7.5
    endloop
  endfacet
  facet normal 0.994522 0.104528 1.88445e-15
    outer loop
      vertex 36.8423 1.5 4
      vertex 37 0 0
      vertex 36.1915 7.69273 7.5
    endloop
  endfacet
  facet normal 0.994522 0.104528 -0
    outer loop
      vertex 36.8423 1.5 7.5
      vertex 36.8423 1.5 4
      vertex 36.1915 7.69273 7.5
    endloop
  endfacet
  facet normal 0.994522 0.104528 0
    outer loop
      vertex 36.8423 1.5 4
      vertex 37 0 4
      vertex 37 0 0
    endloop
  endfacet
  facet normal 0.951057 0.309017 0
    outer loop
      vertex 36.1915 7.69273 0
      vertex 33.8012 15.0493 0
      vertex 33.8012 15.0493 7.5
    endloop
  endfacet
  facet normal 0.951057 0.309017 -0
    outer loop
      vertex 36.1915 7.69273 7.5
      vertex 36.1915 7.69273 0
      vertex 33.8012 15.0493 7.5
    endloop
  endfacet
  facet normal 0.866025 0.5 0
    outer loop
      vertex 33.8012 15.0493 0
      vertex 29.9336 21.7481 0
      vertex 29.9336 21.7481 7.5
    endloop
  endfacet
  facet normal 0.866025 0.5 -0
    outer loop
      vertex 33.8012 15.0493 7.5
      vertex 33.8012 15.0493 0
      vertex 29.9336 21.7481 7.5
    endloop
  endfacet
  facet normal 0.743145 0.669131 0
    outer loop
      vertex 29.9336 21.7481 0
      vertex 24.7578 27.4964 0
      vertex 24.7578 27.4964 7.5
    endloop
  endfacet
  facet normal 0.743145 0.669131 -0
    outer loop
      vertex 29.9336 21.7481 7.5
      vertex 29.9336 21.7481 0
      vertex 24.7578 27.4964 7.5
    endloop
  endfacet
  facet normal 0.587785 0.809017 0
    outer loop
      vertex 18.5 32.0429 0
      vertex 18.5 32.0429 7.5
      vertex 24.7578 27.4964 0
    endloop
  endfacet
  facet normal 0.587785 0.809017 0
    outer loop
      vertex 24.7578 27.4964 0
      vertex 18.5 32.0429 7.5
      vertex 24.7578 27.4964 7.5
    endloop
  endfacet
  facet normal 0.406737 0.913545 0
    outer loop
      vertex 11.4336 35.1891 0
      vertex 11.4336 35.1891 7.5
      vertex 18.5 32.0429 0
    endloop
  endfacet
  facet normal 0.406737 0.913545 0
    outer loop
      vertex 18.5 32.0429 0
      vertex 11.4336 35.1891 7.5
      vertex 18.5 32.0429 7.5
    endloop
  endfacet
  facet normal 0.207912 0.978148 0
    outer loop
      vertex 3.86755 36.7973 0
      vertex 3.86755 36.7973 7.5
      vertex 11.4336 35.1891 0
    endloop
  endfacet
  facet normal 0.207912 0.978148 0
    outer loop
      vertex 11.4336 35.1891 0
      vertex 3.86755 36.7973 7.5
      vertex 11.4336 35.1891 7.5
    endloop
  endfacet
  facet normal 0 1 -0
    outer loop
      vertex 1.5 36.7973 4
      vertex 3.86755 36.7973 0
      vertex -1.5 36.7973 4
    endloop
  endfacet
  facet normal 0 1 0
    outer loop
      vertex -3.86755 36.7973 0
      vertex -3.86755 36.7973 7.5
      vertex -1.5 36.7973 4
    endloop
  endfacet
  facet normal 0 1 0
    outer loop
      vertex -3.86755 36.7973 0
      vertex -1.5 36.7973 4
      vertex 3.86755 36.7973 0
    endloop
  endfacet
  facet normal 0 1 0
    outer loop
      vertex 3.86755 36.7973 0
      vertex 1.5 36.7973 4
      vertex 1.5 36.7973 7.5
    endloop
  endfacet
  facet normal 0 1 0
    outer loop
      vertex 3.86755 36.7973 0
      vertex 1.5 36.7973 7.5
      vertex 3.86755 36.7973 7.5
    endloop
  endfacet
  facet normal 0 1 0
    outer loop
      vertex -1.5 36.7973 4
      vertex -3.86755 36.7973 7.5
      vertex -1.5 36.7973 7.5
    endloop
  endfacet
  facet normal -0.207912 0.978148 0
    outer loop
      vertex -11.4336 35.1891 0
      vertex -11.4336 35.1891 7.5
      vertex -3.86755 36.7973 0
    endloop
  endfacet
  facet normal -0.207912 0.978148 0
    outer loop
      vertex -3.86755 36.7973 0
      vertex -11.4336 35.1891 7.5
      vertex -3.86755 36.7973 7.5
    endloop
  endfacet
  facet normal -0.406737 0.913545 0
    outer loop
      vertex -18.5 32.0429 0
      vertex -18.5 32.0429 7.5
      vertex -11.4336 35.1891 0
    endloop
  endfacet
  facet normal -0.406737 0.913545 0
    outer loop
      vertex -11.4336 35.1891 0
      vertex -18.5 32.0429 7.5
      vertex -11.4336 35.1891 7.5
    endloop
  endfacet
  facet normal -0.587785 0.809017 0
    outer loop
      vertex -24.7578 27.4964 0
      vertex -24.7578 27.4964 7.5
      vertex -18.5 32.0429 0
    endloop
  endfacet
  facet normal -0.587785 0.809017 0
    outer loop
      vertex -18.5 32.0429 0
      vertex -24.7578 27.4964 7.5
      vertex -18.5 32.0429 7.5
    endloop
  endfacet
  facet normal -0.743145 0.669131 0
    outer loop
      vertex -29.9336 21.7481 0
      vertex -29.9336 21.7481 7.5
      vertex -24.7578 27.4964 0
    endloop
  endfacet
  facet normal -0.743145 0.669131 0
    outer loop
      vertex -24.7578 27.4964 0
      vertex -29.9336 21.7481 7.5
      vertex -24.7578 27.4964 7.5
    endloop
  endfacet
  facet normal -0.866025 0.5 0
    outer loop
      vertex -33.8012 15.0493 0
      vertex -33.8012 15.0493 7.5
      vertex -29.9336 21.7481 0
    endloop
  endfacet
  facet normal -0.866025 0.5 0
    outer loop
      vertex -29.9336 21.7481 0
      vertex -33.8012 15.0493 7.5
      vertex -29.9336 21.7481 7.5
    endloop
  endfacet
  facet normal -0.951057 0.309017 0
    outer loop
      vertex -36.1915 7.69273 0
      vertex -36.1915 7.69273 7.5
      vertex -33.8012 15.0493 0
    endloop
  endfacet
  facet normal -0.951057 0.309017 0
    outer loop
      vertex -33.8012 15.0493 0
      vertex -36.1915 7.69273 7.5
      vertex -33.8012 15.0493 7.5
    endloop
  endfacet
  facet normal 0.994522 -0.104528 0
    outer loop
      vertex -31.3007 6.65317 0
      vertex -31.3007 6.65317 7.5
      vertex -31.8423 1.5 7.5
    endloop
  endfacet
  facet normal 0.994522 -0.104528 -7.63664e-17
    outer loop
      vertex -32 0 4
      vertex -31.3007 6.65317 0
      vertex -31.8423 1.5 4
    endloop
  endfacet
  facet normal 0.994522 -0.104528 0
    outer loop
      vertex -31.8423 1.5 4
      vertex -31.3007 6.65317 0
      vertex -31.8423 1.5 7.5
    endloop
  endfacet
  facet normal 0.994522 -0.104528 0
    outer loop
      vertex -32 0 0
      vertex -31.3007 6.65317 0
      vertex -32 0 4
    endloop
  endfacet
  facet normal 0.994522 0.104528 0
    outer loop
      vertex -31.3007 -6.65317 7.5
      vertex -31.8423 -1.5 4
      vertex -31.8423 -1.5 7.5
    endloop
  endfacet
  facet normal 0.994522 0.104528 0
    outer loop
      vertex -31.3007 -6.65317 0
      vertex -31.8423 -1.5 4
      vertex -31.3007 -6.65317 7.5
    endloop
  endfacet
  facet normal 0.994522 0.104528 -9.92763e-16
    outer loop
      vertex -32 0 4
      vertex -31.8423 -1.5 4
      vertex -31.3007 -6.65317 0
    endloop
  endfacet
  facet normal 0.994522 0.104528 0
    outer loop
      vertex -32 0 0
      vertex -32 0 4
      vertex -31.3007 -6.65317 0
    endloop
  endfacet
  facet normal 0.951057 -0.309017 0
    outer loop
      vertex -29.2335 13.0156 0
      vertex -29.2335 13.0156 7.5
      vertex -31.3007 6.65317 7.5
    endloop
  endfacet
  facet normal 0.951057 -0.309017 0
    outer loop
      vertex -31.3007 6.65317 0
      vertex -29.2335 13.0156 0
      vertex -31.3007 6.65317 7.5
    endloop
  endfacet
  facet normal 0.866025 -0.5 0
    outer loop
      vertex -25.8885 18.8091 0
      vertex -25.8885 18.8091 7.5
      vertex -29.2335 13.0156 7.5
    endloop
  endfacet
  facet normal 0.866025 -0.5 0
    outer loop
      vertex -29.2335 13.0156 0
      vertex -25.8885 18.8091 0
      vertex -29.2335 13.0156 7.5
    endloop
  endfacet
  facet normal 0.743145 -0.669131 0
    outer loop
      vertex -21.4122 23.7806 0
      vertex -21.4122 23.7806 7.5
      vertex -25.8885 18.8091 7.5
    endloop
  endfacet
  facet normal 0.743145 -0.669131 0
    outer loop
      vertex -25.8885 18.8091 0
      vertex -21.4122 23.7806 0
      vertex -25.8885 18.8091 7.5
    endloop
  endfacet
  facet normal 0.587785 -0.809017 0
    outer loop
      vertex -16 27.7128 0
      vertex -16 27.7128 7.5
      vertex -21.4122 23.7806 7.5
    endloop
  endfacet
  facet normal 0.587785 -0.809017 0
    outer loop
      vertex -21.4122 23.7806 0
      vertex -16 27.7128 0
      vertex -21.4122 23.7806 7.5
    endloop
  endfacet
  facet normal 0.406737 -0.913545 0
    outer loop
      vertex -9.88854 30.4338 0
      vertex -9.88854 30.4338 7.5
      vertex -16 27.7128 7.5
    endloop
  endfacet
  facet normal 0.406737 -0.913545 0
    outer loop
      vertex -16 27.7128 0
      vertex -9.88854 30.4338 0
      vertex -16 27.7128 7.5
    endloop
  endfacet
  facet normal 0.207912 -0.978148 0
    outer loop
      vertex -3.34491 31.8247 0
      vertex -3.34491 31.8247 7.5
      vertex -9.88854 30.4338 7.5
    endloop
  endfacet
  facet normal 0.207912 -0.978148 0
    outer loop
      vertex -9.88854 30.4338 0
      vertex -3.34491 31.8247 0
      vertex -9.88854 30.4338 7.5
    endloop
  endfacet
  facet normal 0 -1 0
    outer loop
      vertex 3.34491 31.8247 0
      vertex 3.34491 31.8247 7.5
      vertex 1.5 31.8247 7.5
    endloop
  endfacet
  facet normal 0 -1 0
    outer loop
      vertex -1.5 31.8247 4
      vertex 3.34491 31.8247 0
      vertex 1.5 31.8247 4
    endloop
  endfacet
  facet normal -0 -1 -0
    outer loop
      vertex 1.5 31.8247 4
      vertex 3.34491 31.8247 0
      vertex 1.5 31.8247 7.5
    endloop
  endfacet
  facet normal -0 -1 0
    outer loop
      vertex -3.34491 31.8247 0
      vertex 3.34491 31.8247 0
      vertex -1.5 31.8247 4
    endloop
  endfacet
  facet normal 0 -1 0
    outer loop
      vertex -3.34491 31.8247 7.5
      vertex -1.5 31.8247 4
      vertex -1.5 31.8247 7.5
    endloop
  endfacet
  facet normal 0 -1 -0
    outer loop
      vertex -3.34491 31.8247 0
      vertex -1.5 31.8247 4
      vertex -3.34491 31.8247 7.5
    endloop
  endfacet
  facet normal -0.207912 -0.978148 -0
    outer loop
      vertex 9.88854 30.4338 0
      vertex 9.88854 30.4338 7.5
      vertex 3.34491 31.8247 7.5
    endloop
  endfacet
  facet normal -0.207912 -0.978148 -0
    outer loop
      vertex 3.34491 31.8247 0
      vertex 9.88854 30.4338 0
      vertex 3.34491 31.8247 7.5
    endloop
  endfacet
  facet normal -0.406737 -0.913545 -0
    outer loop
      vertex 16 27.7128 0
      vertex 16 27.7128 7.5
      vertex 9.88854 30.4338 7.5
    endloop
  endfacet
  facet normal -0.406737 -0.913545 -0
    outer loop
      vertex 9.88854 30.4338 0
      vertex 16 27.7128 0
      vertex 9.88854 30.4338 7.5
    endloop
  endfacet
  facet normal -0.587785 -0.809017 -0
    outer loop
      vertex 21.4122 23.7806 0
      vertex 21.4122 23.7806 7.5
      vertex 16 27.7128 7.5
    endloop
  endfacet
  facet normal -0.587785 -0.809017 -0
    outer loop
      vertex 16 27.7128 0
      vertex 21.4122 23.7806 0
      vertex 16 27.7128 7.5
    endloop
  endfacet
  facet normal -0.743145 -0.669131 0
    outer loop
      vertex 25.8885 18.8091 7.5
      vertex 21.4122 23.7806 7.5
      vertex 25.8885 18.8091 0
    endloop
  endfacet
  facet normal -0.743145 -0.669131 0
    outer loop
      vertex 25.8885 18.8091 0
      vertex 21.4122 23.7806 7.5
      vertex 21.4122 23.7806 0
    endloop
  endfacet
  facet normal -0.866025 -0.5 0
    outer loop
      vertex 29.2335 13.0156 7.5
      vertex 25.8885 18.8091 7.5
      vertex 29.2335 13.0156 0
    endloop
  endfacet
  facet normal -0.866025 -0.5 0
    outer loop
      vertex 29.2335 13.0156 0
      vertex 25.8885 18.8091 7.5
      vertex 25.8885 18.8091 0
    endloop
  endfacet
  facet normal -0.951057 -0.309017 0
    outer loop
      vertex 31.3007 6.65317 7.5
      vertex 29.2335 13.0156 7.5
      vertex 31.3007 6.65317 0
    endloop
  endfacet
  facet normal -0.951057 -0.309017 0
    outer loop
      vertex 31.3007 6.65317 0
      vertex 29.2335 13.0156 7.5
      vertex 29.2335 13.0156 0
    endloop
  endfacet
  facet normal -0.994522 -0.104528 0
    outer loop
      vertex 32 0 4
      vertex 31.8423 1.5 4
      vertex 32 0 0
    endloop
  endfacet
  facet normal -0.994522 -0.104528 0
    outer loop
      vertex 31.3007 6.65317 7.5
      vertex 31.8423 1.5 4
      vertex 31.8423 1.5 7.5
    endloop
  endfacet
  facet normal -0.994522 -0.104528 -2.02139e-16
    outer loop
      vertex 32 0 0
      vertex 31.8423 1.5 4
      vertex 31.3007 6.65317 7.5
    endloop
  endfacet
  facet normal -0.994522 -0.104528 0
    outer loop
      vertex 32 0 0
      vertex 31.3007 6.65317 7.5
      vertex 31.3007 6.65317 0
    endloop
  endfacet
  facet normal -0.994522 0.104528 0
    outer loop
      vertex 31.8423 -1.5 7.5
      vertex 31.8423 -1.5 4
      vertex 31.3007 -6.65317 7.5
    endloop
  endfacet
  facet normal -0.994522 0.104528 0
    outer loop
      vertex 32 0 0
      vertex 31.8423 -1.5 4
      vertex 32 0 4
    endloop
  endfacet
  facet normal -0.994522 0.104528 -2.02139e-16
    outer loop
      vertex 31.3007 -6.65317 7.5
      vertex 31.8423 -1.5 4
      vertex 32 0 0
    endloop
  endfacet
  facet normal -0.994522 0.104528 0
    outer loop
      vertex 31.3007 -6.65317 7.5
      vertex 32 0 0
      vertex 31.3007 -6.65317 0
    endloop
  endfacet
  facet normal -0.951057 0.309017 0
    outer loop
      vertex 31.3007 -6.65317 7.5
      vertex 31.3007 -6.65317 0
      vertex 29.2335 -13.0156 7.5
    endloop
  endfacet
  facet normal -0.951057 0.309017 0
    outer loop
      vertex 29.2335 -13.0156 7.5
      vertex 31.3007 -6.65317 0
      vertex 29.2335 -13.0156 0
    endloop
  endfacet
  facet normal -0.866025 0.5 0
    outer loop
      vertex 29.2335 -13.0156 7.5
      vertex 29.2335 -13.0156 0
      vertex 25.8885 -18.8091 7.5
    endloop
  endfacet
  facet normal -0.866025 0.5 0
    outer loop
      vertex 25.8885 -18.8091 7.5
      vertex 29.2335 -13.0156 0
      vertex 25.8885 -18.8091 0
    endloop
  endfacet
  facet normal -0.743145 0.669131 0
    outer loop
      vertex 25.8885 -18.8091 7.5
      vertex 25.8885 -18.8091 0
      vertex 21.4122 -23.7806 7.5
    endloop
  endfacet
  facet normal -0.743145 0.669131 0
    outer loop
      vertex 21.4122 -23.7806 7.5
      vertex 25.8885 -18.8091 0
      vertex 21.4122 -23.7806 0
    endloop
  endfacet
  facet normal -0.587785 0.809017 0
    outer loop
      vertex 21.4122 -23.7806 7.5
      vertex 21.4122 -23.7806 0
      vertex 16 -27.7128 7.5
    endloop
  endfacet
  facet normal -0.587785 0.809017 0
    outer loop
      vertex 16 -27.7128 7.5
      vertex 21.4122 -23.7806 0
      vertex 16 -27.7128 0
    endloop
  endfacet
  facet normal -0.406737 0.913545 0
    outer loop
      vertex 16 -27.7128 7.5
      vertex 16 -27.7128 0
      vertex 9.88854 -30.4338 7.5
    endloop
  endfacet
  facet normal -0.406737 0.913545 0
    outer loop
      vertex 9.88854 -30.4338 7.5
      vertex 16 -27.7128 0
      vertex 9.88854 -30.4338 0
    endloop
  endfacet
  facet normal -0.207912 0.978148 0
    outer loop
      vertex 9.88854 -30.4338 7.5
      vertex 9.88854 -30.4338 0
      vertex 3.34491 -31.8247 7.5
    endloop
  endfacet
  facet normal -0.207912 0.978148 0
    outer loop
      vertex 3.34491 -31.8247 7.5
      vertex 9.88854 -30.4338 0
      vertex 3.34491 -31.8247 0
    endloop
  endfacet
  facet normal 0 1 0
    outer loop
      vertex -1.5 -31.8247 7.5
      vertex -1.5 -31.8247 4
      vertex -3.34491 -31.8247 7.5
    endloop
  endfacet
  facet normal 0 1 0
    outer loop
      vertex -3.34491 -31.8247 0
      vertex -1.5 -31.8247 4
      vertex 3.34491 -31.8247 0
    endloop
  endfacet
  facet normal 0 1 0
    outer loop
      vertex 3.34491 -31.8247 7.5
      vertex 1.5 -31.8247 4
      vertex 1.5 -31.8247 7.5
    endloop
  endfacet
  facet normal 0 1 0
    outer loop
      vertex 3.34491 -31.8247 0
      vertex 1.5 -31.8247 4
      vertex 3.34491 -31.8247 7.5
    endloop
  endfacet
  facet normal 0 1 0
    outer loop
      vertex -1.5 -31.8247 4
      vertex 1.5 -31.8247 4
      vertex 3.34491 -31.8247 0
    endloop
  endfacet
  facet normal 0 1 -0
    outer loop
      vertex -3.34491 -31.8247 7.5
      vertex -1.5 -31.8247 4
      vertex -3.34491 -31.8247 0
    endloop
  endfacet
  facet normal 0.207912 0.978148 -0
    outer loop
      vertex -3.34491 -31.8247 7.5
      vertex -3.34491 -31.8247 0
      vertex -9.88854 -30.4338 7.5
    endloop
  endfacet
  facet normal 0.207912 0.978148 -0
    outer loop
      vertex -9.88854 -30.4338 7.5
      vertex -3.34491 -31.8247 0
      vertex -9.88854 -30.4338 0
    endloop
  endfacet
  facet normal 0.406737 0.913545 -0
    outer loop
      vertex -9.88854 -30.4338 7.5
      vertex -9.88854 -30.4338 0
      vertex -16 -27.7128 7.5
    endloop
  endfacet
  facet normal 0.406737 0.913545 -0
    outer loop
      vertex -16 -27.7128 7.5
      vertex -9.88854 -30.4338 0
      vertex -16 -27.7128 0
    endloop
  endfacet
  facet normal 0.587785 0.809017 -0
    outer loop
      vertex -16 -27.7128 7.5
      vertex -16 -27.7128 0
      vertex -21.4122 -23.7806 7.5
    endloop
  endfacet
  facet normal 0.587785 0.809017 -0
    outer loop
      vertex -21.4122 -23.7806 7.5
      vertex -16 -27.7128 0
      vertex -21.4122 -23.7806 0
    endloop
  endfacet
  facet normal 0.743145 0.669131 0
    outer loop
      vertex -25.8885 -18.8091 7.5
      vertex -21.4122 -23.7806 7.5
      vertex -21.4122 -23.7806 0
    endloop
  endfacet
  facet normal 0.743145 0.669131 0
    outer loop
      vertex -25.8885 -18.8091 0
      vertex -25.8885 -18.8091 7.5
      vertex -21.4122 -23.7806 0
    endloop
  endfacet
  facet normal 0.866025 0.5 0
    outer loop
      vertex -29.2335 -13.0156 7.5
      vertex -25.8885 -18.8091 7.5
      vertex -25.8885 -18.8091 0
    endloop
  endfacet
  facet normal 0.866025 0.5 0
    outer loop
      vertex -29.2335 -13.0156 0
      vertex -29.2335 -13.0156 7.5
      vertex -25.8885 -18.8091 0
    endloop
  endfacet
  facet normal 0.951057 0.309017 0
    outer loop
      vertex -31.3007 -6.65317 7.5
      vertex -29.2335 -13.0156 7.5
      vertex -29.2335 -13.0156 0
    endloop
  endfacet
  facet normal 0.951057 0.309017 0
    outer loop
      vertex -31.3007 -6.65317 0
      vertex -31.3007 -6.65317 7.5
      vertex -29.2335 -13.0156 0
    endloop
  endfacet
  facet normal 0 -0 1
    outer loop
      vertex -36.1915 7.69273 7.5
      vertex -36.8423 1.5 7.5
      vertex -31.8423 1.5 7.5
    endloop
  endfacet
  facet normal 0 0 1
    outer loop
      vertex -29.2335 13.0156 7.5
      vertex -36.1915 7.69273 7.5
      vertex -31.3007 6.65317 7.5
    endloop
  endfacet
  facet normal -0 0 1
    outer loop
      vertex -31.3007 6.65317 7.5
      vertex -36.1915 7.69273 7.5
      vertex -31.8423 1.5 7.5
    endloop
  endfacet
  facet normal 0 0 1
    outer loop
      vertex -25.8885 18.8091 7.5
      vertex -36.1915 7.69273 7.5
      vertex -29.2335 13.0156 7.5
    endloop
  endfacet
  facet normal 0 0 1
    outer loop
      vertex -21.4122 23.7806 7.5
      vertex -36.1915 7.69273 7.5
      vertex -25.8885 18.8091 7.5
    endloop
  endfacet
  facet normal 0 0 1
    outer loop
      vertex -11.4336 35.1891 7.5
      vertex -36.1915 7.69273 7.5
      vertex -21.4122 23.7806 7.5
    endloop
  endfacet
  facet normal 0 0 1
    outer loop
      vertex -3.86755 36.7973 7.5
      vertex -21.4122 23.7806 7.5
      vertex -16 27.7128 7.5
    endloop
  endfacet
  facet normal 0 0 1
    outer loop
      vertex -1.5 36.7973 7.5
      vertex -16 27.7128 7.5
      vertex -9.88854 30.4338 7.5
    endloop
  endfacet
  facet normal 0 0 1
    outer loop
      vertex -1.5 36.7973 7.5
      vertex -9.88854 30.4338 7.5
      vertex -3.34491 31.8247 7.5
    endloop
  endfacet
  facet normal 0 0 1
    outer loop
      vertex -1.5 36.7973 7.5
      vertex -3.34491 31.8247 7.5
      vertex -1.5 31.8247 7.5
    endloop
  endfacet
  facet normal 0 -0 1
    outer loop
      vertex -3.86755 36.7973 7.5
      vertex -16 27.7128 7.5
      vertex -1.5 36.7973 7.5
    endloop
  endfacet
  facet normal 0 -0 1
    outer loop
      vertex -11.4336 35.1891 7.5
      vertex -21.4122 23.7806 7.5
      vertex -3.86755 36.7973 7.5
    endloop
  endfacet
  facet normal 0 -0 1
    outer loop
      vertex -18.5 32.0429 7.5
      vertex -36.1915 7.69273 7.5
      vertex -11.4336 35.1891 7.5
    endloop
  endfacet
  facet normal 0 -0 1
    outer loop
      vertex -24.7578 27.4964 7.5
      vertex -36.1915 7.69273 7.5
      vertex -18.5 32.0429 7.5
    endloop
  endfacet
  facet normal 0 -0 1
    outer loop
      vertex -29.9336 21.7481 7.5
      vertex -36.1915 7.69273 7.5
      vertex -24.7578 27.4964 7.5
    endloop
  endfacet
  facet normal 0 -0 1
    outer loop
      vertex -33.8012 15.0493 7.5
      vertex -36.1915 7.69273 7.5
      vertex -29.9336 21.7481 7.5
    endloop
  endfacet
  facet normal -1.33227e-16 -1 -0
    outer loop
      vertex -31.8423 1.5 4
      vertex -31.8423 1.5 7.5
      vertex -36.8423 1.5 7.5
    endloop
  endfacet
  facet normal -1.33227e-16 -1 -0
    outer loop
      vertex -36.8423 1.5 4
      vertex -31.8423 1.5 4
      vertex -36.8423 1.5 7.5
    endloop
  endfacet
  facet normal 0 0 1
    outer loop
      vertex -36.8423 -1.5 4
      vertex -31.8423 -1.5 4
      vertex -32 0 4
    endloop
  endfacet
  facet normal 0 0 1
    outer loop
      vertex -31.8423 1.5 4
      vertex -36.8423 -1.5 4
      vertex -32 0 4
    endloop
  endfacet
  facet normal -0 0 1
    outer loop
      vertex -31.8423 1.5 4
      vertex -36.8423 1.5 4
      vertex -36.8423 -1.5 4
    endloop
  endfacet
  facet normal 0 0 1
    outer loop
      vertex -36.8423 1.5 4
      vertex -37 0 4
      vertex -36.8423 -1.5 4
    endloop
  endfacet
  facet normal 1.33227e-16 1 -0
    outer loop
      vertex -31.8423 -1.5 7.5
      vertex -31.8423 -1.5 4
      vertex -36.8423 -1.5 7.5
    endloop
  endfacet
  facet normal 1.33227e-16 1 -0
    outer loop
      vertex -36.8423 -1.5 7.5
      vertex -31.8423 -1.5 4
      vertex -36.8423 -1.5 4
    endloop
  endfacet
  facet normal -0 0 1
    outer loop
      vertex -31.8423 -1.5 7.5
      vertex -36.8423 -1.5 7.5
      vertex -36.1915 -7.69273 7.5
    endloop
  endfacet
  facet normal 0 0 1
    outer loop
      vertex -29.9336 -21.7481 7.5
      vertex -31.8423 -1.5 7.5
      vertex -33.8012 -15.0493 7.5
    endloop
  endfacet
  facet normal 0 0 1
    outer loop
      vertex -33.8012 -15.0493 7.5
      vertex -31.8423 -1.5 7.5
      vertex -36.1915 -7.69273 7.5
    endloop
  endfacet
  facet normal -0 -0 1
    outer loop
      vertex -31.3007 -6.65317 7.5
      vertex -31.8423 -1.5 7.5
      vertex -29.9336 -21.7481 7.5
    endloop
  endfacet
  facet normal -0 -0 1
    outer loop
      vertex -25.8885 -18.8091 7.5
      vertex -29.2335 -13.0156 7.5
      vertex -24.7578 -27.4964 7.5
    endloop
  endfacet
  facet normal -0 -0 1
    outer loop
      vertex -21.4122 -23.7806 7.5
      vertex -25.8885 -18.8091 7.5
      vertex -18.5 -32.0429 7.5
    endloop
  endfacet
  facet normal -0 0 1
    outer loop
      vertex -9.88854 -30.4338 7.5
      vertex -16 -27.7128 7.5
      vertex -11.4336 -35.1891 7.5
    endloop
  endfacet
  facet normal 0 0 1
    outer loop
      vertex -1.5 -31.8247 7.5
      vertex -3.34491 -31.8247 7.5
      vertex -1.5 -36.7973 7.5
    endloop
  endfacet
  facet normal 0 0 1
    outer loop
      vertex -3.86755 -36.7973 7.5
      vertex -9.88854 -30.4338 7.5
      vertex -11.4336 -35.1891 7.5
    endloop
  endfacet
  facet normal 0 0 1
    outer loop
      vertex -11.4336 -35.1891 7.5
      vertex -16 -27.7128 7.5
      vertex -18.5 -32.0429 7.5
    endloop
  endfacet
  facet normal -0 0 1
    outer loop
      vertex -16 -27.7128 7.5
      vertex -21.4122 -23.7806 7.5
      vertex -18.5 -32.0429 7.5
    endloop
  endfacet
  facet normal 0 0 1
    outer loop
      vertex -18.5 -32.0429 7.5
      vertex -25.8885 -18.8091 7.5
      vertex -24.7578 -27.4964 7.5
    endloop
  endfacet
  facet normal 0 0 1
    outer loop
      vertex -24.7578 -27.4964 7.5
      vertex -29.2335 -13.0156 7.5
      vertex -29.9336 -21.7481 7.5
    endloop
  endfacet
  facet normal -0 0 1
    outer loop
      vertex -29.2335 -13.0156 7.5
      vertex -31.3007 -6.65317 7.5
      vertex -29.9336 -21.7481 7.5
    endloop
  endfacet
  facet normal 0 -0 1
    outer loop
      vertex -3.34491 -31.8247 7.5
      vertex -3.86755 -36.7973 7.5
      vertex -1.5 -36.7973 7.5
    endloop
  endfacet
  facet normal -0 0 1
    outer loop
      vertex -3.34491 -31.8247 7.5
      vertex -9.88854 -30.4338 7.5
      vertex -3.86755 -36.7973 7.5
    endloop
  endfacet
  facet normal 1 -2.23268e-16 0
    outer loop
      vertex -1.5 -31.8247 4
      vertex -1.5 -31.8247 7.5
      vertex -1.5 -36.7973 7.5
    endloop
  endfacet
  facet normal 1 -2.23268e-16 0
    outer loop
      vertex -1.5 -36.7973 4
      vertex -1.5 -31.8247 4
      vertex -1.5 -36.7973 7.5
    endloop
  endfacet
  facet normal 0 0 1
    outer loop
      vertex 1.5 -36.7973 4
      vertex 1.5 -31.8247 4
      vertex -1.5 -31.8247 4
    endloop
  endfacet
  facet normal 0 0 1
    outer loop
      vertex -1.5 -36.7973 4
      vertex 1.5 -36.7973 4
      vertex -1.5 -31.8247 4
    endloop
  endfacet
  facet normal -1 2.23268e-16 0
    outer loop
      vertex 1.5 -31.8247 7.5
      vertex 1.5 -31.8247 4
      vertex 1.5 -36.7973 7.5
    endloop
  endfacet
  facet normal -1 2.23268e-16 0
    outer loop
      vertex 1.5 -36.7973 7.5
      vertex 1.5 -31.8247 4
      vertex 1.5 -36.7973 4
    endloop
  endfacet
  facet normal 0 -0 1
    outer loop
      vertex 1.5 -31.8247 7.5
      vertex 1.5 -36.7973 7.5
      vertex 3.86755 -36.7973 7.5
    endloop
  endfacet
  facet normal -0 0 1
    outer loop
      vertex 18.5 -32.0429 7.5
      vertex 1.5 -31.8247 7.5
      vertex 11.4336 -35.1891 7.5
    endloop
  endfacet
  facet normal -0 0 1
    outer loop
      vertex 11.4336 -35.1891 7.5
      vertex 1.5 -31.8247 7.5
      vertex 3.86755 -36.7973 7.5
    endloop
  endfacet
  facet normal 0 -0 1
    outer loop
      vertex 3.34491 -31.8247 7.5
      vertex 1.5 -31.8247 7.5
      vertex 18.5 -32.0429 7.5
    endloop
  endfacet
  facet normal 0 -0 1
    outer loop
      vertex 16 -27.7128 7.5
      vertex 9.88854 -30.4338 7.5
      vertex 24.7578 -27.4964 7.5
    endloop
  endfacet
  facet normal 0 -0 1
    outer loop
      vertex 21.4122 -23.7806 7.5
      vertex 16 -27.7128 7.5
      vertex 29.9336 -21.7481 7.5
    endloop
  endfacet
  facet normal 0 -0 1
    outer loop
      vertex 25.8885 -18.8091 7.5
      vertex 21.4122 -23.7806 7.5
      vertex 33.8012 -15.0493 7.5
    endloop
  endfacet
  facet normal 0 -0 1
    outer loop
      vertex 31.3007 -6.65317 7.5
      vertex 29.2335 -13.0156 7.5
      vertex 36.1915 -7.69273 7.5
    endloop
  endfacet
  facet normal 0 0 1
    outer loop
      vertex 36.8423 -1.5 7.5
      vertex 31.3007 -6.65317 7.5
      vertex 36.1915 -7.69273 7.5
    endloop
  endfacet
  facet normal 0 0 1
    outer loop
      vertex 36.1915 -7.69273 7.5
      vertex 29.2335 -13.0156 7.5
      vertex 33.8012 -15.0493 7.5
    endloop
  endfacet
  facet normal 0 -0 1
    outer loop
      vertex 29.2335 -13.0156 7.5
      vertex 25.8885 -18.8091 7.5
      vertex 33.8012 -15.0493 7.5
    endloop
  endfacet
  facet normal 0 0 1
    outer loop
      vertex 33.8012 -15.0493 7.5
      vertex 21.4122 -23.7806 7.5
      vertex 29.9336 -21.7481 7.5
    endloop
  endfacet
  facet normal 0 0 1
    outer loop
      vertex 29.9336 -21.7481 7.5
      vertex 16 -27.7128 7.5
      vertex 24.7578 -27.4964 7.5
    endloop
  endfacet
  facet normal 0 0 1
    outer loop
      vertex 24.7578 -27.4964 7.5
      vertex 9.88854 -30.4338 7.5
      vertex 18.5 -32.0429 7.5
    endloop
  endfacet
  facet normal 0 -0 1
    outer loop
      vertex 9.88854 -30.4338 7.5
      vertex 3.34491 -31.8247 7.5
      vertex 18.5 -32.0429 7.5
    endloop
  endfacet
  facet normal 0 -0 1
    outer loop
      vertex 31.8423 -1.5 7.5
      vertex 31.3007 -6.65317 7.5
      vertex 36.8423 -1.5 7.5
    endloop
  endfacet
  facet normal 0 1 0
    outer loop
      vertex 36.8423 -1.5 7.5
      vertex 36.8423 -1.5 4
      vertex 31.8423 -1.5 7.5
    endloop
  endfacet
  facet normal 0 1 -0
    outer loop
      vertex 31.8423 -1.5 7.5
      vertex 36.8423 -1.5 4
      vertex 31.8423 -1.5 4
    endloop
  endfacet
  facet normal 0 0 1
    outer loop
      vertex 36.8423 -1.5 4
      vertex 37 0 4
      vertex 36.8423 1.5 4
    endloop
  endfacet
  facet normal 0 0 1
    outer loop
      vertex 32 0 4
      vertex 36.8423 -1.5 4
      vertex 31.8423 1.5 4
    endloop
  endfacet
  facet normal 0 0 1
    outer loop
      vertex 31.8423 1.5 4
      vertex 36.8423 -1.5 4
      vertex 36.8423 1.5 4
    endloop
  endfacet
  facet normal 0 0 1
    outer loop
      vertex 31.8423 -1.5 4
      vertex 36.8423 -1.5 4
      vertex 32 0 4
    endloop
  endfacet
  facet normal 0 -1 0
    outer loop
      vertex 36.8423 1.5 4
      vertex 36.8423 1.5 7.5
      vertex 31.8423 1.5 7.5
    endloop
  endfacet
  facet normal -0 -1 -0
    outer loop
      vertex 31.8423 1.5 4
      vertex 36.8423 1.5 4
      vertex 31.8423 1.5 7.5
    endloop
  endfacet
  facet normal 0 0 1
    outer loop
      vertex 16 27.7128 7.5
      vertex 29.9336 21.7481 7.5
      vertex 1.5 36.7973 7.5
    endloop
  endfacet
  facet normal 0 -0 1
    outer loop
      vertex 1.5 36.7973 7.5
      vertex 1.5 31.8247 7.5
      vertex 3.34491 31.8247 7.5
    endloop
  endfacet
  facet normal 0 0 1
    outer loop
      vertex 21.4122 23.7806 7.5
      vertex 33.8012 15.0493 7.5
      vertex 16 27.7128 7.5
    endloop
  endfacet
  facet normal 0 0 1
    outer loop
      vertex 9.88854 30.4338 7.5
      vertex 1.5 36.7973 7.5
      vertex 3.34491 31.8247 7.5
    endloop
  endfacet
  facet normal 0 0 1
    outer loop
      vertex 9.88854 30.4338 7.5
      vertex 16 27.7128 7.5
      vertex 1.5 36.7973 7.5
    endloop
  endfacet
  facet normal 0 0 1
    outer loop
      vertex 25.8885 18.8091 7.5
      vertex 36.1915 7.69273 7.5
      vertex 21.4122 23.7806 7.5
    endloop
  endfacet
  facet normal 0 0 1
    outer loop
      vertex 29.2335 13.0156 7.5
      vertex 36.8423 1.5 7.5
      vertex 25.8885 18.8091 7.5
    endloop
  endfacet
  facet normal 0 0 1
    outer loop
      vertex 31.3007 6.65317 7.5
      vertex 36.8423 1.5 7.5
      vertex 29.2335 13.0156 7.5
    endloop
  endfacet
  facet normal 0 0 1
    outer loop
      vertex 31.8423 1.5 7.5
      vertex 36.8423 1.5 7.5
      vertex 31.3007 6.65317 7.5
    endloop
  endfacet
  facet normal 0 0 1
    outer loop
      vertex 36.8423 1.5 7.5
      vertex 36.1915 7.69273 7.5
      vertex 25.8885 18.8091 7.5
    endloop
  endfacet
  facet normal 0 0 1
    outer loop
      vertex 36.1915 7.69273 7.5
      vertex 33.8012 15.0493 7.5
      vertex 21.4122 23.7806 7.5
    endloop
  endfacet
  facet normal 0 0 1
    outer loop
      vertex 33.8012 15.0493 7.5
      vertex 29.9336 21.7481 7.5
      vertex 16 27.7128 7.5
    endloop
  endfacet
  facet normal 0 0 1
    outer loop
      vertex 29.9336 21.7481 7.5
      vertex 24.7578 27.4964 7.5
      vertex 1.5 36.7973 7.5
    endloop
  endfacet
  facet normal 0 0 1
    outer loop
      vertex 24.7578 27.4964 7.5
      vertex 18.5 32.0429 7.5
      vertex 1.5 36.7973 7.5
    endloop
  endfacet
  facet normal 0 0 1
    outer loop
      vertex 18.5 32.0429 7.5
      vertex 11.4336 35.1891 7.5
      vertex 1.5 36.7973 7.5
    endloop
  endfacet
  facet normal 0 0 1
    outer loop
      vertex 11.4336 35.1891 7.5
      vertex 3.86755 36.7973 7.5
      vertex 1.5 36.7973 7.5
    endloop
  endfacet
  facet normal -1 2.23268e-16 0
    outer loop
      vertex 1.5 36.7973 7.5
      vertex 1.5 36.7973 4
      vertex 1.5 31.8247 7.5
    endloop
  endfacet
  facet normal -1 2.23268e-16 0
    outer loop
      vertex 1.5 31.8247 7.5
      vertex 1.5 36.7973 4
      vertex 1.5 31.8247 4
    endloop
  endfacet
  facet normal 0 0 1
    outer loop
      vertex 1.5 31.8247 4
      vertex 1.5 36.7973 4
      vertex -1.5 36.7973 4
    endloop
  endfacet
  facet normal 0 0 1
    outer loop
      vertex -1.5 31.8247 4
      vertex 1.5 31.8247 4
      vertex -1.5 36.7973 4
    endloop
  endfacet
  facet normal 1 -2.23268e-16 0
    outer loop
      vertex -1.5 36.7973 4
      vertex -1.5 36.7973 7.5
      vertex -1.5 31.8247 7.5
    endloop
  endfacet
  facet normal 1 -2.23268e-16 0
    outer loop
      vertex -1.5 31.8247 4
      vertex -1.5 36.7973 4
      vertex -1.5 31.8247 7.5
    endloop
  endfacet
endsolid OpenSCAD_Model
