solid Hello World 1
facet normal -0.382683432365089 -0.923879532511287 -0.0
   outer loop
      vertex -1.0836252939575 -5.78984457941045 39.8
      vertex -2.53071102334238 -5.19044204438268 8.79999999999998
      vertex -1.0836252939575 -5.78984457941045 8.79999999999998
   endloop
endfacet
facet normal -0.382683432365089 -0.923879532511287 -0.0
   outer loop
      vertex -2.53071102334238 -5.19044204438268 8.79999999999998
      vertex -1.0836252939575 -5.78984457941045 39.8
      vertex -2.53071102334238 -5.19044204438268 39.8
   endloop
endfacet
facet normal -0.923879532511287 0.38268343236509 0.0
   outer loop
      vertex -10.9985226280624 6.35 8.8
      vertex -12.2672579938712 3.28700187280202 0.0
      vertex -12.2672579938712 3.28700187280202 8.8
   endloop
endfacet
facet normal -0.923879532511287 0.38268343236509 0.0
   outer loop
      vertex -12.2672579938712 3.28700187280202 0.0
      vertex -10.9985226280624 6.35 8.8
      vertex -10.9985226280624 6.35 0.0
   endloop
endfacet
facet normal -0.923879532511287 -0.38268343236509 -0.0
   outer loop
      vertex -12.2672579938712 -3.28700187280201 8.8
      vertex -10.9985226280624 -6.35 0.0
      vertex -10.9985226280624 -6.35 8.8
   endloop
endfacet
facet normal -0.923879532511287 -0.38268343236509 -0.0
   outer loop
      vertex -10.9985226280624 -6.35 0.0
      vertex -12.2672579938712 -3.28700187280201 8.8
      vertex -12.2672579938712 -3.28700187280201 0.0
   endloop
endfacet
facet normal 0.99144486137381 0.130526192220052 0.0
   outer loop
      vertex 6.26484393439203 1.55862464893908 8.79999999999998
      vertex 6.46928897665762 0.00571037832395692 39.8
      vertex 6.46928897665762 0.00571037832395692 8.79999999999998
   endloop
endfacet
facet normal 0.99144486137381 0.130526192220052 0.0
   outer loop
      vertex 6.46928897665762 0.00571037832395692 39.8
      vertex 6.26484393439203 1.55862464893908 8.79999999999998
      vertex 6.26484393439203 1.55862464893908 39.8
   endloop
endfacet
facet normal -0.608761429008721 0.793353340291235 0.0
   outer loop
      vertex -8.98025612106915 8.98025612106915 8.8
      vertex -6.35 10.9985226280624 0.0
      vertex -8.98025612106915 8.98025612106915 0.0
   endloop
endfacet
facet normal -0.608761429008721 0.793353340291235 0.0
   outer loop
      vertex -6.35 10.9985226280624 0.0
      vertex -8.98025612106915 8.98025612106915 8.8
      vertex -6.35 10.9985226280624 8.8
   endloop
endfacet
facet normal -0.382683432365089 0.923879532511287 0.0
   outer loop
      vertex -6.35 10.9985226280624 8.8
      vertex -3.28700187280201 12.2672579938712 0.0
      vertex -6.35 10.9985226280624 0.0
   endloop
endfacet
facet normal -0.382683432365089 0.923879532511287 0.0
   outer loop
      vertex -3.28700187280201 12.2672579938712 0.0
      vertex -6.35 10.9985226280624 8.8
      vertex -3.28700187280201 12.2672579938712 8.8
   endloop
endfacet
facet normal -0.99144486137381 0.130526192220052 0.0
   outer loop
      vertex -12.2672579938712 3.28700187280202 8.8
      vertex -12.7 1.55530143491714e-15 0.0
      vertex -12.7 1.55530143491714e-15 8.8
   endloop
endfacet
facet normal -0.99144486137381 0.130526192220052 0.0
   outer loop
      vertex -12.7 1.55530143491714e-15 0.0
      vertex -12.2672579938712 3.28700187280202 8.8
      vertex -12.2672579938712 3.28700187280202 0.0
   endloop
endfacet
facet normal 0.923879532511287 0.38268343236509 0.0
   outer loop
      vertex 10.9985226280624 6.35 0.0
      vertex 12.2672579938712 3.28700187280201 8.8
      vertex 12.2672579938712 3.28700187280201 0.0
   endloop
endfacet
facet normal 0.923879532511287 0.38268343236509 0.0
   outer loop
      vertex 12.2672579938712 3.28700187280201 8.8
      vertex 10.9985226280624 6.35 0.0
      vertex 10.9985226280624 6.35 8.8
   endloop
endfacet
facet normal 0.130526192220051 -0.99144486137381 0.0
   outer loop
      vertex 3.28700187280201 -12.2672579938712 8.8
      vertex -2.33295215237571e-15 -12.7 0.0
      vertex 3.28700187280201 -12.2672579938712 0.0
   endloop
endfacet
facet normal 0.130526192220051 -0.99144486137381 0.0
   outer loop
      vertex -2.33295215237571e-15 -12.7 0.0
      vertex 3.28700187280201 -12.2672579938712 8.8
      vertex -2.33295215237571e-15 -12.7 8.8
   endloop
endfacet
facet normal -0.130526192220052 -0.99144486137381 -0.0
   outer loop
      vertex -2.33295215237571e-15 -12.7 8.8
      vertex -3.28700187280202 -12.2672579938712 0.0
      vertex -2.33295215237571e-15 -12.7 0.0
   endloop
endfacet
facet normal -0.130526192220052 -0.99144486137381 -0.0
   outer loop
      vertex -3.28700187280202 -12.2672579938712 0.0
      vertex -2.33295215237571e-15 -12.7 8.8
      vertex -3.28700187280202 -12.2672579938712 8.8
   endloop
endfacet
facet normal -0.130526192220052 0.99144486137381 0.0
   outer loop
      vertex -3.28700187280201 12.2672579938712 8.8
      vertex 7.77650717458569e-16 12.7 0.0
      vertex -3.28700187280201 12.2672579938712 0.0
   endloop
endfacet
facet normal -0.130526192220052 0.99144486137381 0.0
   outer loop
      vertex 7.77650717458569e-16 12.7 0.0
      vertex -3.28700187280201 12.2672579938712 8.8
      vertex 7.77650717458569e-16 12.7 8.8
   endloop
endfacet
facet normal 0.923879532511287 -0.38268343236509 0.0
   outer loop
      vertex 6.26484393439203 -1.54720389229117 8.79999999999998
      vertex 5.66544139936426 -2.99428962167604 39.8
      vertex 5.66544139936426 -2.99428962167604 8.79999999999998
   endloop
endfacet
facet normal 0.923879532511287 -0.38268343236509 0.0
   outer loop
      vertex 5.66544139936426 -2.99428962167604 39.8
      vertex 6.26484393439203 -1.54720389229117 8.79999999999998
      vertex 6.26484393439203 -1.54720389229117 39.8
   endloop
endfacet
facet normal 0.793353340291235 -0.60876142900872 0.0
   outer loop
      vertex 5.66544139936426 -2.99428962167604 8.79999999999998
      vertex 4.71192966377691 -4.23693030879533 39.8
      vertex 4.71192966377691 -4.23693030879533 8.79999999999998
   endloop
endfacet
facet normal 0.793353340291235 -0.60876142900872 0.0
   outer loop
      vertex 4.71192966377691 -4.23693030879533 39.8
      vertex 5.66544139936426 -2.99428962167604 8.79999999999998
      vertex 5.66544139936426 -2.99428962167604 39.8
   endloop
endfacet
facet normal 0.793353340291235 -0.608761429008721 0.0
   outer loop
      vertex 10.9985226280624 -6.35 0.0
      vertex 8.98025612106915 -8.98025612106916 8.8
      vertex 8.98025612106915 -8.98025612106916 0.0
   endloop
endfacet
facet normal 0.793353340291235 -0.608761429008721 0.0
   outer loop
      vertex 8.98025612106915 -8.98025612106916 8.8
      vertex 10.9985226280624 -6.35 0.0
      vertex 10.9985226280624 -6.35 8.8
   endloop
endfacet
facet normal 0.923879532511287 0.38268343236509 0.0
   outer loop
      vertex 5.66544139936425 3.00571037832396 8.79999999999998
      vertex 6.26484393439203 1.55862464893908 39.8
      vertex 6.26484393439203 1.55862464893908 8.79999999999998
   endloop
endfacet
facet normal 0.923879532511287 0.38268343236509 0.0
   outer loop
      vertex 6.26484393439203 1.55862464893908 39.8
      vertex 5.66544139936425 3.00571037832396 8.79999999999998
      vertex 5.66544139936425 3.00571037832396 39.8
   endloop
endfacet
facet normal 0.38268343236509 0.923879532511287 0.0
   outer loop
      vertex 2.02220324727275 5.80126533605837 39.8
      vertex 3.46928897665762 5.20186280103059 8.79999999999998
      vertex 2.02220324727275 5.80126533605837 8.79999999999998
   endloop
endfacet
facet normal 0.38268343236509 0.923879532511287 0.0
   outer loop
      vertex 3.46928897665762 5.20186280103059 8.79999999999998
      vertex 2.02220324727275 5.80126533605837 39.8
      vertex 3.46928897665762 5.20186280103059 39.8
   endloop
endfacet
facet normal -0.130526192220052 0.99144486137381 0.0
   outer loop
      vertex -1.08362529395751 5.80126533605837 39.8
      vertex 0.469288976657623 6.00571037832396 8.79999999999998
      vertex -1.08362529395751 5.80126533605837 8.79999999999998
   endloop
endfacet
facet normal -0.130526192220052 0.99144486137381 0.0
   outer loop
      vertex 0.469288976657623 6.00571037832396 8.79999999999998
      vertex -1.08362529395751 5.80126533605837 39.8
      vertex 0.469288976657623 6.00571037832396 39.8
   endloop
endfacet
facet normal 0.793353340291235 0.608761429008721 0.0
   outer loop
      vertex 4.71192966377691 4.24835106544324 8.79999999999998
      vertex 5.66544139936425 3.00571037832396 39.8
      vertex 5.66544139936425 3.00571037832396 8.79999999999998
   endloop
endfacet
facet normal 0.793353340291235 0.608761429008721 0.0
   outer loop
      vertex 5.66544139936425 3.00571037832396 39.8
      vertex 4.71192966377691 4.24835106544324 8.79999999999998
      vertex 4.71192966377691 4.24835106544324 39.8
   endloop
endfacet
facet normal 0.608761429008721 -0.793353340291235 0.0
   outer loop
      vertex 4.71192966377691 -4.23693030879533 39.8
      vertex 3.46928897665763 -5.19044204438268 8.79999999999998
      vertex 4.71192966377691 -4.23693030879533 8.79999999999998
   endloop
endfacet
facet normal 0.608761429008721 -0.793353340291235 0.0
   outer loop
      vertex 3.46928897665763 -5.19044204438268 8.79999999999998
      vertex 4.71192966377691 -4.23693030879533 39.8
      vertex 3.46928897665763 -5.19044204438268 39.8
   endloop
endfacet
facet normal 0.382683432365089 -0.923879532511287 0.0
   outer loop
      vertex 6.34999999999999 -10.9985226280624 8.8
      vertex 3.28700187280201 -12.2672579938712 0.0
      vertex 6.34999999999999 -10.9985226280624 0.0
   endloop
endfacet
facet normal 0.382683432365089 -0.923879532511287 0.0
   outer loop
      vertex 3.28700187280201 -12.2672579938712 0.0
      vertex 6.34999999999999 -10.9985226280624 8.8
      vertex 3.28700187280201 -12.2672579938712 8.8
   endloop
endfacet
facet normal -0.793353340291235 -0.60876142900872 -0.0
   outer loop
      vertex -10.9985226280624 -6.35 8.8
      vertex -8.98025612106916 -8.98025612106915 0.0
      vertex -8.98025612106916 -8.98025612106915 8.8
   endloop
endfacet
facet normal -0.793353340291235 -0.60876142900872 -0.0
   outer loop
      vertex -8.98025612106916 -8.98025612106915 0.0
      vertex -10.9985226280624 -6.35 8.8
      vertex -10.9985226280624 -6.35 0.0
   endloop
endfacet
facet normal 0.608761429008721 0.793353340291235 0.0
   outer loop
      vertex 3.46928897665762 5.20186280103059 39.8
      vertex 4.71192966377691 4.24835106544324 8.79999999999998
      vertex 3.46928897665762 5.20186280103059 8.79999999999998
   endloop
endfacet
facet normal 0.608761429008721 0.793353340291235 0.0
   outer loop
      vertex 4.71192966377691 4.24835106544324 8.79999999999998
      vertex 3.46928897665762 5.20186280103059 39.8
      vertex 4.71192966377691 4.24835106544324 39.8
   endloop
endfacet
facet normal 0.991444861373811 -0.130526192220051 0.0
   outer loop
      vertex 6.46928897665762 0.00571037832395692 8.79999999999998
      vertex 6.26484393439203 -1.54720389229117 39.8
      vertex 6.26484393439203 -1.54720389229117 8.79999999999998
   endloop
endfacet
facet normal 0.991444861373811 -0.130526192220051 0.0
   outer loop
      vertex 6.26484393439203 -1.54720389229117 39.8
      vertex 6.46928897665762 0.00571037832395692 8.79999999999998
      vertex 6.46928897665762 0.00571037832395692 39.8
   endloop
endfacet
facet normal -0.130526192220051 -0.991444861373811 -0.0
   outer loop
      vertex 0.469288976657623 -5.99428962167604 39.8
      vertex -1.0836252939575 -5.78984457941045 8.79999999999998
      vertex 0.469288976657623 -5.99428962167604 8.79999999999998
   endloop
endfacet
facet normal -0.130526192220051 -0.991444861373811 -0.0
   outer loop
      vertex -1.0836252939575 -5.78984457941045 8.79999999999998
      vertex 0.469288976657623 -5.99428962167604 39.8
      vertex -1.0836252939575 -5.78984457941045 39.8
   endloop
endfacet
facet normal -0.38268343236509 -0.923879532511287 -0.0
   outer loop
      vertex -3.28700187280202 -12.2672579938712 8.8
      vertex -6.35 -10.9985226280624 0.0
      vertex -3.28700187280202 -12.2672579938712 0.0
   endloop
endfacet
facet normal -0.38268343236509 -0.923879532511287 -0.0
   outer loop
      vertex -6.35 -10.9985226280624 0.0
      vertex -3.28700187280202 -12.2672579938712 8.8
      vertex -6.35 -10.9985226280624 8.8
   endloop
endfacet
facet normal 0.923879532511287 -0.382683432365091 0.0
   outer loop
      vertex 12.2672579938712 -3.28700187280202 0.0
      vertex 10.9985226280624 -6.35 8.8
      vertex 10.9985226280624 -6.35 0.0
   endloop
endfacet
facet normal 0.923879532511287 -0.382683432365091 0.0
   outer loop
      vertex 10.9985226280624 -6.35 8.8
      vertex 12.2672579938712 -3.28700187280202 0.0
      vertex 12.2672579938712 -3.28700187280202 8.8
   endloop
endfacet
facet normal -0.60876142900872 -0.793353340291235 -0.0
   outer loop
      vertex -2.53071102334238 -5.19044204438268 39.8
      vertex -3.77335171046166 -4.23693030879533 8.79999999999998
      vertex -2.53071102334238 -5.19044204438268 8.79999999999998
   endloop
endfacet
facet normal -0.60876142900872 -0.793353340291235 -0.0
   outer loop
      vertex -3.77335171046166 -4.23693030879533 8.79999999999998
      vertex -2.53071102334238 -5.19044204438268 39.8
      vertex -3.77335171046166 -4.23693030879533 39.8
   endloop
endfacet
facet normal 0.0 0.0 1.0
   outer loop
      vertex -5.32626598107679 -1.54720389229117 39.8
      vertex -5.32626598107679 1.55862464893908 39.8
      vertex -5.53071102334238 0.00571037832395545 39.8
   endloop
endfacet
facet normal 0.0 0.0 1.0
   outer loop
      vertex -5.32626598107679 1.55862464893908 39.8
      vertex -5.32626598107679 -1.54720389229117 39.8
      vertex -4.72686344604901 3.00571037832395 39.8
   endloop
endfacet
facet normal 0.0 0.0 1.0
   outer loop
      vertex -4.72686344604901 3.00571037832395 39.8
      vertex -5.32626598107679 -1.54720389229117 39.8
      vertex -4.72686344604901 -2.99428962167605 39.8
   endloop
endfacet
facet normal 0.0 0.0 1.0
   outer loop
      vertex -4.72686344604901 3.00571037832395 39.8
      vertex -4.72686344604901 -2.99428962167605 39.8
      vertex -3.77335171046166 4.24835106544324 39.8
   endloop
endfacet
facet normal 0.0 0.0 1.0
   outer loop
      vertex -3.77335171046166 4.24835106544324 39.8
      vertex -4.72686344604901 -2.99428962167605 39.8
      vertex -3.77335171046166 -4.23693030879533 39.8
   endloop
endfacet
facet normal 0.0 0.0 1.0
   outer loop
      vertex -3.77335171046166 4.24835106544324 39.8
      vertex -3.77335171046166 -4.23693030879533 39.8
      vertex -2.53071102334238 5.20186280103059 39.8
   endloop
endfacet
facet normal 0.0 0.0 1.0
   outer loop
      vertex -2.53071102334238 5.20186280103059 39.8
      vertex -3.77335171046166 -4.23693030879533 39.8
      vertex -2.53071102334238 -5.19044204438268 39.8
   endloop
endfacet
facet normal 0.0 0.0 1.0
   outer loop
      vertex -2.53071102334238 5.20186280103059 39.8
      vertex -2.53071102334238 -5.19044204438268 39.8
      vertex -1.08362529395751 5.80126533605837 39.8
   endloop
endfacet
facet normal 0.0 0.0 1.0
   outer loop
      vertex -1.08362529395751 5.80126533605837 39.8
      vertex -2.53071102334238 -5.19044204438268 39.8
      vertex -1.0836252939575 -5.78984457941045 39.8
   endloop
endfacet
facet normal 0.0 0.0 1.0
   outer loop
      vertex -1.08362529395751 5.80126533605837 39.8
      vertex -1.0836252939575 -5.78984457941045 39.8
      vertex 0.469288976657623 6.00571037832396 39.8
   endloop
endfacet
facet normal 0.0 0.0 1.0
   outer loop
      vertex 0.469288976657623 6.00571037832396 39.8
      vertex -1.0836252939575 -5.78984457941045 39.8
      vertex 0.469288976657623 -5.99428962167604 39.8
   endloop
endfacet
facet normal 0.0 0.0 1.0
   outer loop
      vertex 0.469288976657623 6.00571037832396 39.8
      vertex 0.469288976657623 -5.99428962167604 39.8
      vertex 2.02220324727275 5.80126533605837 39.8
   endloop
endfacet
facet normal 0.0 0.0 1.0
   outer loop
      vertex 2.02220324727275 5.80126533605837 39.8
      vertex 0.469288976657623 -5.99428962167604 39.8
      vertex 2.02220324727275 -5.78984457941045 39.8
   endloop
endfacet
facet normal 0.0 0.0 1.0
   outer loop
      vertex 2.02220324727275 5.80126533605837 39.8
      vertex 2.02220324727275 -5.78984457941045 39.8
      vertex 3.46928897665762 5.20186280103059 39.8
   endloop
endfacet
facet normal 0.0 0.0 1.0
   outer loop
      vertex 3.46928897665762 5.20186280103059 39.8
      vertex 2.02220324727275 -5.78984457941045 39.8
      vertex 3.46928897665763 -5.19044204438268 39.8
   endloop
endfacet
facet normal 0.0 0.0 1.0
   outer loop
      vertex 3.46928897665762 5.20186280103059 39.8
      vertex 3.46928897665763 -5.19044204438268 39.8
      vertex 4.71192966377691 4.24835106544324 39.8
   endloop
endfacet
facet normal 0.0 0.0 1.0
   outer loop
      vertex 4.71192966377691 4.24835106544324 39.8
      vertex 3.46928897665763 -5.19044204438268 39.8
      vertex 4.71192966377691 -4.23693030879533 39.8
   endloop
endfacet
facet normal 0.0 0.0 1.0
   outer loop
      vertex 4.71192966377691 4.24835106544324 39.8
      vertex 4.71192966377691 -4.23693030879533 39.8
      vertex 5.66544139936425 3.00571037832396 39.8
   endloop
endfacet
facet normal 0.0 0.0 1.0
   outer loop
      vertex 5.66544139936425 3.00571037832396 39.8
      vertex 4.71192966377691 -4.23693030879533 39.8
      vertex 5.66544139936426 -2.99428962167604 39.8
   endloop
endfacet
facet normal 0.0 0.0 1.0
   outer loop
      vertex 5.66544139936425 3.00571037832396 39.8
      vertex 5.66544139936426 -2.99428962167604 39.8
      vertex 6.26484393439203 1.55862464893908 39.8
   endloop
endfacet
facet normal 0.0 0.0 1.0
   outer loop
      vertex 6.26484393439203 1.55862464893908 39.8
      vertex 5.66544139936426 -2.99428962167604 39.8
      vertex 6.26484393439203 -1.54720389229117 39.8
   endloop
endfacet
facet normal 0.0 0.0 1.0
   outer loop
      vertex 6.26484393439203 1.55862464893908 39.8
      vertex 6.26484393439203 -1.54720389229117 39.8
      vertex 6.46928897665762 0.00571037832395692 39.8
   endloop
endfacet
facet normal 0.0 0.0 -1.0
   outer loop
      vertex -12.2672579938712 3.28700187280202 0.0
      vertex -12.2672579938712 -3.28700187280201 0.0
      vertex -12.7 1.55530143491714e-15 0.0
   endloop
endfacet
facet normal 0.0 0.0 -1.0
   outer loop
      vertex -12.2672579938712 -3.28700187280201 0.0
      vertex -12.2672579938712 3.28700187280202 0.0
      vertex -10.9985226280624 -6.35 0.0
   endloop
endfacet
facet normal 0.0 0.0 -1.0
   outer loop
      vertex -10.9985226280624 -6.35 0.0
      vertex -12.2672579938712 3.28700187280202 0.0
      vertex -10.9985226280624 6.35 0.0
   endloop
endfacet
facet normal 0.0 0.0 -1.0
   outer loop
      vertex -10.9985226280624 -6.35 0.0
      vertex -10.9985226280624 6.35 0.0
      vertex -8.98025612106916 -8.98025612106915 0.0
   endloop
endfacet
facet normal 0.0 0.0 -1.0
   outer loop
      vertex -8.98025612106916 -8.98025612106915 0.0
      vertex -10.9985226280624 6.35 0.0
      vertex -8.98025612106915 8.98025612106915 0.0
   endloop
endfacet
facet normal 0.0 0.0 -1.0
   outer loop
      vertex -8.98025612106916 -8.98025612106915 0.0
      vertex -8.98025612106915 8.98025612106915 0.0
      vertex -6.35 -10.9985226280624 0.0
   endloop
endfacet
facet normal 0.0 0.0 -1.0
   outer loop
      vertex -6.35 -10.9985226280624 0.0
      vertex -8.98025612106915 8.98025612106915 0.0
      vertex -6.35 10.9985226280624 0.0
   endloop
endfacet
facet normal 0.0 0.0 -1.0
   outer loop
      vertex -6.35 -10.9985226280624 0.0
      vertex -6.35 10.9985226280624 0.0
      vertex -3.28700187280202 -12.2672579938712 0.0
   endloop
endfacet
facet normal 0.0 0.0 -1.0
   outer loop
      vertex -3.28700187280202 -12.2672579938712 0.0
      vertex -6.35 10.9985226280624 0.0
      vertex -3.28700187280201 12.2672579938712 0.0
   endloop
endfacet
facet normal 0.0 0.0 -1.0
   outer loop
      vertex -3.28700187280202 -12.2672579938712 0.0
      vertex -3.28700187280201 12.2672579938712 0.0
      vertex -2.33295215237571e-15 -12.7 0.0
   endloop
endfacet
facet normal 0.0 0.0 -1.0
   outer loop
      vertex -2.33295215237571e-15 -12.7 0.0
      vertex -3.28700187280201 12.2672579938712 0.0
      vertex 7.77650717458569e-16 12.7 0.0
   endloop
endfacet
facet normal 0.0 0.0 -1.0
   outer loop
      vertex -2.33295215237571e-15 -12.7 0.0
      vertex 7.77650717458569e-16 12.7 0.0
      vertex 3.28700187280201 -12.2672579938712 0.0
   endloop
endfacet
facet normal 0.0 0.0 -1.0
   outer loop
      vertex 3.28700187280201 -12.2672579938712 0.0
      vertex 7.77650717458569e-16 12.7 0.0
      vertex 3.28700187280202 12.2672579938712 0.0
   endloop
endfacet
facet normal 0.0 0.0 -1.0
   outer loop
      vertex 3.28700187280201 -12.2672579938712 0.0
      vertex 3.28700187280202 12.2672579938712 0.0
      vertex 6.34999999999999 -10.9985226280624 0.0
   endloop
endfacet
facet normal 0.0 0.0 -1.0
   outer loop
      vertex 6.34999999999999 -10.9985226280624 0.0
      vertex 3.28700187280202 12.2672579938712 0.0
      vertex 6.35 10.9985226280624 0.0
   endloop
endfacet
facet normal 0.0 0.0 -1.0
   outer loop
      vertex 6.34999999999999 -10.9985226280624 0.0
      vertex 6.35 10.9985226280624 0.0
      vertex 8.98025612106915 -8.98025612106916 0.0
   endloop
endfacet
facet normal 0.0 0.0 -1.0
   outer loop
      vertex 8.98025612106915 -8.98025612106916 0.0
      vertex 6.35 10.9985226280624 0.0
      vertex 8.98025612106915 8.98025612106915 0.0
   endloop
endfacet
facet normal 0.0 0.0 -1.0
   outer loop
      vertex 8.98025612106915 -8.98025612106916 0.0
      vertex 8.98025612106915 8.98025612106915 0.0
      vertex 10.9985226280624 -6.35 0.0
   endloop
endfacet
facet normal 0.0 0.0 -1.0
   outer loop
      vertex 10.9985226280624 -6.35 0.0
      vertex 8.98025612106915 8.98025612106915 0.0
      vertex 10.9985226280624 6.35 0.0
   endloop
endfacet
facet normal 0.0 0.0 -1.0
   outer loop
      vertex 10.9985226280624 -6.35 0.0
      vertex 10.9985226280624 6.35 0.0
      vertex 12.2672579938712 -3.28700187280202 0.0
   endloop
endfacet
facet normal 0.0 0.0 -1.0
   outer loop
      vertex 12.2672579938712 -3.28700187280202 0.0
      vertex 10.9985226280624 6.35 0.0
      vertex 12.2672579938712 3.28700187280201 0.0
   endloop
endfacet
facet normal 0.0 0.0 -1.0
   outer loop
      vertex 12.2672579938712 -3.28700187280202 0.0
      vertex 12.2672579938712 3.28700187280201 0.0
      vertex 12.7 0.0 0.0
   endloop
endfacet
facet normal -0.38268343236509 0.923879532511287 0.0
   outer loop
      vertex -2.53071102334238 5.20186280103059 39.8
      vertex -1.08362529395751 5.80126533605837 8.79999999999998
      vertex -2.53071102334238 5.20186280103059 8.79999999999998
   endloop
endfacet
facet normal -0.38268343236509 0.923879532511287 0.0
   outer loop
      vertex -1.08362529395751 5.80126533605837 8.79999999999998
      vertex -2.53071102334238 5.20186280103059 39.8
      vertex -1.08362529395751 5.80126533605837 39.8
   endloop
endfacet
facet normal -0.608761429008721 0.793353340291235 0.0
   outer loop
      vertex -3.77335171046166 4.24835106544324 39.8
      vertex -2.53071102334238 5.20186280103059 8.79999999999998
      vertex -3.77335171046166 4.24835106544324 8.79999999999998
   endloop
endfacet
facet normal -0.608761429008721 0.793353340291235 0.0
   outer loop
      vertex -2.53071102334238 5.20186280103059 8.79999999999998
      vertex -3.77335171046166 4.24835106544324 39.8
      vertex -2.53071102334238 5.20186280103059 39.8
   endloop
endfacet
facet normal -0.608761429008721 -0.793353340291235 -0.0
   outer loop
      vertex -6.35 -10.9985226280624 8.8
      vertex -8.98025612106916 -8.98025612106915 0.0
      vertex -6.35 -10.9985226280624 0.0
   endloop
endfacet
facet normal -0.608761429008721 -0.793353340291235 -0.0
   outer loop
      vertex -8.98025612106916 -8.98025612106915 0.0
      vertex -6.35 -10.9985226280624 8.8
      vertex -8.98025612106916 -8.98025612106915 8.8
   endloop
endfacet
facet normal 0.793353340291235 0.608761429008721 0.0
   outer loop
      vertex 8.98025612106915 8.98025612106915 0.0
      vertex 10.9985226280624 6.35 8.8
      vertex 10.9985226280624 6.35 0.0
   endloop
endfacet
facet normal 0.793353340291235 0.608761429008721 0.0
   outer loop
      vertex 10.9985226280624 6.35 8.8
      vertex 8.98025612106915 8.98025612106915 0.0
      vertex 8.98025612106915 8.98025612106915 8.8
   endloop
endfacet
facet normal 0.0 0.0 1.0
   outer loop
      vertex -12.2672579938712 -3.28700187280201 8.8
      vertex -12.2672579938712 3.28700187280202 8.8
      vertex -12.7 1.55530143491714e-15 8.8
   endloop
endfacet
facet normal 0.0 0.0 1.0
   outer loop
      vertex -12.2672579938712 3.28700187280202 8.8
      vertex -12.2672579938712 -3.28700187280201 8.8
      vertex -10.9985226280624 -6.35 8.8
   endloop
endfacet
facet normal 0.0 0.0 1.0
   outer loop
      vertex -12.2672579938712 3.28700187280202 8.8
      vertex -10.9985226280624 -6.35 8.8
      vertex -10.9985226280624 6.35 8.8
   endloop
endfacet
facet normal 0.0 0.0 1.0
   outer loop
      vertex -10.9985226280624 6.35 8.8
      vertex -10.9985226280624 -6.35 8.8
      vertex -8.98025612106916 -8.98025612106915 8.8
   endloop
endfacet
facet normal 0.0 0.0 1.0
   outer loop
      vertex -10.9985226280624 6.35 8.8
      vertex -8.98025612106916 -8.98025612106915 8.8
      vertex -8.98025612106915 8.98025612106915 8.8
   endloop
endfacet
facet normal 0.0 0.0 1.0
   outer loop
      vertex -8.98025612106915 8.98025612106915 8.8
      vertex -8.98025612106916 -8.98025612106915 8.8
      vertex -6.35 -10.9985226280624 8.8
   endloop
endfacet
facet normal 0.0 0.0 1.0
   outer loop
      vertex -8.98025612106915 8.98025612106915 8.8
      vertex -6.35 -10.9985226280624 8.8
      vertex -6.35 10.9985226280624 8.8
   endloop
endfacet
facet normal 0.0 0.0 1.0
   outer loop
      vertex -6.35 10.9985226280624 8.8
      vertex -6.35 -10.9985226280624 8.8
      vertex -5.53071102334238 0.00571037832395545 8.79999999999998
   endloop
endfacet
facet normal 0.0 0.0 1.0
   outer loop
      vertex -5.53071102334238 0.00571037832395545 8.79999999999998
      vertex -6.35 -10.9985226280624 8.8
      vertex -5.32626598107679 -1.54720389229117 8.79999999999998
   endloop
endfacet
facet normal 0.0 0.0 1.0
   outer loop
      vertex -5.32626598107679 -1.54720389229117 8.79999999999998
      vertex -6.35 -10.9985226280624 8.8
      vertex -3.28700187280202 -12.2672579938712 8.8
   endloop
endfacet
facet normal 0.0 0.0 1.0
   outer loop
      vertex -5.32626598107679 -1.54720389229117 8.79999999999998
      vertex -3.28700187280202 -12.2672579938712 8.8
      vertex -4.72686344604901 -2.99428962167605 8.79999999999998
   endloop
endfacet
facet normal 0.0 0.0 1.0
   outer loop
      vertex -4.72686344604901 -2.99428962167605 8.79999999999998
      vertex -3.28700187280202 -12.2672579938712 8.8
      vertex -3.77335171046166 -4.23693030879533 8.79999999999998
   endloop
endfacet
facet normal 0.0 0.0 1.0
   outer loop
      vertex -3.77335171046166 -4.23693030879533 8.79999999999998
      vertex -3.28700187280202 -12.2672579938712 8.8
      vertex -2.53071102334238 -5.19044204438268 8.79999999999998
   endloop
endfacet
facet normal 0.0 0.0 1.0
   outer loop
      vertex -2.53071102334238 -5.19044204438268 8.79999999999998
      vertex -3.28700187280202 -12.2672579938712 8.8
      vertex -2.33295215237571e-15 -12.7 8.8
   endloop
endfacet
facet normal 0.0 0.0 1.0
   outer loop
      vertex -2.53071102334238 -5.19044204438268 8.79999999999998
      vertex -2.33295215237571e-15 -12.7 8.8
      vertex -1.0836252939575 -5.78984457941045 8.79999999999998
   endloop
endfacet
facet normal 0.0 0.0 1.0
   outer loop
      vertex -1.0836252939575 -5.78984457941045 8.79999999999998
      vertex -2.33295215237571e-15 -12.7 8.8
      vertex 0.469288976657623 -5.99428962167604 8.79999999999998
   endloop
endfacet
facet normal 0.0 0.0 1.0
   outer loop
      vertex 0.469288976657623 -5.99428962167604 8.79999999999998
      vertex -2.33295215237571e-15 -12.7 8.8
      vertex 3.28700187280201 -12.2672579938712 8.8
   endloop
endfacet
facet normal 0.0 0.0 1.0
   outer loop
      vertex 0.469288976657623 -5.99428962167604 8.79999999999998
      vertex 3.28700187280201 -12.2672579938712 8.8
      vertex 2.02220324727275 -5.78984457941045 8.79999999999998
   endloop
endfacet
facet normal 0.0 0.0 1.0
   outer loop
      vertex 2.02220324727275 -5.78984457941045 8.79999999999998
      vertex 3.28700187280201 -12.2672579938712 8.8
      vertex 3.46928897665763 -5.19044204438268 8.79999999999998
   endloop
endfacet
facet normal 0.0 0.0 1.0
   outer loop
      vertex 3.46928897665763 -5.19044204438268 8.79999999999998
      vertex 3.28700187280201 -12.2672579938712 8.8
      vertex 6.34999999999999 -10.9985226280624 8.8
   endloop
endfacet
facet normal 0.0 0.0 1.0
   outer loop
      vertex 3.46928897665763 -5.19044204438268 8.79999999999998
      vertex 6.34999999999999 -10.9985226280624 8.8
      vertex 4.71192966377691 -4.23693030879533 8.79999999999998
   endloop
endfacet
facet normal 0.0 0.0 1.0
   outer loop
      vertex 4.71192966377691 -4.23693030879533 8.79999999999998
      vertex 6.34999999999999 -10.9985226280624 8.8
      vertex 5.66544139936426 -2.99428962167604 8.79999999999998
   endloop
endfacet
facet normal 0.0 0.0 1.0
   outer loop
      vertex 5.66544139936426 -2.99428962167604 8.79999999999998
      vertex 6.34999999999999 -10.9985226280624 8.8
      vertex 6.26484393439203 -1.54720389229117 8.79999999999998
   endloop
endfacet
facet normal 0.0 0.0 1.0
   outer loop
      vertex 6.26484393439203 -1.54720389229117 8.79999999999998
      vertex 6.34999999999999 -10.9985226280624 8.8
      vertex 6.46928897665762 0.00571037832395692 8.79999999999998
   endloop
endfacet
facet normal 0.0 0.0 1.0
   outer loop
      vertex 6.46928897665762 0.00571037832395692 8.79999999999998
      vertex 6.34999999999999 -10.9985226280624 8.8
      vertex 8.98025612106915 -8.98025612106916 8.8
   endloop
endfacet
facet normal 0.0 0.0 1.0
   outer loop
      vertex -6.35 10.9985226280624 8.8
      vertex -5.32626598107679 1.55862464893908 8.79999999999998
      vertex -3.28700187280201 12.2672579938712 8.8
   endloop
endfacet
facet normal 0.0 0.0 1.0
   outer loop
      vertex -5.32626598107679 1.55862464893908 8.79999999999998
      vertex -6.35 10.9985226280624 8.8
      vertex -5.53071102334238 0.00571037832395545 8.79999999999998
   endloop
endfacet
facet normal 0.0 0.0 1.0
   outer loop
      vertex -3.28700187280201 12.2672579938712 8.8
      vertex -5.32626598107679 1.55862464893908 8.79999999999998
      vertex -4.72686344604901 3.00571037832395 8.79999999999998
   endloop
endfacet
facet normal 0.0 0.0 1.0
   outer loop
      vertex -3.28700187280201 12.2672579938712 8.8
      vertex -4.72686344604901 3.00571037832395 8.79999999999998
      vertex -3.77335171046166 4.24835106544324 8.79999999999998
   endloop
endfacet
facet normal 0.0 0.0 1.0
   outer loop
      vertex -3.28700187280201 12.2672579938712 8.8
      vertex -3.77335171046166 4.24835106544324 8.79999999999998
      vertex -2.53071102334238 5.20186280103059 8.79999999999998
   endloop
endfacet
facet normal 0.0 0.0 1.0
   outer loop
      vertex -3.28700187280201 12.2672579938712 8.8
      vertex -2.53071102334238 5.20186280103059 8.79999999999998
      vertex 7.77650717458569e-16 12.7 8.8
   endloop
endfacet
facet normal 0.0 0.0 1.0
   outer loop
      vertex 7.77650717458569e-16 12.7 8.8
      vertex -2.53071102334238 5.20186280103059 8.79999999999998
      vertex -1.08362529395751 5.80126533605837 8.79999999999998
   endloop
endfacet
facet normal 0.0 0.0 1.0
   outer loop
      vertex 7.77650717458569e-16 12.7 8.8
      vertex -1.08362529395751 5.80126533605837 8.79999999999998
      vertex 0.469288976657623 6.00571037832396 8.79999999999998
   endloop
endfacet
facet normal 0.0 0.0 1.0
   outer loop
      vertex 7.77650717458569e-16 12.7 8.8
      vertex 0.469288976657623 6.00571037832396 8.79999999999998
      vertex 3.28700187280202 12.2672579938712 8.8
   endloop
endfacet
facet normal 0.0 0.0 1.0
   outer loop
      vertex 3.28700187280202 12.2672579938712 8.8
      vertex 0.469288976657623 6.00571037832396 8.79999999999998
      vertex 2.02220324727275 5.80126533605837 8.79999999999998
   endloop
endfacet
facet normal 0.0 0.0 1.0
   outer loop
      vertex 3.28700187280202 12.2672579938712 8.8
      vertex 2.02220324727275 5.80126533605837 8.79999999999998
      vertex 3.46928897665762 5.20186280103059 8.79999999999998
   endloop
endfacet
facet normal 0.0 0.0 1.0
   outer loop
      vertex 3.28700187280202 12.2672579938712 8.8
      vertex 3.46928897665762 5.20186280103059 8.79999999999998
      vertex 6.35 10.9985226280624 8.8
   endloop
endfacet
facet normal 0.0 0.0 1.0
   outer loop
      vertex 6.35 10.9985226280624 8.8
      vertex 3.46928897665762 5.20186280103059 8.79999999999998
      vertex 4.71192966377691 4.24835106544324 8.79999999999998
   endloop
endfacet
facet normal 0.0 0.0 1.0
   outer loop
      vertex 6.35 10.9985226280624 8.8
      vertex 4.71192966377691 4.24835106544324 8.79999999999998
      vertex 5.66544139936425 3.00571037832396 8.79999999999998
   endloop
endfacet
facet normal 0.0 0.0 1.0
   outer loop
      vertex 6.35 10.9985226280624 8.8
      vertex 5.66544139936425 3.00571037832396 8.79999999999998
      vertex 6.26484393439203 1.55862464893908 8.79999999999998
   endloop
endfacet
facet normal 0.0 0.0 1.0
   outer loop
      vertex 6.35 10.9985226280624 8.8
      vertex 6.26484393439203 1.55862464893908 8.79999999999998
      vertex 6.46928897665762 0.00571037832395692 8.79999999999998
   endloop
endfacet
facet normal 0.0 0.0 1.0
   outer loop
      vertex 6.35 10.9985226280624 8.8
      vertex 6.46928897665762 0.00571037832395692 8.79999999999998
      vertex 8.98025612106915 8.98025612106915 8.8
   endloop
endfacet
facet normal 0.0 0.0 1.0
   outer loop
      vertex 8.98025612106915 8.98025612106915 8.8
      vertex 6.46928897665762 0.00571037832395692 8.79999999999998
      vertex 8.98025612106915 -8.98025612106916 8.8
   endloop
endfacet
facet normal 0.0 0.0 1.0
   outer loop
      vertex 8.98025612106915 8.98025612106915 8.8
      vertex 8.98025612106915 -8.98025612106916 8.8
      vertex 10.9985226280624 -6.35 8.8
   endloop
endfacet
facet normal 0.0 0.0 1.0
   outer loop
      vertex 8.98025612106915 8.98025612106915 8.8
      vertex 10.9985226280624 -6.35 8.8
      vertex 10.9985226280624 6.35 8.8
   endloop
endfacet
facet normal 0.0 0.0 1.0
   outer loop
      vertex 10.9985226280624 6.35 8.8
      vertex 10.9985226280624 -6.35 8.8
      vertex 12.2672579938712 -3.28700187280202 8.8
   endloop
endfacet
facet normal 0.0 0.0 1.0
   outer loop
      vertex 10.9985226280624 6.35 8.8
      vertex 12.2672579938712 -3.28700187280202 8.8
      vertex 12.2672579938712 3.28700187280201 8.8
   endloop
endfacet
facet normal 0.0 0.0 1.0
   outer loop
      vertex 12.2672579938712 3.28700187280201 8.8
      vertex 12.2672579938712 -3.28700187280202 8.8
      vertex 12.7 0.0 8.8
   endloop
endfacet
facet normal 0.608761429008721 0.793353340291235 0.0
   outer loop
      vertex 6.35 10.9985226280624 8.8
      vertex 8.98025612106915 8.98025612106915 0.0
      vertex 6.35 10.9985226280624 0.0
   endloop
endfacet
facet normal 0.608761429008721 0.793353340291235 0.0
   outer loop
      vertex 8.98025612106915 8.98025612106915 0.0
      vertex 6.35 10.9985226280624 8.8
      vertex 8.98025612106915 8.98025612106915 8.8
   endloop
endfacet
facet normal -0.793353340291236 0.60876142900872 0.0
   outer loop
      vertex -3.77335171046166 4.24835106544324 39.8
      vertex -4.72686344604901 3.00571037832395 8.79999999999998
      vertex -4.72686344604901 3.00571037832395 39.8
   endloop
endfacet
facet normal -0.793353340291236 0.60876142900872 0.0
   outer loop
      vertex -4.72686344604901 3.00571037832395 8.79999999999998
      vertex -3.77335171046166 4.24835106544324 39.8
      vertex -3.77335171046166 4.24835106544324 8.79999999999998
   endloop
endfacet
facet normal 0.130526192220052 -0.99144486137381 0.0
   outer loop
      vertex 2.02220324727275 -5.78984457941045 39.8
      vertex 0.469288976657623 -5.99428962167604 8.79999999999998
      vertex 2.02220324727275 -5.78984457941045 8.79999999999998
   endloop
endfacet
facet normal 0.130526192220052 -0.99144486137381 0.0
   outer loop
      vertex 0.469288976657623 -5.99428962167604 8.79999999999998
      vertex 2.02220324727275 -5.78984457941045 39.8
      vertex 0.469288976657623 -5.99428962167604 39.8
   endloop
endfacet
facet normal 0.99144486137381 0.130526192220052 0.0
   outer loop
      vertex 12.2672579938712 3.28700187280201 0.0
      vertex 12.7 0.0 8.8
      vertex 12.7 0.0 0.0
   endloop
endfacet
facet normal 0.99144486137381 0.130526192220052 0.0
   outer loop
      vertex 12.7 0.0 8.8
      vertex 12.2672579938712 3.28700187280201 0.0
      vertex 12.2672579938712 3.28700187280201 8.8
   endloop
endfacet
facet normal -0.923879532511287 -0.38268343236509 -0.0
   outer loop
      vertex -5.32626598107679 -1.54720389229117 39.8
      vertex -4.72686344604901 -2.99428962167605 8.79999999999998
      vertex -4.72686344604901 -2.99428962167605 39.8
   endloop
endfacet
facet normal -0.923879532511287 -0.38268343236509 -0.0
   outer loop
      vertex -4.72686344604901 -2.99428962167605 8.79999999999998
      vertex -5.32626598107679 -1.54720389229117 39.8
      vertex -5.32626598107679 -1.54720389229117 8.79999999999998
   endloop
endfacet
facet normal 0.60876142900872 -0.793353340291236 0.0
   outer loop
      vertex 8.98025612106915 -8.98025612106916 8.8
      vertex 6.34999999999999 -10.9985226280624 0.0
      vertex 8.98025612106915 -8.98025612106916 0.0
   endloop
endfacet
facet normal 0.60876142900872 -0.793353340291236 0.0
   outer loop
      vertex 6.34999999999999 -10.9985226280624 0.0
      vertex 8.98025612106915 -8.98025612106916 8.8
      vertex 6.34999999999999 -10.9985226280624 8.8
   endloop
endfacet
facet normal 0.130526192220052 0.99144486137381 0.0
   outer loop
      vertex 7.77650717458569e-16 12.7 8.8
      vertex 3.28700187280202 12.2672579938712 0.0
      vertex 7.77650717458569e-16 12.7 0.0
   endloop
endfacet
facet normal 0.130526192220052 0.99144486137381 0.0
   outer loop
      vertex 3.28700187280202 12.2672579938712 0.0
      vertex 7.77650717458569e-16 12.7 8.8
      vertex 3.28700187280202 12.2672579938712 8.8
   endloop
endfacet
facet normal 0.38268343236509 -0.923879532511287 0.0
   outer loop
      vertex 3.46928897665763 -5.19044204438268 39.8
      vertex 2.02220324727275 -5.78984457941045 8.79999999999998
      vertex 3.46928897665763 -5.19044204438268 8.79999999999998
   endloop
endfacet
facet normal 0.38268343236509 -0.923879532511287 0.0
   outer loop
      vertex 2.02220324727275 -5.78984457941045 8.79999999999998
      vertex 3.46928897665763 -5.19044204438268 39.8
      vertex 2.02220324727275 -5.78984457941045 39.8
   endloop
endfacet
facet normal -0.923879532511287 0.382683432365089 0.0
   outer loop
      vertex -4.72686344604901 3.00571037832395 39.8
      vertex -5.32626598107679 1.55862464893908 8.79999999999998
      vertex -5.32626598107679 1.55862464893908 39.8
   endloop
endfacet
facet normal -0.923879532511287 0.382683432365089 0.0
   outer loop
      vertex -5.32626598107679 1.55862464893908 8.79999999999998
      vertex -4.72686344604901 3.00571037832395 39.8
      vertex -4.72686344604901 3.00571037832395 8.79999999999998
   endloop
endfacet
facet normal -0.793353340291235 -0.608761429008721 -0.0
   outer loop
      vertex -4.72686344604901 -2.99428962167605 39.8
      vertex -3.77335171046166 -4.23693030879533 8.79999999999998
      vertex -3.77335171046166 -4.23693030879533 39.8
   endloop
endfacet
facet normal -0.793353340291235 -0.608761429008721 -0.0
   outer loop
      vertex -3.77335171046166 -4.23693030879533 8.79999999999998
      vertex -4.72686344604901 -2.99428962167605 39.8
      vertex -4.72686344604901 -2.99428962167605 8.79999999999998
   endloop
endfacet
facet normal -0.991444861373811 0.130526192220051 0.0
   outer loop
      vertex -5.32626598107679 1.55862464893908 39.8
      vertex -5.53071102334238 0.00571037832395545 8.79999999999998
      vertex -5.53071102334238 0.00571037832395545 39.8
   endloop
endfacet
facet normal -0.991444861373811 0.130526192220051 0.0
   outer loop
      vertex -5.53071102334238 0.00571037832395545 8.79999999999998
      vertex -5.32626598107679 1.55862464893908 39.8
      vertex -5.32626598107679 1.55862464893908 8.79999999999998
   endloop
endfacet
facet normal -0.99144486137381 -0.130526192220052 -0.0
   outer loop
      vertex -5.53071102334238 0.00571037832395545 39.8
      vertex -5.32626598107679 -1.54720389229117 8.79999999999998
      vertex -5.32626598107679 -1.54720389229117 39.8
   endloop
endfacet
facet normal -0.99144486137381 -0.130526192220052 -0.0
   outer loop
      vertex -5.32626598107679 -1.54720389229117 8.79999999999998
      vertex -5.53071102334238 0.00571037832395545 39.8
      vertex -5.53071102334238 0.00571037832395545 8.79999999999998
   endloop
endfacet
facet normal 0.38268343236509 0.923879532511287 0.0
   outer loop
      vertex 3.28700187280202 12.2672579938712 8.8
      vertex 6.35 10.9985226280624 0.0
      vertex 3.28700187280202 12.2672579938712 0.0
   endloop
endfacet
facet normal 0.38268343236509 0.923879532511287 0.0
   outer loop
      vertex 6.35 10.9985226280624 0.0
      vertex 3.28700187280202 12.2672579938712 8.8
      vertex 6.35 10.9985226280624 8.8
   endloop
endfacet
facet normal 0.99144486137381 -0.130526192220052 0.0
   outer loop
      vertex 12.7 0.0 0.0
      vertex 12.2672579938712 -3.28700187280202 8.8
      vertex 12.2672579938712 -3.28700187280202 0.0
   endloop
endfacet
facet normal 0.99144486137381 -0.130526192220052 0.0
   outer loop
      vertex 12.2672579938712 -3.28700187280202 8.8
      vertex 12.7 0.0 0.0
      vertex 12.7 0.0 8.8
   endloop
endfacet
facet normal -0.99144486137381 -0.130526192220051 -0.0
   outer loop
      vertex -12.7 1.55530143491714e-15 8.8
      vertex -12.2672579938712 -3.28700187280201 0.0
      vertex -12.2672579938712 -3.28700187280201 8.8
   endloop
endfacet
facet normal -0.99144486137381 -0.130526192220051 -0.0
   outer loop
      vertex -12.2672579938712 -3.28700187280201 0.0
      vertex -12.7 1.55530143491714e-15 8.8
      vertex -12.7 1.55530143491714e-15 0.0
   endloop
endfacet
facet normal 0.130526192220051 0.99144486137381 0.0
   outer loop
      vertex 0.469288976657623 6.00571037832396 39.8
      vertex 2.02220324727275 5.80126533605837 8.79999999999998
      vertex 0.469288976657623 6.00571037832396 8.79999999999998
   endloop
endfacet
facet normal 0.130526192220051 0.99144486137381 0.0
   outer loop
      vertex 2.02220324727275 5.80126533605837 8.79999999999998
      vertex 0.469288976657623 6.00571037832396 39.8
      vertex 2.02220324727275 5.80126533605837 39.8
   endloop
endfacet
facet normal -0.793353340291235 0.608761429008721 0.0
   outer loop
      vertex -8.98025612106915 8.98025612106915 8.8
      vertex -10.9985226280624 6.35 0.0
      vertex -10.9985226280624 6.35 8.8
   endloop
endfacet
facet normal -0.793353340291235 0.608761429008721 0.0
   outer loop
      vertex -10.9985226280624 6.35 0.0
      vertex -8.98025612106915 8.98025612106915 8.8
      vertex -8.98025612106915 8.98025612106915 0.0
   endloop
endfacet
endsolid Hello World 1
